<svg width="90" height="90" viewBox="0 0 90 90" fill="none" xmlns="http://www.w3.org/2000/svg">
<rect width="90" height="90" fill="#54A0FF"/>
<rect x="64.3398" y="19.9916" width="11.0557" height="3.3844" rx="0.902507" fill="#DDDDCA"/>
<path fill-rule="evenodd" clip-rule="evenodd" d="M31.2796 8.25902C29.7516 8.25902 28.4131 9.28287 28.0132 10.7576L25.0807 21.571H62.5348L59.6023 10.7576C59.2024 9.28287 57.8639 8.25902 56.3359 8.25902H31.2796ZM7.25627 21.7966C6.01017 21.7966 5 22.8068 5 24.0529V80.0083C5 81.2544 6.01017 82.2646 7.25627 82.2646H81.7131C82.9592 82.2646 83.9694 81.2544 83.9694 80.0083V24.0529C83.9694 22.8068 82.9592 21.7966 81.7131 21.7966H36.3138H7.25627Z" fill="#DDDDCA"/>
<path d="M11.9701 30.8509C11.3015 30.8509 10.7596 30.3082 10.7596 29.6389C10.7596 28.9695 11.3015 28.4274 11.9701 28.4274C12.2057 28.4274 12.4258 28.4947 12.6116 28.6113L11.9701 29.6389L13.1779 28.9409C13.0466 28.7316 12.8584 28.5513 12.6309 28.4144C12.3413 28.2409 11.9384 28.1335 11.493 28.1335C10.8576 28.1335 10.3001 28.3646 9.98926 28.7107C9.7591 28.9666 9.62207 29.2886 9.62207 29.6389C9.62207 29.9894 9.7591 30.3117 9.98926 30.5677C10.3009 30.9142 10.8501 31.144 11.475 31.144C12.0999 31.144 12.6488 30.914 12.9607 30.5677C12.9778 30.5486 12.9943 30.5294 13.01 30.5094L12.9629 30.3327C12.7438 30.6458 12.3808 30.8509 11.9701 30.8509" fill="#818188"/>
<path d="M16.0531 31.1519L15.5461 29.2591C15.4647 28.9532 15.1865 28.7284 14.8552 28.7284C14.7692 28.7284 14.6869 28.7438 14.6105 28.7716L13.5192 29.1688H14.6416L14.8334 29.8858C14.6474 29.7255 14.405 29.628 14.1397 29.628C13.6128 29.628 13.1863 29.9813 13.1863 30.4173C13.1863 30.8532 13.6128 31.2071 14.1397 31.2071C14.519 31.2071 14.8544 31.0213 15.0613 30.7357L15.1726 31.1519H16.0531V31.1519ZM14.5068 30.8579C14.2638 30.8579 14.0667 30.6609 14.0667 30.4173C14.0667 30.174 14.2638 29.9768 14.5068 29.9768C14.7498 29.9768 14.947 30.174 14.947 30.4173C14.947 30.6609 14.7498 30.8579 14.5068 30.8579Z" fill="#818188"/>
<path d="M18.0414 28.6479C17.9749 28.6479 17.912 28.6626 17.8559 28.689L17.1552 29.0158C17.1205 28.8071 16.9393 28.6479 16.7207 28.6479C16.6546 28.6479 16.5915 28.6626 16.5347 28.689L15.6792 29.088H16.2807V31.0711H17.1611V29.3086C17.1611 29.187 17.2595 29.088 17.3813 29.088C17.5025 29.088 17.6015 29.187 17.6015 29.3086V31.0711H18.4816V29.088C18.4816 28.8448 18.2844 28.6479 18.0414 28.6479" fill="#818188"/>
<path d="M21.3425 29.896C21.3425 30.5853 20.7844 31.1439 20.0959 31.1439C19.4069 31.1439 18.8484 30.5853 18.8484 29.896C18.8484 29.2068 19.4069 28.6479 20.0959 28.6479C20.7844 28.6479 21.3425 29.2069 21.3425 29.896V29.896ZM20.1475 29.0267C20.1083 28.8798 19.9575 28.7927 19.8108 28.8321C19.6643 28.8715 19.5768 29.0225 19.6161 29.1693L20.0438 30.7652C20.0833 30.9122 20.2338 30.9993 20.3805 30.9604C20.5272 30.9206 20.6143 30.7697 20.575 30.6229L20.1475 29.0267V29.0267Z" fill="#818188"/>
<path d="M23.5628 28.6479C23.4961 28.6479 23.4328 28.6626 23.3758 28.689L22.6758 29.0158C22.6413 28.8071 22.4601 28.6479 22.2415 28.6479C22.1754 28.6479 22.1123 28.6626 22.0553 28.689L21.2002 29.088H21.8015V31.0711H22.6818V29.3086C22.6818 29.187 22.7803 29.088 22.9021 29.088C23.0237 29.088 23.122 29.187 23.122 29.3086V31.0711H24.0028V29.088C24.0028 28.8448 23.8054 28.6479 23.5628 28.6479" fill="#818188"/>
<path fill-rule="evenodd" clip-rule="evenodd" d="M25.0808 43.7624V36.9136C25.0808 36.4152 24.6767 36.0111 24.1783 36.0111H5.90251C5.40407 36.0111 5 36.4152 5 36.9136V77.9777C5 78.4761 5.40407 78.8802 5.90251 78.8802H24.1783C24.6767 78.8802 25.0808 78.4761 25.0808 77.9777V71.3545C22.1117 67.5482 20.3428 62.7599 20.3428 57.5585C20.3428 52.3571 22.1117 47.5688 25.0808 43.7624Z" fill="#33332F"/>
<path d="M17.5939 71.3444C17.2511 71.9433 16.4544 72.1001 15.9489 71.6304C14.3334 70.129 12.9918 68.2558 12.0098 66.1212C10.8327 63.5624 10.208 60.7056 10.1901 57.7996C10.1722 54.8936 10.7617 52.0266 11.9072 49.4482C12.8634 47.2961 14.1827 45.3995 15.7808 43.8707C16.2789 43.3942 17.077 43.5395 17.4274 44.133V44.133C17.712 44.6151 17.5968 45.2294 17.1878 45.6118C15.7522 46.9541 14.5693 48.6354 13.7184 50.5505C12.7265 52.7832 12.216 55.2659 12.2315 57.7824C12.247 60.2989 12.788 62.7727 13.8073 64.9885C14.6807 66.8871 15.8826 68.5469 17.3327 69.8642C17.7485 70.242 17.8729 70.8568 17.5939 71.3444V71.3444Z" fill="#252522"/>
<path d="M83.9692 31.0473H85.0974C85.5958 31.0473 85.9999 31.4514 85.9999 31.9498V76.6239C85.9999 77.1224 85.5958 77.5264 85.0974 77.5264H83.9692V31.0473Z" fill="#818188"/>
<path fill-rule="evenodd" clip-rule="evenodd" d="M77.6891 70.4933C78.1013 69.4973 78.3287 68.4054 78.3287 67.2604C78.3287 62.5875 74.5406 58.7994 69.8677 58.7994C65.1949 58.7994 61.4067 62.5875 61.4067 67.2604C61.4067 71.9333 65.1949 75.7214 69.8677 75.7214C71.8604 75.7214 73.6921 75.0326 75.1378 73.8801L76.537 74.6879C77.5435 75.269 78.8305 74.9242 79.4116 73.9177C79.9927 72.9112 79.6479 71.6242 78.6414 71.0431L77.6891 70.4933Z" fill="#D3D3C0"/>
<path d="M64.3398 20.8941C64.3398 20.3957 64.7439 19.9916 65.2424 19.9916H74.493C74.9915 19.9916 75.3956 20.3957 75.3956 20.8941V21.6838H64.3398V20.8941Z" fill="#DDDDCA"/>
<path d="M11.7688 19.766C11.7688 19.2675 12.1729 18.8635 12.6713 18.8635H19.8914C20.3898 18.8635 20.7939 19.2675 20.7939 19.766V19.9916H11.7688V19.766Z" fill="#F64F46"/>
<path d="M8.83569 20.8941C8.83569 20.3957 9.23976 19.9916 9.7382 19.9916H23.0502C23.5486 19.9916 23.9527 20.3957 23.9527 20.8941V21.7967H8.83569V20.8941Z" fill="#818188"/>
<mask id="path-15-inside-1_2380_6206" fill="white">
<path d="M5 23.8273C5 22.5812 6.01017 21.571 7.25627 21.571H36.3138H81.7131C82.9592 21.571 83.9694 22.5812 83.9694 23.8273V80.0083C83.9694 81.2544 82.9592 82.2646 81.7131 82.2646H7.25627C6.01017 82.2646 5 81.2544 5 80.0083V23.8273Z"/>
</mask>
<path d="M5 23.8273C5 22.5812 6.01017 21.571 7.25627 21.571H36.3138H81.7131C82.9592 21.571 83.9694 22.5812 83.9694 23.8273V80.0083C83.9694 81.2544 82.9592 82.2646 81.7131 82.2646H7.25627C6.01017 82.2646 5 81.2544 5 80.0083V23.8273Z" fill="#DDDDCA"/>
<path d="M83.7437 23.8273V80.0083H84.195V23.8273H83.7437ZM81.7131 82.039H7.25627V82.4902H81.7131V82.039ZM5.22563 80.0083V23.8273H4.77437V80.0083H5.22563ZM7.25627 21.7966H36.3138V21.3454H7.25627V21.7966ZM36.3138 21.7966H81.7131V21.3454H36.3138V21.7966ZM7.25627 82.039C6.13478 82.039 5.22563 81.1298 5.22563 80.0083H4.77437C4.77437 81.3791 5.88556 82.4902 7.25627 82.4902V82.039ZM83.7437 80.0083C83.7437 81.1298 82.8346 82.039 81.7131 82.039V82.4902C83.0838 82.4902 84.195 81.3791 84.195 80.0083H83.7437ZM84.195 23.8273C84.195 22.4566 83.0838 21.3454 81.7131 21.3454V21.7966C82.8346 21.7966 83.7437 22.7058 83.7437 23.8273H84.195ZM5.22563 23.8273C5.22563 22.7058 6.13478 21.7966 7.25627 21.7966V21.3454C5.88556 21.3454 4.77437 22.4566 4.77437 23.8273H5.22563Z" fill="url(#paint0_linear_2380_6206)" mask="url(#path-15-inside-1_2380_6206)"/>
<path d="M11.9701 30.8509C11.3015 30.8509 10.7596 30.3082 10.7596 29.6389C10.7596 28.9695 11.3015 28.4274 11.9701 28.4274C12.2057 28.4274 12.4258 28.4947 12.6116 28.6113L11.9701 29.6389L13.1779 28.9409C13.0466 28.7316 12.8584 28.5513 12.6309 28.4144C12.3413 28.2409 11.9384 28.1335 11.493 28.1335C10.8576 28.1335 10.3001 28.3646 9.98926 28.7107C9.7591 28.9666 9.62207 29.2886 9.62207 29.6389C9.62207 29.9894 9.7591 30.3117 9.98926 30.5677C10.3009 30.9142 10.8501 31.144 11.475 31.144C12.0999 31.144 12.6488 30.914 12.9607 30.5677C12.9778 30.5486 12.9943 30.5294 13.01 30.5094L12.9629 30.3327C12.7438 30.6458 12.3808 30.8509 11.9701 30.8509" fill="#818188"/>
<path d="M16.0531 31.1519L15.5461 29.2591C15.4647 28.9532 15.1865 28.7284 14.8552 28.7284C14.7692 28.7284 14.6869 28.7438 14.6105 28.7716L13.5192 29.1688H14.6416L14.8334 29.8858C14.6474 29.7255 14.405 29.628 14.1397 29.628C13.6128 29.628 13.1863 29.9813 13.1863 30.4173C13.1863 30.8532 13.6128 31.2071 14.1397 31.2071C14.519 31.2071 14.8544 31.0213 15.0613 30.7357L15.1726 31.1519H16.0531V31.1519ZM14.5068 30.8579C14.2638 30.8579 14.0667 30.6609 14.0667 30.4173C14.0667 30.174 14.2638 29.9768 14.5068 29.9768C14.7498 29.9768 14.947 30.174 14.947 30.4173C14.947 30.6609 14.7498 30.8579 14.5068 30.8579Z" fill="#818188"/>
<path d="M18.0414 28.6479C17.9749 28.6479 17.912 28.6626 17.8559 28.689L17.1552 29.0158C17.1205 28.8071 16.9393 28.6479 16.7207 28.6479C16.6546 28.6479 16.5915 28.6626 16.5347 28.689L15.6792 29.088H16.2807V31.0711H17.1611V29.3086C17.1611 29.187 17.2595 29.088 17.3813 29.088C17.5025 29.088 17.6015 29.187 17.6015 29.3086V31.0711H18.4816V29.088C18.4816 28.8448 18.2844 28.6479 18.0414 28.6479" fill="#818188"/>
<path d="M21.3425 29.896C21.3425 30.5853 20.7844 31.1439 20.0959 31.1439C19.4069 31.1439 18.8484 30.5853 18.8484 29.896C18.8484 29.2068 19.4069 28.6479 20.0959 28.6479C20.7844 28.6479 21.3425 29.2069 21.3425 29.896V29.896ZM20.1475 29.0267C20.1083 28.8798 19.9575 28.7927 19.8108 28.8321C19.6643 28.8715 19.5768 29.0225 19.6161 29.1693L20.0438 30.7652C20.0833 30.9122 20.2338 30.9993 20.3805 30.9604C20.5272 30.9206 20.6143 30.7697 20.575 30.6229L20.1475 29.0267V29.0267Z" fill="#818188"/>
<path d="M23.5628 28.6479C23.4961 28.6479 23.4328 28.6626 23.3758 28.689L22.6758 29.0158C22.6413 28.8071 22.4601 28.6479 22.2415 28.6479C22.1754 28.6479 22.1123 28.6626 22.0553 28.689L21.2002 29.088H21.8015V31.0711H22.6818V29.3086C22.6818 29.187 22.7803 29.088 22.9021 29.088C23.0237 29.088 23.122 29.187 23.122 29.3086V31.0711H24.0028V29.088C24.0028 28.8448 23.8054 28.6479 23.5628 28.6479" fill="#818188"/>
<path fill-rule="evenodd" clip-rule="evenodd" d="M24.6142 44.3823C24.9096 43.9754 25.0808 43.4893 25.0808 42.9865V36.9136C25.0808 36.4152 24.6767 36.0111 24.1783 36.0111H5.90251C5.40407 36.0111 5 36.4152 5 36.9136V77.9777C5 78.4761 5.40407 78.8802 5.90251 78.8802H24.1783C24.6767 78.8802 25.0808 78.4761 25.0808 77.9777V72.1304C25.0808 71.6276 24.9096 71.1415 24.6142 70.7347C21.9273 67.0341 20.3428 62.4814 20.3428 57.5585C20.3428 52.6356 21.9273 48.0828 24.6142 44.3823Z" fill="#33332F"/>
<g filter="url(#filter0_dd_2380_6206)">
<path d="M17.5939 71.3444C17.2511 71.9433 16.4544 72.1001 15.9489 71.6304C14.3334 70.129 12.9918 68.2558 12.0098 66.1212C10.8327 63.5624 10.208 60.7056 10.1901 57.7996C10.1722 54.8936 10.7617 52.0266 11.9072 49.4482C12.8634 47.2961 14.1827 45.3995 15.7808 43.8707C16.2789 43.3942 17.077 43.5395 17.4274 44.133V44.133C17.712 44.6151 17.5968 45.2294 17.1878 45.6118C15.7522 46.9541 14.5693 48.6354 13.7184 50.5505C12.7265 52.7832 12.216 55.2659 12.2315 57.7824C12.247 60.2989 12.788 62.7727 13.8073 64.9885C14.6807 66.8871 15.8826 68.5469 17.3327 69.8642C17.7485 70.242 17.8729 70.8568 17.5939 71.3444V71.3444Z" fill="#33332F"/>
</g>
<path d="M83.9692 31.0473H85.0974C85.5958 31.0473 85.9999 31.4514 85.9999 31.9498V76.6239C85.9999 77.1224 85.5958 77.5264 85.0974 77.5264H83.9692V31.0473Z" fill="#818188"/>
<path fill-rule="evenodd" clip-rule="evenodd" d="M80.1709 70.4932C80.583 69.4972 80.8104 68.4054 80.8104 67.2604C80.8104 62.5875 77.0223 58.7994 72.3494 58.7994C67.6765 58.7994 63.8884 62.5875 63.8884 67.2604C63.8884 71.9333 67.6765 75.7214 72.3494 75.7214C74.3421 75.7214 76.1739 75.0326 77.6196 73.88L79.019 74.6879C80.0255 75.269 81.3125 74.9242 81.8936 73.9177C82.4747 72.9112 82.1298 71.6242 81.1233 71.0431L80.1709 70.4932Z" fill="#C0C0AE"/>
<rect x="34.3831" y="11.4178" width="19.7675" height="9.88374" rx="0.871564" fill="#1B1B19"/>
<rect x="40.3545" y="13.8887" width="7.61871" height="4.94187" rx="0.871564" fill="#BBBBBB"/>
<rect x="40.3545" y="13.8887" width="7.61871" height="4.94187" rx="0.871564" fill="#A4A49D"/>
<g filter="url(#filter1_i_2380_6206)">
<path d="M57.0792 44.4398C57.7849 43.7302 58.9401 43.7256 59.5803 44.4948C61.7714 47.1278 63.2775 50.2795 63.9473 53.6657C64.7352 57.6485 64.3308 61.7768 62.7853 65.5285C61.2399 69.2803 58.6227 72.4869 55.2648 74.743C51.9068 76.9991 47.959 78.2033 43.9204 78.2033C39.8819 78.2033 35.9341 76.9991 32.5761 74.743C29.2182 72.4869 26.601 69.2803 25.0555 65.5285C23.5101 61.7768 23.1057 57.6485 23.8936 53.6656C24.5634 50.2795 26.0695 47.1278 28.2606 44.4948C28.9008 43.7256 30.056 43.7302 30.7617 44.4398L42.6406 56.3843C43.3463 57.0939 44.4946 57.0939 45.2003 56.3843L57.0792 44.4398Z" fill="#DDDDCA"/>
</g>
<g filter="url(#filter2_d_2380_6206)">
<circle cx="43.8737" cy="57.7127" r="15.6342" fill="#F64F46"/>
</g>
<circle cx="43.9236" cy="57.7625" r="13.4565" fill="#DDDDCA" stroke="#ABAE9B" stroke-width="0.031368"/>
<circle cx="43.8736" cy="57.7128" r="11.5653" fill="#1B1B19" stroke="#BBBBBB" stroke-width="0.376416"/>
<circle cx="43.8736" cy="57.7128" r="9.63894" fill="#1B1B19" stroke="#BBBBBB" stroke-width="0.125472"/>
<circle cx="43.874" cy="57.7128" r="7.47141" fill="url(#paint1_linear_2380_6206)"/>
<circle cx="45.6581" cy="55.9285" r="1.80652" fill="#232323"/>
<circle cx="46.8621" cy="54.4566" r="2.4756" fill="#232323" fill-opacity="0.7"/>
<circle cx="42.4239" cy="55.2372" r="3.2562" fill="#232323" fill-opacity="0.56"/>
<circle cx="44.8773" cy="58.4933" r="4.59436" fill="#232323" fill-opacity="0.4"/>
<path fill-rule="evenodd" clip-rule="evenodd" d="M31.5111 24.9554V24.9554C31.7597 24.9554 31.9938 25.0725 32.1429 25.2713L33.1582 26.625C33.3287 26.8523 33.5962 26.986 33.8802 26.986H54.6379C54.922 26.986 55.1895 26.8523 55.3599 26.625V26.625C56.1482 25.574 57.3853 24.9554 58.6992 24.9554H77.3134C79.9925 24.9554 82.1643 27.1273 82.1643 29.8064C82.1643 32.4855 79.9925 34.6574 77.3134 34.6574H53.6841C52.543 34.6574 51.4476 34.2655 50.4424 33.7256C48.601 32.7365 46.4955 32.1754 44.2589 32.1754C42.0224 32.1754 39.9169 32.7365 38.0755 33.7256C37.0703 34.2655 35.9749 34.6574 34.8338 34.6574H31.5111C28.832 34.6574 26.6602 32.4855 26.6602 29.8064C26.6602 27.1273 28.832 24.9554 31.5111 24.9554Z" fill="#33332F"/>
<circle cx="36.362" cy="30.1448" r="1.12813" fill="#5D5D53"/>
<path d="M58.6992 27.6629C58.6992 27.1645 59.1033 26.7604 59.6017 26.7604H72.4624C72.9609 26.7604 73.365 27.1645 73.365 27.6629V32.1754C73.365 32.6739 72.9609 33.078 72.4624 33.078H59.6017C59.1033 33.078 58.6992 32.6739 58.6992 32.1754V27.6629Z" fill="#918C87"/>
<circle cx="78.1031" cy="29.6936" r="1.57939" fill="#918C87"/>
<defs>
<filter id="filter0_dd_2380_6206" x="8.15906" y="42.0862" width="11.9871" height="31.3189" filterUnits="userSpaceOnUse" color-interpolation-filters="sRGB">
<feFlood flood-opacity="0" result="BackgroundImageFix"/>
<feColorMatrix in="SourceAlpha" type="matrix" values="0 0 0 0 0 0 0 0 0 0 0 0 0 0 0 0 0 0 127 0" result="hardAlpha"/>
<feOffset dx="-0.902507"/>
<feGaussianBlur stdDeviation="0.564067"/>
<feComposite in2="hardAlpha" operator="out"/>
<feColorMatrix type="matrix" values="0 0 0 0 0 0 0 0 0 0 0 0 0 0 0 0 0 0 0.17 0"/>
<feBlend mode="normal" in2="BackgroundImageFix" result="effect1_dropShadow_2380_6206"/>
<feColorMatrix in="SourceAlpha" type="matrix" values="0 0 0 0 0 0 0 0 0 0 0 0 0 0 0 0 0 0 127 0" result="hardAlpha"/>
<feMorphology radius="0.5" operator="dilate" in="SourceAlpha" result="effect2_dropShadow_2380_6206"/>
<feOffset dx="0.902507"/>
<feGaussianBlur stdDeviation="0.5"/>
<feComposite in2="hardAlpha" operator="out"/>
<feColorMatrix type="matrix" values="0 0 0 0 1 0 0 0 0 1 0 0 0 0 1 0 0 0 0.17 0"/>
<feBlend mode="normal" in2="effect1_dropShadow_2380_6206" result="effect2_dropShadow_2380_6206"/>
<feBlend mode="normal" in="SourceGraphic" in2="effect2_dropShadow_2380_6206" result="shape"/>
</filter>
<filter id="filter1_i_2380_6206" x="23.5012" y="43.2357" width="40.8384" height="34.9676" filterUnits="userSpaceOnUse" color-interpolation-filters="sRGB">
<feFlood flood-opacity="0" result="BackgroundImageFix"/>
<feBlend mode="normal" in="SourceGraphic" in2="BackgroundImageFix" result="shape"/>
<feColorMatrix in="SourceAlpha" type="matrix" values="0 0 0 0 0 0 0 0 0 0 0 0 0 0 0 0 0 0 127 0" result="hardAlpha"/>
<feMorphology radius="1.80501" operator="erode" in="SourceAlpha" result="effect1_innerShadow_2380_6206"/>
<feOffset dy="-0.67688"/>
<feGaussianBlur stdDeviation="0.620474"/>
<feComposite in2="hardAlpha" operator="arithmetic" k2="-1" k3="1"/>
<feColorMatrix type="matrix" values="0 0 0 0 1 0 0 0 0 1 0 0 0 0 1 0 0 0 0.17 0"/>
<feBlend mode="normal" in2="shape" result="effect1_innerShadow_2380_6206"/>
</filter>
<filter id="filter2_d_2380_6206" x="27.9258" y="41.8903" width="31.8957" height="31.8958" filterUnits="userSpaceOnUse" color-interpolation-filters="sRGB">
<feFlood flood-opacity="0" result="BackgroundImageFix"/>
<feColorMatrix in="SourceAlpha" type="matrix" values="0 0 0 0 0 0 0 0 0 0 0 0 0 0 0 0 0 0 127 0" result="hardAlpha"/>
<feOffset dy="0.125472"/>
<feGaussianBlur stdDeviation="0.15684"/>
<feColorMatrix type="matrix" values="0 0 0 0 0 0 0 0 0 0 0 0 0 0 0 0 0 0 0.2 0"/>
<feBlend mode="normal" in2="BackgroundImageFix" result="effect1_dropShadow_2380_6206"/>
<feBlend mode="normal" in="SourceGraphic" in2="effect1_dropShadow_2380_6206" result="shape"/>
</filter>
<linearGradient id="paint0_linear_2380_6206" x1="44.4847" y1="9.6128" x2="44.4847" y2="82.2646" gradientUnits="userSpaceOnUse">
<stop stop-color="#DBDBCB"/>
<stop offset="1" stop-color="#D8D8C7"/>
</linearGradient>
<linearGradient id="paint1_linear_2380_6206" x1="43.8963" y1="65.1842" x2="43.8963" y2="50.2414" gradientUnits="userSpaceOnUse">
<stop/>
<stop offset="1"/>
</linearGradient>
</defs>
</svg>
