<svg width="90" height="90" viewBox="0 0 90 90" fill="none" xmlns="http://www.w3.org/2000/svg">
<rect width="90" height="90" rx="8" fill="#FFBE76"/>
<rect x="7" y="6" width="78" height="78" rx="4.68" fill="url(#paint0_linear_2380_6086)"/>
<rect x="7" y="30.4629" width="78" height="46.3467" fill="#1B1B19"/>
<g filter="url(#filter0_d_2380_6086)">
<rect x="11.6895" y="35.1523" width="5.93988" height="5.93988" rx="2.96994" fill="#C4C4C4"/>
</g>
<g filter="url(#filter1_i_2380_6086)">
<path d="M38.2712 11.2498C38.722 10.0212 39.8916 9.20444 41.2003 9.20444H52.1807C53.9038 9.20444 55.3007 10.6013 55.3007 12.3244V20.9341C55.3007 22.6573 53.9038 24.0541 52.1807 24.0541H38.0413C35.8724 24.0541 34.3652 21.8957 35.1123 19.8595L38.2712 11.2498Z" fill="#BBBBBB"/>
</g>
<g filter="url(#filter2_d_2380_6086)">
<path d="M7 10.68C7 8.09531 9.09531 6 11.68 6L37.3247 6L31.7422 21.3001C31.2929 22.5315 30.1219 23.3507 28.8112 23.3507H7V10.68Z" fill="url(#paint1_linear_2380_6086)"/>
</g>
<rect x="58.4268" y="9.20444" width="23.4469" height="14.8497" rx="3.12" fill="#1B1B19"/>
<g filter="url(#filter3_d_2380_6086)">
<circle cx="45.9612" cy="53.6362" r="27.3938" fill="url(#paint2_linear_2380_6086)"/>
<circle cx="45.9612" cy="53.6362" r="27.3158" stroke="#D3D2D2" stroke-width="0.156"/>
</g>
<circle cx="45.9613" cy="53.6364" r="25.2056" fill="#1B1B19" stroke="#D3D2D2" stroke-width="0.156"/>
<circle cx="45.9609" cy="53.6363" r="19.6582" fill="#1B1B19" stroke="#BBBBBB" stroke-width="1.872"/>
<circle cx="45.9609" cy="53.6363" r="16.687" fill="#1B1B19" stroke="#BBBBBB" stroke-width="0.624"/>
<circle cx="45.9613" cy="53.6363" r="13.0912" fill="url(#paint3_linear_2380_6086)"/>
<circle cx="49.0872" cy="50.51" r="3.16533" fill="#232323"/>
<circle cx="51.1971" cy="47.9309" r="4.33768" fill="#232323" fill-opacity="0.7"/>
<circle cx="43.4207" cy="49.2986" r="5.70541" fill="#232323" fill-opacity="0.56"/>
<circle cx="47.7195" cy="55.0039" r="8.0501" fill="#232323" fill-opacity="0.4"/>
<g filter="url(#filter4_d_2380_6086)">
<circle cx="45.9612" cy="53.6362" r="27.3938" fill="url(#paint4_linear_2380_6086)"/>
<circle cx="45.9612" cy="53.6362" r="27.3158" stroke="#D3D2D2" stroke-width="0.156"/>
</g>
<circle cx="45.9613" cy="53.6364" r="25.2056" fill="#1B1B19" stroke="#D3D2D2" stroke-width="0.156"/>
<circle cx="45.9609" cy="53.6363" r="19.6582" fill="#1B1B19" stroke="#BBBBBB" stroke-width="1.872"/>
<circle cx="45.9609" cy="53.6363" r="16.687" fill="#1B1B19" stroke="#BBBBBB" stroke-width="0.624"/>
<circle cx="45.9613" cy="53.6363" r="13.0912" fill="url(#paint5_linear_2380_6086)"/>
<circle cx="49.0872" cy="50.51" r="3.16533" fill="#232323"/>
<circle cx="51.1971" cy="47.9309" r="4.33768" fill="#232323" fill-opacity="0.7"/>
<circle cx="43.4207" cy="49.2986" r="5.70541" fill="#232323" fill-opacity="0.56"/>
<circle cx="47.7195" cy="55.0039" r="8.0501" fill="#232323" fill-opacity="0.4"/>
<path d="M14.361 16.1096C13.4889 16.1096 12.7821 15.4018 12.7821 14.5287C12.7821 13.6556 13.4889 12.9485 14.361 12.9485C14.6684 12.9485 14.9554 13.0362 15.1978 13.1883L14.361 14.5287L15.9364 13.6183C15.7652 13.3453 15.5197 13.1101 15.2229 12.9316C14.8452 12.7053 14.3197 12.5652 13.7387 12.5652C12.9099 12.5652 12.1828 12.8666 11.7773 13.3181C11.4771 13.6518 11.2983 14.0718 11.2983 14.5287C11.2983 14.9859 11.4771 15.4062 11.7773 15.7402C12.1838 16.1922 12.9001 16.4919 13.7152 16.4919C14.5303 16.4919 15.2463 16.192 15.6531 15.7402C15.6754 15.7153 15.697 15.6902 15.7174 15.6642L15.6559 15.4337C15.3701 15.8421 14.8967 16.1096 14.361 16.1096" fill="#17171C"/>
<path d="M19.6866 16.5022L19.0254 14.0334C18.9192 13.6344 18.5562 13.3412 18.1241 13.3412C18.012 13.3412 17.9046 13.3612 17.805 13.3975L16.3815 13.9156H17.8455L18.0957 14.8508C17.853 14.6417 17.537 14.5145 17.1909 14.5145C16.5037 14.5145 15.9473 14.9754 15.9473 15.544C15.9473 16.1127 16.5037 16.5743 17.1909 16.5743C17.6856 16.5743 18.1231 16.3319 18.393 15.9594L18.5381 16.5022H19.6866V16.5022ZM17.6697 16.1188C17.3527 16.1188 17.0957 15.8618 17.0957 15.544C17.0957 15.2267 17.3527 14.9695 17.6697 14.9695C17.9867 14.9695 18.2439 15.2267 18.2439 15.544C18.2439 15.8618 17.9867 16.1188 17.6697 16.1188Z" fill="#17171C"/>
<path d="M22.2804 13.2361C22.1936 13.2361 22.1116 13.2553 22.0384 13.2897L21.1244 13.716C21.0792 13.4437 20.8428 13.2361 20.5577 13.2361C20.4714 13.2361 20.3891 13.2553 20.3151 13.2897L19.1992 13.8101H19.9838V16.3968H21.1322V14.0979C21.1322 13.9392 21.2604 13.8101 21.4194 13.8101C21.5774 13.8101 21.7066 13.9392 21.7066 14.0979V16.3968H22.8546V13.8101C22.8546 13.4929 22.5974 13.2361 22.2804 13.2361" fill="#17171C"/>
<path d="M26.5863 14.864C26.5863 15.7631 25.8582 16.4918 24.9602 16.4918C24.0615 16.4918 23.333 15.7631 23.333 14.864C23.333 13.9652 24.0615 13.2361 24.9602 13.2361C25.8582 13.2361 26.5863 13.9652 26.5863 14.864V14.864ZM25.0275 13.7302C24.9764 13.5386 24.7797 13.4249 24.5884 13.4764C24.3973 13.5277 24.2831 13.7247 24.3344 13.9162L24.8922 15.9978C24.9438 16.1895 25.1401 16.3031 25.3314 16.2524C25.5227 16.2006 25.6364 16.0037 25.5851 15.8122L25.0275 13.7302V13.7302Z" fill="#17171C"/>
<path d="M29.482 13.2361C29.395 13.2361 29.3125 13.2553 29.2382 13.2897L28.3251 13.716C28.2801 13.4437 28.0438 13.2361 27.7587 13.2361C27.6724 13.2361 27.5901 13.2553 27.5158 13.2897L26.4004 13.8101H27.1847V16.3968H28.3329V14.0979C28.3329 13.9392 28.4614 13.8101 28.6203 13.8101C28.7788 13.8101 28.9071 13.9392 28.9071 14.0979V16.3968H30.056V13.8101C30.056 13.4929 29.7985 13.2361 29.482 13.2361" fill="#17171C"/>
<defs>
<filter id="filter0_d_2380_6086" x="11.0655" y="35.1523" width="7.18794" height="7.18788" filterUnits="userSpaceOnUse" color-interpolation-filters="sRGB">
<feFlood flood-opacity="0" result="BackgroundImageFix"/>
<feColorMatrix in="SourceAlpha" type="matrix" values="0 0 0 0 0 0 0 0 0 0 0 0 0 0 0 0 0 0 127 0" result="hardAlpha"/>
<feOffset dy="0.624"/>
<feGaussianBlur stdDeviation="0.312"/>
<feColorMatrix type="matrix" values="0 0 0 0 0 0 0 0 0 0 0 0 0 0 0 0 0 0 1 0"/>
<feBlend mode="normal" in2="BackgroundImageFix" result="effect1_dropShadow_2380_6086"/>
<feBlend mode="normal" in="SourceGraphic" in2="effect1_dropShadow_2380_6086" result="shape"/>
</filter>
<filter id="filter1_i_2380_6086" x="34.9185" y="9.20444" width="20.3823" height="15.1617" filterUnits="userSpaceOnUse" color-interpolation-filters="sRGB">
<feFlood flood-opacity="0" result="BackgroundImageFix"/>
<feBlend mode="normal" in="SourceGraphic" in2="BackgroundImageFix" result="shape"/>
<feColorMatrix in="SourceAlpha" type="matrix" values="0 0 0 0 0 0 0 0 0 0 0 0 0 0 0 0 0 0 127 0" result="hardAlpha"/>
<feOffset dy="0.312"/>
<feGaussianBlur stdDeviation="0.156"/>
<feComposite in2="hardAlpha" operator="arithmetic" k2="-1" k3="1"/>
<feColorMatrix type="matrix" values="0 0 0 0 0 0 0 0 0 0 0 0 0 0 0 0 0 0 0.12 0"/>
<feBlend mode="normal" in2="shape" result="effect1_innerShadow_2380_6086"/>
</filter>
<filter id="filter2_d_2380_6086" x="7" y="6" width="30.9487" height="18.2867" filterUnits="userSpaceOnUse" color-interpolation-filters="sRGB">
<feFlood flood-opacity="0" result="BackgroundImageFix"/>
<feColorMatrix in="SourceAlpha" type="matrix" values="0 0 0 0 0 0 0 0 0 0 0 0 0 0 0 0 0 0 127 0" result="hardAlpha"/>
<feOffset dx="0.312" dy="0.624"/>
<feGaussianBlur stdDeviation="0.156"/>
<feColorMatrix type="matrix" values="0 0 0 0 1 0 0 0 0 1 0 0 0 0 1 0 0 0 0.4 0"/>
<feBlend mode="normal" in2="BackgroundImageFix" result="effect1_dropShadow_2380_6086"/>
<feBlend mode="normal" in="SourceGraphic" in2="effect1_dropShadow_2380_6086" result="shape"/>
</filter>
<filter id="filter3_d_2380_6086" x="17.0074" y="25.3065" width="57.9076" height="57.9076" filterUnits="userSpaceOnUse" color-interpolation-filters="sRGB">
<feFlood flood-opacity="0" result="BackgroundImageFix"/>
<feColorMatrix in="SourceAlpha" type="matrix" values="0 0 0 0 0 0 0 0 0 0 0 0 0 0 0 0 0 0 127 0" result="hardAlpha"/>
<feOffset dy="0.624"/>
<feGaussianBlur stdDeviation="0.78"/>
<feColorMatrix type="matrix" values="0 0 0 0 0 0 0 0 0 0 0 0 0 0 0 0 0 0 0.2 0"/>
<feBlend mode="normal" in2="BackgroundImageFix" result="effect1_dropShadow_2380_6086"/>
<feBlend mode="normal" in="SourceGraphic" in2="effect1_dropShadow_2380_6086" result="shape"/>
</filter>
<filter id="filter4_d_2380_6086" x="17.0074" y="25.3065" width="57.9076" height="57.9076" filterUnits="userSpaceOnUse" color-interpolation-filters="sRGB">
<feFlood flood-opacity="0" result="BackgroundImageFix"/>
<feColorMatrix in="SourceAlpha" type="matrix" values="0 0 0 0 0 0 0 0 0 0 0 0 0 0 0 0 0 0 127 0" result="hardAlpha"/>
<feOffset dy="0.624"/>
<feGaussianBlur stdDeviation="0.78"/>
<feColorMatrix type="matrix" values="0 0 0 0 0 0 0 0 0 0 0 0 0 0 0 0 0 0 0.2 0"/>
<feBlend mode="normal" in2="BackgroundImageFix" result="effect1_dropShadow_2380_6086"/>
<feBlend mode="normal" in="SourceGraphic" in2="effect1_dropShadow_2380_6086" result="shape"/>
</filter>
<linearGradient id="paint0_linear_2380_6086" x1="7.9047" y1="7.6022" x2="99.908" y2="43.7201" gradientUnits="userSpaceOnUse">
<stop stop-color="#C1C1C1"/>
<stop offset="1" stop-color="#D3D3D3"/>
</linearGradient>
<linearGradient id="paint1_linear_2380_6086" x1="9.63305" y1="6" x2="36.5557" y2="12.2563" gradientUnits="userSpaceOnUse">
<stop stop-color="#B0B0B0"/>
<stop offset="1" stop-color="#C0C0C0"/>
</linearGradient>
<linearGradient id="paint2_linear_2380_6086" x1="45.9612" y1="26.2425" x2="45.9612" y2="81.03" gradientUnits="userSpaceOnUse">
<stop stop-color="#EAEAEA"/>
<stop offset="1" stop-color="#B6B6B6"/>
</linearGradient>
<linearGradient id="paint3_linear_2380_6086" x1="46.0004" y1="66.7274" x2="46.0004" y2="40.5451" gradientUnits="userSpaceOnUse">
<stop/>
<stop offset="1"/>
</linearGradient>
<linearGradient id="paint4_linear_2380_6086" x1="45.9612" y1="26.2425" x2="45.9612" y2="81.03" gradientUnits="userSpaceOnUse">
<stop stop-color="#EAEAEA"/>
<stop offset="1" stop-color="#B6B6B6"/>
</linearGradient>
<linearGradient id="paint5_linear_2380_6086" x1="46.0004" y1="66.7274" x2="46.0004" y2="40.5451" gradientUnits="userSpaceOnUse">
<stop/>
<stop offset="1"/>
</linearGradient>
</defs>
</svg>
