<svg width="90" height="90" viewBox="0 0 90 90" fill="none" xmlns="http://www.w3.org/2000/svg">
<rect width="90" height="90" fill="#FF6B6B"/>
<g filter="url(#filter0_d_2380_6171)">
<path d="M7 16.7953C7 14.2221 9.08607 12.136 11.6594 12.136H79.9966C82.5699 12.136 84.656 14.2221 84.656 16.7953V79.3803C84.656 81.9536 82.5699 84.0397 79.9966 84.0397H11.6594C9.08607 84.0397 7 81.9536 7 79.3803V16.7953Z" fill="url(#paint0_linear_2380_6171)"/>
</g>
<g filter="url(#filter1_d_2380_6171)">
<rect x="7" y="16.4502" width="77.656" height="14.3807" fill="url(#paint1_linear_2380_6171)"/>
</g>
<rect x="7" y="30.8309" width="77.656" height="46.0184" fill="#1B1B19"/>
<g filter="url(#filter2_d_2380_6171)">
<rect x="14.6011" y="68.2209" width="5.91368" height="5.91368" rx="2.95684" fill="#C4C4C4"/>
</g>
<g filter="url(#filter3_d_2380_6171)">
<circle cx="45.7893" cy="53.8098" r="27.273" fill="url(#paint2_linear_2380_6171)"/>
<circle cx="45.7893" cy="53.8098" r="27.1953" stroke="#D3D2D2" stroke-width="0.155312"/>
</g>
<circle cx="45.8278" cy="53.8401" r="26.424" fill="#1B1B19" stroke="#D3D2D2" stroke-width="0.155312"/>
<circle cx="45.7893" cy="53.8099" r="16.6134" fill="#1B1B19" stroke="#BBBBBB" stroke-width="0.621248"/>
<circle cx="45.828" cy="53.8401" r="13.6592" fill="#1B1B19" stroke="#BBBBBB" stroke-width="0.621248"/>
<circle cx="45.7896" cy="53.8098" r="13.0334" fill="url(#paint3_linear_2380_6171)"/>
<circle cx="48.9016" cy="50.6974" r="3.15137" fill="#232323"/>
<circle cx="51.0019" cy="48.1296" r="4.31854" fill="#232323" fill-opacity="0.7"/>
<circle cx="43.2601" cy="49.4913" r="5.68025" fill="#232323" fill-opacity="0.56"/>
<circle cx="47.5397" cy="55.1715" r="8.0146" fill="#232323" fill-opacity="0.4"/>
<g filter="url(#filter4_i_2380_6171)">
<rect x="23.8459" y="53.4292" width="1.0272" height="3.49247" rx="0.513598" transform="rotate(90 23.8459 53.4292)" fill="#1B1B19"/>
<rect x="23.8848" y="52.0809" width="1.02372" height="3.45486" rx="0.511861" transform="rotate(93.6364 23.8848 52.0809)" fill="#1B1B19"/>
<rect x="24.0493" y="50.6972" width="1.02372" height="3.45486" rx="0.511861" transform="rotate(97.2727 24.0493 50.6972)" fill="#1B1B19"/>
<rect x="24.3015" y="49.3268" width="1.02372" height="3.45486" rx="0.511861" transform="rotate(100.909 24.3015 49.3268)" fill="#1B1B19"/>
<rect x="24.6399" y="47.9751" width="1.02372" height="3.45486" rx="0.511861" transform="rotate(104.545 24.6399 47.9751)" fill="#1B1B19"/>
<rect x="25.0637" y="46.6476" width="1.02372" height="3.45486" rx="0.511861" transform="rotate(108.182 25.0637 46.6476)" fill="#1B1B19"/>
<rect x="25.5706" y="45.3497" width="1.02372" height="3.45486" rx="0.511861" transform="rotate(111.818 25.5706 45.3497)" fill="#1B1B19"/>
<rect x="26.1589" y="44.0865" width="1.02372" height="3.45486" rx="0.511861" transform="rotate(115.455 26.1589 44.0865)" fill="#1B1B19"/>
<rect x="26.8262" y="42.8632" width="1.02372" height="3.45486" rx="0.511861" transform="rotate(119.091 26.8262 42.8632)" fill="#1B1B19"/>
<rect x="27.5696" y="41.6847" width="1.02372" height="3.45486" rx="0.511861" transform="rotate(122.727 27.5696 41.6847)" fill="#1B1B19"/>
<rect x="28.3865" y="40.5557" width="1.02372" height="3.45486" rx="0.511861" transform="rotate(126.364 28.3865 40.5557)" fill="#1B1B19"/>
<rect x="29.2729" y="39.4807" width="1.02372" height="3.45486" rx="0.511861" transform="rotate(130 29.2729 39.4807)" fill="#1B1B19"/>
<rect x="30.2261" y="38.4642" width="1.02372" height="3.45486" rx="0.511861" transform="rotate(133.636 30.2261 38.4642)" fill="#1B1B19"/>
<rect x="31.2417" y="37.5102" width="1.02372" height="3.45486" rx="0.511861" transform="rotate(137.273 31.2417 37.5102)" fill="#1B1B19"/>
<rect x="32.3159" y="36.6224" width="1.02372" height="3.45486" rx="0.511861" transform="rotate(140.909 32.3159 36.6224)" fill="#1B1B19"/>
<rect x="33.4438" y="35.8046" width="1.02372" height="3.45486" rx="0.511861" transform="rotate(144.545 33.4438 35.8046)" fill="#1B1B19"/>
<rect x="34.6216" y="35.06" width="1.02372" height="3.45486" rx="0.511861" transform="rotate(148.182 34.6216 35.06)" fill="#1B1B19"/>
<rect x="35.8445" y="34.3917" width="1.02372" height="3.45486" rx="0.511861" transform="rotate(151.818 35.8445 34.3917)" fill="#1B1B19"/>
<rect x="37.1069" y="33.8021" width="1.02372" height="3.45486" rx="0.511861" transform="rotate(155.455 37.1069 33.8021)" fill="#1B1B19"/>
<rect x="38.4043" y="33.2939" width="1.02372" height="3.45486" rx="0.511861" transform="rotate(159.091 38.4043 33.2939)" fill="#1B1B19"/>
<rect x="39.7314" y="32.869" width="1.02372" height="3.45486" rx="0.511861" transform="rotate(162.727 39.7314 32.869)" fill="#1B1B19"/>
<rect x="41.0828" y="32.529" width="1.02372" height="3.45486" rx="0.511861" transform="rotate(166.364 41.0828 32.529)" fill="#1B1B19"/>
<rect x="42.4529" y="32.2755" width="1.02372" height="3.45486" rx="0.511861" transform="rotate(170 42.4529 32.2755)" fill="#1B1B19"/>
<rect x="43.8364" y="32.1094" width="1.02372" height="3.45486" rx="0.511861" transform="rotate(173.636 43.8364 32.1094)" fill="#1B1B19"/>
<rect x="45.2275" y="32.0314" width="1.02372" height="3.45486" rx="0.511861" transform="rotate(177.273 45.2275 32.0314)" fill="#1B1B19"/>
<rect x="46.6211" y="32.0417" width="1.02372" height="3.45486" rx="0.511861" transform="rotate(-179.091 46.6211 32.0417)" fill="#1B1B19"/>
<rect x="48.011" y="32.1405" width="1.02372" height="3.45486" rx="0.511861" transform="rotate(-175.455 48.011 32.1405)" fill="#1B1B19"/>
<rect x="49.3918" y="32.3272" width="1.02372" height="3.45486" rx="0.511861" transform="rotate(-171.818 49.3918 32.3272)" fill="#1B1B19"/>
<rect x="50.7583" y="32.6011" width="1.02372" height="3.45486" rx="0.511861" transform="rotate(-168.182 50.7583 32.6011)" fill="#1B1B19"/>
<rect x="52.1045" y="32.9611" width="1.02372" height="3.45486" rx="0.511861" transform="rotate(-164.545 52.1045 32.9611)" fill="#1B1B19"/>
<rect x="53.4248" y="33.4057" width="1.02372" height="3.45486" rx="0.511861" transform="rotate(-160.909 53.4248 33.4057)" fill="#1B1B19"/>
<rect x="54.7146" y="33.9332" width="1.02372" height="3.45486" rx="0.511861" transform="rotate(-157.273 54.7146 33.9332)" fill="#1B1B19"/>
<rect x="55.9685" y="34.5415" width="1.02372" height="3.45486" rx="0.511861" transform="rotate(-153.636 55.9685 34.5415)" fill="#1B1B19"/>
<rect x="57.1809" y="35.228" width="1.02372" height="3.45486" rx="0.511861" transform="rotate(-150 57.1809 35.228)" fill="#1B1B19"/>
<rect x="58.3477" y="35.9901" width="1.02372" height="3.45486" rx="0.511861" transform="rotate(-146.364 58.3477 35.9901)" fill="#1B1B19"/>
<rect x="59.4634" y="36.8246" width="1.02372" height="3.45486" rx="0.511861" transform="rotate(-142.727 59.4634 36.8246)" fill="#1B1B19"/>
<rect x="60.5242" y="37.7282" width="1.02372" height="3.45486" rx="0.511861" transform="rotate(-139.091 60.5242 37.7282)" fill="#1B1B19"/>
<rect x="61.5254" y="38.6972" width="1.02372" height="3.45486" rx="0.511861" transform="rotate(-135.455 61.5254 38.6972)" fill="#1B1B19"/>
<rect x="62.4631" y="39.7278" width="1.02372" height="3.45486" rx="0.511861" transform="rotate(-131.818 62.4631 39.7278)" fill="#1B1B19"/>
<rect x="63.334" y="40.8159" width="1.02372" height="3.45486" rx="0.511861" transform="rotate(-128.182 63.334 40.8159)" fill="#1B1B19"/>
<rect x="64.1335" y="41.9569" width="1.02372" height="3.45486" rx="0.511861" transform="rotate(-124.545 64.1335 41.9569)" fill="#1B1B19"/>
<rect x="64.8596" y="43.1464" width="1.02372" height="3.45486" rx="0.511861" transform="rotate(-120.909 64.8596 43.1464)" fill="#1B1B19"/>
<rect x="65.5083" y="44.3795" width="1.02372" height="3.45486" rx="0.511861" transform="rotate(-117.273 65.5083 44.3795)" fill="#1B1B19"/>
<rect x="66.0776" y="45.6513" width="1.02372" height="3.45486" rx="0.511861" transform="rotate(-113.636 66.0776 45.6513)" fill="#1B1B19"/>
<rect x="66.5654" y="46.9566" width="1.02372" height="3.45486" rx="0.511861" transform="rotate(-110 66.5654 46.9566)" fill="#1B1B19"/>
<rect x="66.9692" y="48.2903" width="1.02372" height="3.45486" rx="0.511861" transform="rotate(-106.364 66.9692 48.2903)" fill="#1B1B19"/>
<rect x="67.2876" y="49.6468" width="1.02372" height="3.45486" rx="0.511861" transform="rotate(-102.727 67.2876 49.6468)" fill="#1B1B19"/>
<rect x="67.519" y="51.0208" width="1.02372" height="3.45486" rx="0.511861" transform="rotate(-99.0909 67.519 51.0208)" fill="#1B1B19"/>
<rect x="67.6633" y="52.4068" width="1.02372" height="3.45486" rx="0.511861" transform="rotate(-95.4545 67.6633 52.4068)" fill="#1B1B19"/>
<rect x="67.7192" y="53.7991" width="1.02372" height="3.45486" rx="0.511861" transform="rotate(-91.8182 67.7192 53.7991)" fill="#1B1B19"/>
<rect x="67.687" y="55.1922" width="1.02372" height="3.45486" rx="0.511861" transform="rotate(-88.1818 67.687 55.1922)" fill="#1B1B19"/>
<rect x="67.5662" y="56.5803" width="1.02372" height="3.45486" rx="0.511861" transform="rotate(-84.5455 67.5662 56.5803)" fill="#1B1B19"/>
<rect x="67.3577" y="57.9581" width="1.02372" height="3.45486" rx="0.511861" transform="rotate(-80.9091 67.3577 57.9581)" fill="#1B1B19"/>
<rect x="67.062" y="59.3198" width="1.02372" height="3.45486" rx="0.511861" transform="rotate(-77.2727 67.062 59.3198)" fill="#1B1B19"/>
<rect x="66.6809" y="60.6601" width="1.02372" height="3.45486" rx="0.511861" transform="rotate(-73.6364 66.6809 60.6601)" fill="#1B1B19"/>
<rect x="66.2151" y="61.9734" width="1.02372" height="3.45486" rx="0.511861" transform="rotate(-70 66.2151 61.9734)" fill="#1B1B19"/>
<rect x="65.6672" y="63.2546" width="1.02372" height="3.45486" rx="0.511861" transform="rotate(-66.3636 65.6672 63.2546)" fill="#1B1B19"/>
<rect x="65.0391" y="64.4985" width="1.02372" height="3.45486" rx="0.511861" transform="rotate(-62.7273 65.0391 64.4985)" fill="#1B1B19"/>
<rect x="64.3337" y="65.7" width="1.02372" height="3.45486" rx="0.511861" transform="rotate(-59.0909 64.3337 65.7)" fill="#1B1B19"/>
<rect x="63.553" y="66.8544" width="1.02372" height="3.45486" rx="0.511861" transform="rotate(-55.4545 63.553 66.8544)" fill="#1B1B19"/>
<rect x="62.7007" y="67.9569" width="1.02372" height="3.45486" rx="0.511861" transform="rotate(-51.8182 62.7007 67.9569)" fill="#1B1B19"/>
<rect x="61.7805" y="69.0032" width="1.02372" height="3.45486" rx="0.511861" transform="rotate(-48.1818 61.7805 69.0032)" fill="#1B1B19"/>
<rect x="60.7959" y="69.989" width="1.02372" height="3.45486" rx="0.511861" transform="rotate(-44.5455 60.7959 69.989)" fill="#1B1B19"/>
<rect x="59.7505" y="70.9103" width="1.02372" height="3.45486" rx="0.511861" transform="rotate(-40.9091 59.7505 70.9103)" fill="#1B1B19"/>
<rect x="58.6487" y="71.7635" width="1.02372" height="3.45486" rx="0.511861" transform="rotate(-37.2727 58.6487 71.7635)" fill="#1B1B19"/>
<rect x="57.4951" y="72.5451" width="1.02372" height="3.45486" rx="0.511861" transform="rotate(-33.6364 57.4951 72.5451)" fill="#1B1B19"/>
<rect x="56.2942" y="73.2519" width="1.02372" height="3.45486" rx="0.511861" transform="rotate(-30 56.2942 73.2519)" fill="#1B1B19"/>
<rect x="55.0513" y="73.8812" width="1.02372" height="3.45486" rx="0.511861" transform="rotate(-26.3636 55.0513 73.8812)" fill="#1B1B19"/>
<rect x="53.7703" y="74.4303" width="1.02372" height="3.45486" rx="0.511861" transform="rotate(-22.7273 53.7703 74.4303)" fill="#1B1B19"/>
<rect x="52.4575" y="74.8972" width="1.02372" height="3.45486" rx="0.511861" transform="rotate(-19.0909 52.4575 74.8972)" fill="#1B1B19"/>
<rect x="51.1177" y="75.2798" width="1.02372" height="3.45486" rx="0.511861" transform="rotate(-15.4545 51.1177 75.2798)" fill="#1B1B19"/>
<rect x="49.7563" y="75.5766" width="1.02372" height="3.45486" rx="0.511861" transform="rotate(-11.8182 49.7563 75.5766)" fill="#1B1B19"/>
<rect x="48.3784" y="75.7865" width="1.02372" height="3.45486" rx="0.511861" transform="rotate(-8.18182 48.3784 75.7865)" fill="#1B1B19"/>
<rect x="46.9905" y="75.9087" width="1.02372" height="3.45486" rx="0.511861" transform="rotate(-4.54545 46.9905 75.9087)" fill="#1B1B19"/>
<rect x="45.5977" y="75.9425" width="1.02372" height="3.45486" rx="0.511861" transform="rotate(-0.909091 45.5977 75.9425)" fill="#1B1B19"/>
<rect x="44.2051" y="75.8879" width="1.02372" height="3.45486" rx="0.511861" transform="rotate(2.72727 44.2051 75.8879)" fill="#1B1B19"/>
<rect x="42.8193" y="75.7452" width="1.02372" height="3.45486" rx="0.511861" transform="rotate(6.36364 42.8193 75.7452)" fill="#1B1B19"/>
<rect x="41.4448" y="75.5148" width="1.02372" height="3.45486" rx="0.511861" transform="rotate(10 41.4448 75.5148)" fill="#1B1B19"/>
<rect x="40.0881" y="75.1976" width="1.02372" height="3.45486" rx="0.511861" transform="rotate(13.6364 40.0881 75.1976)" fill="#1B1B19"/>
<rect x="38.7542" y="74.7952" width="1.02372" height="3.45486" rx="0.511861" transform="rotate(17.2727 38.7542 74.7952)" fill="#1B1B19"/>
<rect x="37.448" y="74.3088" width="1.02372" height="3.45486" rx="0.511861" transform="rotate(20.9091 37.448 74.3088)" fill="#1B1B19"/>
<rect x="36.176" y="73.7407" width="1.02372" height="3.45486" rx="0.511861" transform="rotate(24.5455 36.176 73.7407)" fill="#1B1B19"/>
<rect x="34.9421" y="73.093" width="1.02372" height="3.45486" rx="0.511861" transform="rotate(28.1818 34.9421 73.093)" fill="#1B1B19"/>
<rect x="33.7517" y="72.3683" width="1.02372" height="3.45486" rx="0.511861" transform="rotate(31.8182 33.7517 72.3683)" fill="#1B1B19"/>
<rect x="32.6099" y="71.5696" width="1.02372" height="3.45486" rx="0.511861" transform="rotate(35.4545 32.6099 71.5696)" fill="#1B1B19"/>
<rect x="31.521" y="70.7001" width="1.02372" height="3.45486" rx="0.511861" transform="rotate(39.0909 31.521 70.7001)" fill="#1B1B19"/>
<rect x="30.4895" y="69.7633" width="1.02372" height="3.45486" rx="0.511861" transform="rotate(42.7273 30.4895 69.7633)" fill="#1B1B19"/>
<rect x="29.5198" y="68.763" width="1.02372" height="3.45486" rx="0.511861" transform="rotate(46.3636 29.5198 68.763)" fill="#1B1B19"/>
<rect x="28.6152" y="67.7031" width="1.02372" height="3.45486" rx="0.511861" transform="rotate(50 28.6152 67.7031)" fill="#1B1B19"/>
<rect x="27.7793" y="66.588" width="1.02372" height="3.45486" rx="0.511861" transform="rotate(53.6364 27.7793 66.588)" fill="#1B1B19"/>
<rect x="27.0161" y="65.4222" width="1.02372" height="3.45486" rx="0.511861" transform="rotate(57.2727 27.0161 65.4222)" fill="#1B1B19"/>
<rect x="26.3286" y="64.2103" width="1.02372" height="3.45486" rx="0.511861" transform="rotate(60.9091 26.3286 64.2103)" fill="#1B1B19"/>
<rect x="25.719" y="62.9572" width="1.02372" height="3.45486" rx="0.511861" transform="rotate(64.5455 25.719 62.9572)" fill="#1B1B19"/>
<rect x="25.1904" y="61.668" width="1.02372" height="3.45486" rx="0.511861" transform="rotate(68.1818 25.1904 61.668)" fill="#1B1B19"/>
<rect x="24.7444" y="60.3478" width="1.02372" height="3.45486" rx="0.511861" transform="rotate(71.8182 24.7444 60.3478)" fill="#1B1B19"/>
<rect x="24.3831" y="59.002" width="1.02372" height="3.45486" rx="0.511861" transform="rotate(75.4545 24.3831 59.002)" fill="#1B1B19"/>
<rect x="24.1077" y="57.636" width="1.02372" height="3.45486" rx="0.511861" transform="rotate(79.0909 24.1077 57.636)" fill="#1B1B19"/>
<rect x="23.9197" y="56.2554" width="1.02372" height="3.45486" rx="0.511861" transform="rotate(82.7273 23.9197 56.2554)" fill="#1B1B19"/>
<rect x="23.8193" y="54.8655" width="1.02372" height="3.45486" rx="0.511861" transform="rotate(86.3636 23.8193 54.8655)" fill="#1B1B19"/>
</g>
<g filter="url(#filter5_i_2380_6171)">
<rect x="28.1602" y="53.6346" width="0.821757" height="3.6979" rx="0.410878" transform="rotate(90 28.1602 53.6346)" fill="#1B1B19"/>
<rect x="28.1294" y="52.4501" width="0.825102" height="3.6979" rx="0.412551" transform="rotate(93.6364 28.1294 52.4501)" fill="#1B1B19"/>
<rect x="28.2622" y="51.3349" width="0.825102" height="3.6979" rx="0.412551" transform="rotate(97.2727 28.2622 51.3349)" fill="#1B1B19"/>
<rect x="28.4653" y="50.2304" width="0.825102" height="3.6979" rx="0.412551" transform="rotate(100.909 28.4653 50.2304)" fill="#1B1B19"/>
<rect x="28.738" y="49.1409" width="0.825102" height="3.6979" rx="0.412551" transform="rotate(104.545 28.738 49.1409)" fill="#1B1B19"/>
<rect x="29.0798" y="48.071" width="0.825102" height="3.6979" rx="0.412551" transform="rotate(108.182 29.0798 48.071)" fill="#1B1B19"/>
<rect x="29.4883" y="47.0249" width="0.825102" height="3.6979" rx="0.412551" transform="rotate(111.818 29.4883 47.0249)" fill="#1B1B19"/>
<rect x="29.9624" y="46.0068" width="0.825102" height="3.6979" rx="0.412551" transform="rotate(115.455 29.9624 46.0068)" fill="#1B1B19"/>
<rect x="30.5002" y="45.0208" width="0.825102" height="3.6979" rx="0.412551" transform="rotate(119.091 30.5002 45.0208)" fill="#1B1B19"/>
<rect x="31.0994" y="44.0709" width="0.825102" height="3.6979" rx="0.412551" transform="rotate(122.727 31.0994 44.0709)" fill="#1B1B19"/>
<rect x="31.7578" y="43.161" width="0.825102" height="3.6979" rx="0.412551" transform="rotate(126.364 31.7578 43.161)" fill="#1B1B19"/>
<rect x="32.4722" y="42.2946" width="0.825102" height="3.6979" rx="0.412551" transform="rotate(130 32.4722 42.2946)" fill="#1B1B19"/>
<rect x="33.2405" y="41.4753" width="0.825102" height="3.6979" rx="0.412551" transform="rotate(133.636 33.2405 41.4753)" fill="#1B1B19"/>
<rect x="34.0591" y="40.7064" width="0.825102" height="3.6979" rx="0.412551" transform="rotate(137.273 34.0591 40.7064)" fill="#1B1B19"/>
<rect x="34.9248" y="39.9909" width="0.825102" height="3.6979" rx="0.412551" transform="rotate(140.909 34.9248 39.9909)" fill="#1B1B19"/>
<rect x="35.8342" y="39.3317" width="0.825102" height="3.6979" rx="0.412551" transform="rotate(144.545 35.8342 39.3317)" fill="#1B1B19"/>
<rect x="36.7834" y="38.7316" width="0.825102" height="3.6979" rx="0.412551" transform="rotate(148.182 36.7834 38.7316)" fill="#1B1B19"/>
<rect x="37.7688" y="38.1929" width="0.825102" height="3.6979" rx="0.412551" transform="rotate(151.818 37.7688 38.1929)" fill="#1B1B19"/>
<rect x="38.7861" y="37.7177" width="0.825102" height="3.6979" rx="0.412551" transform="rotate(155.455 38.7861 37.7177)" fill="#1B1B19"/>
<rect x="39.832" y="37.3081" width="0.825102" height="3.6979" rx="0.412551" transform="rotate(159.091 39.832 37.3081)" fill="#1B1B19"/>
<rect x="40.9016" y="36.9656" width="0.825102" height="3.6979" rx="0.412551" transform="rotate(162.727 40.9016 36.9656)" fill="#1B1B19"/>
<rect x="41.991" y="36.6917" width="0.825102" height="3.6979" rx="0.412551" transform="rotate(166.364 41.991 36.6917)" fill="#1B1B19"/>
<rect x="43.0955" y="36.4874" width="0.825102" height="3.6979" rx="0.412551" transform="rotate(170 43.0955 36.4874)" fill="#1B1B19"/>
<rect x="44.2104" y="36.3535" width="0.825102" height="3.6979" rx="0.412551" transform="rotate(173.636 44.2104 36.3535)" fill="#1B1B19"/>
<rect x="45.3315" y="36.2906" width="0.825102" height="3.6979" rx="0.412551" transform="rotate(177.273 45.3315 36.2906)" fill="#1B1B19"/>
<rect x="46.4546" y="36.299" width="0.825102" height="3.6979" rx="0.412551" transform="rotate(-179.091 46.4546 36.299)" fill="#1B1B19"/>
<rect x="47.575" y="36.3785" width="0.825102" height="3.6979" rx="0.412551" transform="rotate(-175.455 47.575 36.3785)" fill="#1B1B19"/>
<rect x="48.6877" y="36.529" width="0.825102" height="3.6979" rx="0.412551" transform="rotate(-171.818 48.6877 36.529)" fill="#1B1B19"/>
<rect x="49.7891" y="36.7497" width="0.825102" height="3.6979" rx="0.412551" transform="rotate(-168.182 49.7891 36.7497)" fill="#1B1B19"/>
<rect x="50.874" y="37.0399" width="0.825102" height="3.6979" rx="0.412551" transform="rotate(-164.545 50.874 37.0399)" fill="#1B1B19"/>
<rect x="51.9385" y="37.3983" width="0.825102" height="3.6979" rx="0.412551" transform="rotate(-160.909 51.9385 37.3983)" fill="#1B1B19"/>
<rect x="52.9778" y="37.8234" width="0.825102" height="3.6979" rx="0.412551" transform="rotate(-157.273 52.9778 37.8234)" fill="#1B1B19"/>
<rect x="53.9883" y="38.3136" width="0.825102" height="3.6979" rx="0.412551" transform="rotate(-153.636 53.9883 38.3136)" fill="#1B1B19"/>
<rect x="54.9656" y="38.867" width="0.825102" height="3.6979" rx="0.412551" transform="rotate(-150 54.9656 38.867)" fill="#1B1B19"/>
<rect x="55.906" y="39.4812" width="0.825102" height="3.6979" rx="0.412551" transform="rotate(-146.364 55.906 39.4812)" fill="#1B1B19"/>
<rect x="56.8054" y="40.1538" width="0.825102" height="3.6979" rx="0.412551" transform="rotate(-142.727 56.8054 40.1538)" fill="#1B1B19"/>
<rect x="57.6602" y="40.8821" width="0.825102" height="3.6979" rx="0.412551" transform="rotate(-139.091 57.6602 40.8821)" fill="#1B1B19"/>
<rect x="58.4673" y="41.6631" width="0.825102" height="3.6979" rx="0.412551" transform="rotate(-135.455 58.4673 41.6631)" fill="#1B1B19"/>
<rect x="59.2231" y="42.4938" width="0.825102" height="3.6979" rx="0.412551" transform="rotate(-131.818 59.2231 42.4938)" fill="#1B1B19"/>
<rect x="59.9248" y="43.3707" width="0.825102" height="3.6979" rx="0.412551" transform="rotate(-128.182 59.9248 43.3707)" fill="#1B1B19"/>
<rect x="60.5693" y="44.2903" width="0.825102" height="3.6979" rx="0.412551" transform="rotate(-124.545 60.5693 44.2903)" fill="#1B1B19"/>
<rect x="61.1543" y="45.2491" width="0.825102" height="3.6979" rx="0.412551" transform="rotate(-120.909 61.1543 45.2491)" fill="#1B1B19"/>
<rect x="61.6775" y="46.2429" width="0.825102" height="3.6979" rx="0.412551" transform="rotate(-117.273 61.6775 46.2429)" fill="#1B1B19"/>
<rect x="62.1362" y="47.2679" width="0.825102" height="3.6979" rx="0.412551" transform="rotate(-113.636 62.1362 47.2679)" fill="#1B1B19"/>
<rect x="62.5293" y="48.32" width="0.825102" height="3.6979" rx="0.412551" transform="rotate(-110 62.5293 48.32)" fill="#1B1B19"/>
<rect x="62.8547" y="49.3949" width="0.825102" height="3.6979" rx="0.412551" transform="rotate(-106.364 62.8547 49.3949)" fill="#1B1B19"/>
<rect x="63.1113" y="50.4883" width="0.825102" height="3.6979" rx="0.412551" transform="rotate(-102.727 63.1113 50.4883)" fill="#1B1B19"/>
<rect x="63.2983" y="51.5957" width="0.825102" height="3.6979" rx="0.412551" transform="rotate(-99.0909 63.2983 51.5957)" fill="#1B1B19"/>
<rect x="63.4143" y="52.7128" width="0.825102" height="3.6979" rx="0.412551" transform="rotate(-95.4545 63.4143 52.7128)" fill="#1B1B19"/>
<rect x="63.4592" y="53.835" width="0.825102" height="3.6979" rx="0.412551" transform="rotate(-91.8182 63.4592 53.835)" fill="#1B1B19"/>
<rect x="63.4333" y="54.9578" width="0.825102" height="3.6979" rx="0.412551" transform="rotate(-88.1818 63.4333 54.9578)" fill="#1B1B19"/>
<rect x="63.3362" y="56.0766" width="0.825102" height="3.6979" rx="0.412551" transform="rotate(-84.5455 63.3362 56.0766)" fill="#1B1B19"/>
<rect x="63.168" y="57.187" width="0.825102" height="3.6979" rx="0.412551" transform="rotate(-80.9091 63.168 57.187)" fill="#1B1B19"/>
<rect x="62.9297" y="58.2846" width="0.825102" height="3.6979" rx="0.412551" transform="rotate(-77.2727 62.9297 58.2846)" fill="#1B1B19"/>
<rect x="62.6223" y="59.3648" width="0.825102" height="3.6979" rx="0.412551" transform="rotate(-73.6364 62.6223 59.3648)" fill="#1B1B19"/>
<rect x="62.2471" y="60.4233" width="0.825102" height="3.6979" rx="0.412551" transform="rotate(-70 62.2471 60.4233)" fill="#1B1B19"/>
<rect x="61.8054" y="61.456" width="0.825102" height="3.6979" rx="0.412551" transform="rotate(-66.3636 61.8054 61.456)" fill="#1B1B19"/>
<rect x="61.2991" y="62.4585" width="0.825102" height="3.6979" rx="0.412551" transform="rotate(-62.7273 61.2991 62.4585)" fill="#1B1B19"/>
<rect x="60.7307" y="63.4269" width="0.825102" height="3.6979" rx="0.412551" transform="rotate(-59.0909 60.7307 63.4269)" fill="#1B1B19"/>
<rect x="60.1016" y="64.3573" width="0.825102" height="3.6979" rx="0.412551" transform="rotate(-55.4545 60.1016 64.3573)" fill="#1B1B19"/>
<rect x="59.4148" y="65.2459" width="0.825102" height="3.6979" rx="0.412551" transform="rotate(-51.8182 59.4148 65.2459)" fill="#1B1B19"/>
<rect x="58.6729" y="66.0892" width="0.825102" height="3.6979" rx="0.412551" transform="rotate(-48.1818 58.6729 66.0892)" fill="#1B1B19"/>
<rect x="57.8794" y="66.8837" width="0.825102" height="3.6979" rx="0.412551" transform="rotate(-44.5455 57.8794 66.8837)" fill="#1B1B19"/>
<rect x="57.0366" y="67.6263" width="0.825102" height="3.6979" rx="0.412551" transform="rotate(-40.9091 57.0366 67.6263)" fill="#1B1B19"/>
<rect x="56.1487" y="68.314" width="0.825102" height="3.6979" rx="0.412551" transform="rotate(-37.2727 56.1487 68.314)" fill="#1B1B19"/>
<rect x="55.219" y="68.9439" width="0.825102" height="3.6979" rx="0.412551" transform="rotate(-33.6364 55.219 68.9439)" fill="#1B1B19"/>
<rect x="54.251" y="69.5136" width="0.825102" height="3.6979" rx="0.412551" transform="rotate(-30 54.251 69.5136)" fill="#1B1B19"/>
<rect x="53.249" y="70.0208" width="0.825102" height="3.6979" rx="0.412551" transform="rotate(-26.3636 53.249 70.0208)" fill="#1B1B19"/>
<rect x="52.2168" y="70.4634" width="0.825102" height="3.6979" rx="0.412551" transform="rotate(-22.7273 52.2168 70.4634)" fill="#1B1B19"/>
<rect x="51.1584" y="70.8396" width="0.825102" height="3.6979" rx="0.412551" transform="rotate(-19.0909 51.1584 70.8396)" fill="#1B1B19"/>
<rect x="50.0789" y="71.148" width="0.825102" height="3.6979" rx="0.412551" transform="rotate(-15.4545 50.0789 71.148)" fill="#1B1B19"/>
<rect x="48.9814" y="71.3873" width="0.825102" height="3.6979" rx="0.412551" transform="rotate(-11.8182 48.9814 71.3873)" fill="#1B1B19"/>
<rect x="47.8711" y="71.5565" width="0.825102" height="3.6979" rx="0.412551" transform="rotate(-8.18182 47.8711 71.5565)" fill="#1B1B19"/>
<rect x="46.7524" y="71.6549" width="0.825102" height="3.6979" rx="0.412551" transform="rotate(-4.54545 46.7524 71.6549)" fill="#1B1B19"/>
<rect x="45.6294" y="71.6822" width="0.825102" height="3.6979" rx="0.412551" transform="rotate(-0.909091 45.6294 71.6822)" fill="#1B1B19"/>
<rect x="44.5073" y="71.6382" width="0.825102" height="3.6979" rx="0.412551" transform="rotate(2.72727 44.5073 71.6382)" fill="#1B1B19"/>
<rect x="43.3904" y="71.5231" width="0.825102" height="3.6979" rx="0.412551" transform="rotate(6.36364 43.3904 71.5231)" fill="#1B1B19"/>
<rect x="42.2827" y="71.3374" width="0.825102" height="3.6979" rx="0.412551" transform="rotate(10 42.2827 71.3374)" fill="#1B1B19"/>
<rect x="41.189" y="71.0818" width="0.825102" height="3.6979" rx="0.412551" transform="rotate(13.6364 41.189 71.0818)" fill="#1B1B19"/>
<rect x="40.1138" y="70.7574" width="0.825102" height="3.6979" rx="0.412551" transform="rotate(17.2727 40.1138 70.7574)" fill="#1B1B19"/>
<rect x="39.0613" y="70.3654" width="0.825102" height="3.6979" rx="0.412551" transform="rotate(20.9091 39.0613 70.3654)" fill="#1B1B19"/>
<rect x="38.0359" y="69.9075" width="0.825102" height="3.6979" rx="0.412551" transform="rotate(24.5455 38.0359 69.9075)" fill="#1B1B19"/>
<rect x="37.0415" y="69.3855" width="0.825102" height="3.6979" rx="0.412551" transform="rotate(28.1818 37.0415 69.3855)" fill="#1B1B19"/>
<rect x="36.082" y="68.8014" width="0.825102" height="3.6979" rx="0.412551" transform="rotate(31.8182 36.082 68.8014)" fill="#1B1B19"/>
<rect x="35.1619" y="68.1577" width="0.825102" height="3.6979" rx="0.412551" transform="rotate(35.4545 35.1619 68.1577)" fill="#1B1B19"/>
<rect x="34.2842" y="67.4569" width="0.825102" height="3.6979" rx="0.412551" transform="rotate(39.0909 34.2842 67.4569)" fill="#1B1B19"/>
<rect x="33.4529" y="66.7018" width="0.825102" height="3.6979" rx="0.412551" transform="rotate(42.7273 33.4529 66.7018)" fill="#1B1B19"/>
<rect x="32.6711" y="65.8956" width="0.825102" height="3.6979" rx="0.412551" transform="rotate(46.3636 32.6711 65.8956)" fill="#1B1B19"/>
<rect x="31.9419" y="65.0414" width="0.825102" height="3.6979" rx="0.412551" transform="rotate(50 31.9419 65.0414)" fill="#1B1B19"/>
<rect x="31.2686" y="64.1426" width="0.825102" height="3.6979" rx="0.412551" transform="rotate(53.6364 31.2686 64.1426)" fill="#1B1B19"/>
<rect x="30.6533" y="63.203" width="0.825102" height="3.6979" rx="0.412551" transform="rotate(57.2727 30.6533 63.203)" fill="#1B1B19"/>
<rect x="30.0991" y="62.2262" width="0.825102" height="3.6979" rx="0.412551" transform="rotate(60.9091 30.0991 62.2262)" fill="#1B1B19"/>
<rect x="29.6079" y="61.2162" width="0.825102" height="3.6979" rx="0.412551" transform="rotate(64.5455 29.6079 61.2162)" fill="#1B1B19"/>
<rect x="29.1816" y="60.1772" width="0.825102" height="3.6979" rx="0.412551" transform="rotate(68.1818 29.1816 60.1772)" fill="#1B1B19"/>
<rect x="28.8225" y="59.1131" width="0.825102" height="3.6979" rx="0.412551" transform="rotate(71.8182 28.8225 59.1131)" fill="#1B1B19"/>
<rect x="28.531" y="58.0284" width="0.825102" height="3.6979" rx="0.412551" transform="rotate(75.4545 28.531 58.0284)" fill="#1B1B19"/>
<rect x="28.3091" y="56.9275" width="0.825102" height="3.6979" rx="0.412551" transform="rotate(79.0909 28.3091 56.9275)" fill="#1B1B19"/>
<rect x="28.1577" y="55.8147" width="0.825102" height="3.6979" rx="0.412551" transform="rotate(82.7273 28.1577 55.8147)" fill="#1B1B19"/>
<rect x="28.0769" y="54.6945" width="0.825102" height="3.6979" rx="0.412551" transform="rotate(86.3636 28.0769 54.6945)" fill="#1B1B19"/>
</g>
<path d="M24.9183 9.87415C25.0127 9.51231 25.3395 9.25983 25.7135 9.25983H66.1478C66.5218 9.25983 66.8486 9.51231 66.943 9.87415L67.7087 12.8093C67.9113 13.586 67.9653 14.3941 67.8677 15.1909L66.8711 23.3296C66.8207 23.7417 66.4707 24.0514 66.0555 24.0514H25.8059C25.3906 24.0514 25.0407 23.7417 24.9902 23.3296L23.9936 15.1909C23.8961 14.3941 23.95 13.586 24.1526 12.8093L24.9183 9.87415Z" fill="#1B1B19"/>
<path d="M24.8733 16.4502L57.5381 16.4502" stroke="#232321" stroke-width="0.205439"/>
<path d="M24.8733 17.2719L57.5381 17.2719" stroke="#232321" stroke-width="0.205439"/>
<path d="M25.0786 18.0937L57.538 18.0937" stroke="#232321" stroke-width="0.205439"/>
<path d="M25.0786 18.9155L57.538 18.9155" stroke="#232321" stroke-width="0.205439"/>
<path d="M25.2842 19.7372L57.5381 19.7372" stroke="#232321" stroke-width="0.205439"/>
<path d="M25.2842 20.559L57.5381 20.559" stroke="#232321" stroke-width="0.205439"/>
<path d="M25.4895 21.3807L57.538 21.3807" stroke="#232321" stroke-width="0.205439"/>
<path d="M25.4895 22.2025L57.538 22.2025" stroke="#232321" stroke-width="0.205439"/>
<path d="M54.4944 14.4164V11.761H54.7415L55.5727 13.8368V11.761H55.8288V14.4164H55.5727L54.7505 12.417V14.4164H54.4944Z" fill="#D8D6D6"/>
<path d="M52.2397 14.4164V11.761H53.3855V11.9632H52.5318V12.9158H53.2147V13.1404H52.5318V14.2142H53.3855V14.4164H52.2397Z" fill="#D8D6D6"/>
<path d="M49.7834 14.4164V11.761H50.6057C50.7584 11.761 50.8812 11.797 50.9741 11.8689C51.067 11.9378 51.1134 12.0486 51.1134 12.2014V12.6911C51.1134 12.7929 51.0984 12.8888 51.0685 12.9787C51.0385 13.0655 50.9831 13.1359 50.9022 13.1898C50.8213 13.2437 50.7045 13.2707 50.5518 13.2707H50.0755V14.4164H49.7834ZM50.0755 13.1045H50.4664C50.5862 13.1045 50.6761 13.0685 50.736 12.9966C50.7989 12.9217 50.8303 12.8079 50.8303 12.6552V12.3092C50.8303 12.1774 50.8019 12.0815 50.745 12.0216C50.688 11.9587 50.6191 11.9273 50.5383 11.9273H50.0755V13.1045Z" fill="#D8D6D6"/>
<path d="M46.1235 13.3291V13.1314H47.0356V13.3291H46.1235Z" fill="#D8D6D6"/>
<path d="M42.8003 14.4479C42.6655 14.4479 42.5487 14.4239 42.4498 14.376C42.354 14.3281 42.2791 14.2487 42.2252 14.1379C42.1712 14.024 42.1443 13.8668 42.1443 13.6661V13.5178C42.1922 13.5178 42.2401 13.5178 42.2881 13.5178C42.339 13.5178 42.3869 13.5178 42.4318 13.5178V13.6841C42.4318 13.8338 42.4468 13.9507 42.4768 14.0345C42.5097 14.1154 42.5532 14.1723 42.6071 14.2053C42.664 14.2382 42.7284 14.2547 42.8003 14.2547C42.9171 14.2547 43.0114 14.2187 43.0833 14.1469C43.1582 14.072 43.1957 13.9402 43.1957 13.7515C43.1957 13.6167 43.1762 13.5163 43.1372 13.4504C43.0983 13.3815 43.0384 13.3276 42.9575 13.2887C42.8767 13.2467 42.7778 13.2018 42.661 13.1539C42.5651 13.115 42.4783 13.0685 42.4004 13.0146C42.3255 12.9577 42.2671 12.8843 42.2252 12.7944C42.1832 12.7046 42.1623 12.5908 42.1623 12.453C42.1623 12.2972 42.1832 12.1684 42.2252 12.0666C42.2671 11.9617 42.336 11.8839 42.4318 11.8329C42.5277 11.782 42.655 11.7566 42.8137 11.7566C43.0204 11.7566 43.1792 11.809 43.29 11.9138C43.4038 12.0157 43.4607 12.1609 43.4607 12.3496V12.6417C43.4158 12.6417 43.3694 12.6417 43.3215 12.6417C43.2765 12.6417 43.2301 12.6417 43.1822 12.6417V12.417C43.1822 12.2733 43.1507 12.1654 43.0878 12.0935C43.0279 12.0187 42.9381 11.9812 42.8182 11.9812C42.6864 11.9812 42.5906 12.0202 42.5307 12.098C42.4738 12.1729 42.4453 12.2882 42.4453 12.444C42.4453 12.5608 42.4678 12.6537 42.5127 12.7226C42.5576 12.7885 42.6161 12.8409 42.6879 12.8798C42.7598 12.9158 42.8362 12.9487 42.9171 12.9787C43.0519 13.0296 43.1612 13.0835 43.2451 13.1404C43.3289 13.1943 43.3904 13.2647 43.4293 13.3516C43.4682 13.4385 43.4877 13.5598 43.4877 13.7155C43.4877 13.8982 43.4577 14.0435 43.3978 14.1513C43.3409 14.2562 43.2601 14.3326 43.1552 14.3805C43.0534 14.4254 42.9351 14.4479 42.8003 14.4479Z" fill="#D8D6D6"/>
<path d="M40.3335 14.4703C40.2407 14.4703 40.1538 14.4629 40.0729 14.4479C39.9921 14.4329 39.9202 14.4044 39.8573 14.3625C39.7974 14.3206 39.7494 14.2592 39.7135 14.1783C39.6805 14.0944 39.6641 13.9836 39.6641 13.8458V11.761H39.9471V13.9042C39.9471 14.0121 39.9651 14.0929 40.001 14.1468C40.037 14.2008 40.0834 14.2382 40.1403 14.2592C40.2002 14.2771 40.2646 14.2861 40.3335 14.2861C40.3994 14.2861 40.4623 14.2771 40.5222 14.2592C40.5821 14.2382 40.6301 14.2008 40.666 14.1468C40.702 14.0929 40.7199 14.0121 40.7199 13.9042V11.761H40.9985V13.8458C40.9985 13.9836 40.9805 14.0944 40.9446 14.1783C40.9116 14.2592 40.8652 14.3206 40.8053 14.3625C40.7454 14.4044 40.6735 14.4329 40.5896 14.4479C40.5088 14.4629 40.4234 14.4703 40.3335 14.4703Z" fill="#D8D6D6"/>
<path d="M37.23 14.4164V11.761H38.0522C38.205 11.761 38.3278 11.797 38.4206 11.8689C38.5135 11.9378 38.5599 12.0486 38.5599 12.2014V12.6911C38.5599 12.7929 38.5449 12.8888 38.515 12.9787C38.485 13.0655 38.4296 13.1359 38.3487 13.1898C38.2679 13.2437 38.1511 13.2707 37.9983 13.2707H37.522V14.4164H37.23ZM37.522 13.1045H37.9129C38.0327 13.1045 38.1226 13.0685 38.1825 12.9966C38.2454 12.9217 38.2769 12.8079 38.2769 12.6552V12.3092C38.2769 12.1774 38.2484 12.0815 38.1915 12.0216C38.1346 11.9587 38.0657 11.9273 37.9848 11.9273H37.522V13.1045Z" fill="#D8D6D6"/>
<path d="M34.1287 14.4164V11.761H34.4611L35.0363 13.9222L35.6248 11.761H35.9438V14.4164H35.6922V12.2688L35.1396 14.4164H34.9374L34.3848 12.2688V14.4164H34.1287Z" fill="#D8D6D6"/>
<path d="M32.2448 14.4164V13.2527L31.7461 11.761H32.0381L32.3796 12.8529L32.3976 12.9427L32.4156 12.8529L32.784 11.761H33.0536L32.5279 13.2662V14.4164H32.2448Z" fill="#D8D6D6"/>
<path d="M30.0581 14.4164V11.761H30.3367V14.2142H31.078V14.4164H30.0581Z" fill="#D8D6D6"/>
<path d="M28.1342 14.4703C28.0054 14.4703 27.8916 14.4554 27.7927 14.4254C27.6939 14.3955 27.6145 14.334 27.5546 14.2412C27.4977 14.1453 27.4692 14.0016 27.4692 13.8099V12.3137C27.4692 12.1459 27.4977 12.0201 27.5546 11.9363C27.6145 11.8524 27.6954 11.797 27.7972 11.77C27.8991 11.7401 28.0144 11.7251 28.1432 11.7251C28.272 11.7251 28.3858 11.7401 28.4847 11.77C28.5865 11.8 28.6659 11.8569 28.7228 11.9408C28.7827 12.0246 28.8127 12.1489 28.8127 12.3137V13.8054C28.8127 14.0001 28.7827 14.1453 28.7228 14.2412C28.6659 14.334 28.5865 14.3955 28.4847 14.4254C28.3858 14.4554 28.269 14.4703 28.1342 14.4703ZM28.1387 14.2951C28.2166 14.2951 28.284 14.2861 28.3409 14.2681C28.4008 14.2472 28.4472 14.2082 28.4802 14.1513C28.5131 14.0914 28.5296 14.0031 28.5296 13.8862V12.3137C28.5296 12.1969 28.5131 12.11 28.4802 12.0531C28.4472 11.9932 28.4008 11.9542 28.3409 11.9363C28.281 11.9153 28.2136 11.9048 28.1387 11.9048C28.0608 11.9048 27.9919 11.9153 27.932 11.9363C27.8751 11.9542 27.8302 11.9932 27.7972 12.0531C27.7643 12.11 27.7478 12.1969 27.7478 12.3137V13.8862C27.7478 14.0031 27.7643 14.0914 27.7972 14.1513C27.8302 14.2082 27.8751 14.2472 27.932 14.2681C27.9919 14.2861 28.0608 14.2951 28.1387 14.2951Z" fill="#D8D6D6"/>
<path d="M29.5984 7.82176C29.5984 7.36791 29.9663 7 30.4201 7H31.4473C31.9012 7 32.2691 7.36791 32.2691 7.82176V9.25983H29.5984V7.82176Z" fill="#1B1B19"/>
<path d="M29.1875 9.25984C29.1875 8.91946 29.4634 8.64352 29.8038 8.64352H32.0636C32.404 8.64352 32.68 8.91946 32.68 9.25984V9.25984H29.1875V9.25984Z" fill="#C5C4C5"/>
<rect x="58.7708" y="10.287" width="6.77949" height="12.3264" rx="0.821757" fill="#373434"/>
<path d="M68.4263 10.0816C68.4263 9.62774 68.7942 9.25983 69.248 9.25983H78.9037C79.3575 9.25983 79.7254 9.62774 79.7254 10.0816V12.136H68.4263V10.0816Z" fill="#C5C4C5"/>
<path d="M11.9307 11.9305C11.9307 11.4767 12.2986 11.1088 12.7524 11.1088H22.4081C22.8619 11.1088 23.2298 11.4767 23.2298 11.9305V12.136H11.9307V11.9305Z" fill="#C5C4C5"/>
<defs>
<filter id="filter0_d_2380_6171" x="6.09607" y="11.0266" width="79.4639" height="73.7116" filterUnits="userSpaceOnUse" color-interpolation-filters="sRGB">
<feFlood flood-opacity="0" result="BackgroundImageFix"/>
<feColorMatrix in="SourceAlpha" type="matrix" values="0 0 0 0 0 0 0 0 0 0 0 0 0 0 0 0 0 0 127 0" result="hardAlpha"/>
<feOffset dy="-0.205439"/>
<feGaussianBlur stdDeviation="0.451966"/>
<feComposite in2="hardAlpha" operator="out"/>
<feColorMatrix type="matrix" values="0 0 0 0 0 0 0 0 0 0 0 0 0 0 0 0 0 0 0.09 0"/>
<feBlend mode="normal" in2="BackgroundImageFix" result="effect1_dropShadow_2380_6171"/>
<feBlend mode="normal" in="SourceGraphic" in2="effect1_dropShadow_2380_6171" result="shape"/>
</filter>
<filter id="filter1_d_2380_6171" x="6.09607" y="15.3408" width="79.4639" height="16.1886" filterUnits="userSpaceOnUse" color-interpolation-filters="sRGB">
<feFlood flood-opacity="0" result="BackgroundImageFix"/>
<feColorMatrix in="SourceAlpha" type="matrix" values="0 0 0 0 0 0 0 0 0 0 0 0 0 0 0 0 0 0 127 0" result="hardAlpha"/>
<feOffset dy="-0.205439"/>
<feGaussianBlur stdDeviation="0.451966"/>
<feComposite in2="hardAlpha" operator="out"/>
<feColorMatrix type="matrix" values="0 0 0 0 0 0 0 0 0 0 0 0 0 0 0 0 0 0 0.09 0"/>
<feBlend mode="normal" in2="BackgroundImageFix" result="effect1_dropShadow_2380_6171"/>
<feBlend mode="normal" in="SourceGraphic" in2="effect1_dropShadow_2380_6171" result="shape"/>
</filter>
<filter id="filter2_d_2380_6171" x="13.9798" y="68.2209" width="7.15607" height="7.15619" filterUnits="userSpaceOnUse" color-interpolation-filters="sRGB">
<feFlood flood-opacity="0" result="BackgroundImageFix"/>
<feColorMatrix in="SourceAlpha" type="matrix" values="0 0 0 0 0 0 0 0 0 0 0 0 0 0 0 0 0 0 127 0" result="hardAlpha"/>
<feOffset dy="0.621248"/>
<feGaussianBlur stdDeviation="0.310624"/>
<feColorMatrix type="matrix" values="0 0 0 0 0 0 0 0 0 0 0 0 0 0 0 0 0 0 1 0"/>
<feBlend mode="normal" in2="BackgroundImageFix" result="effect1_dropShadow_2380_6171"/>
<feBlend mode="normal" in="SourceGraphic" in2="effect1_dropShadow_2380_6171" result="shape"/>
</filter>
<filter id="filter3_d_2380_6171" x="16.9632" y="25.605" width="57.6521" height="57.6522" filterUnits="userSpaceOnUse" color-interpolation-filters="sRGB">
<feFlood flood-opacity="0" result="BackgroundImageFix"/>
<feColorMatrix in="SourceAlpha" type="matrix" values="0 0 0 0 0 0 0 0 0 0 0 0 0 0 0 0 0 0 127 0" result="hardAlpha"/>
<feOffset dy="0.621248"/>
<feGaussianBlur stdDeviation="0.77656"/>
<feColorMatrix type="matrix" values="0 0 0 0 0 0 0 0 0 0 0 0 0 0 0 0 0 0 0.2 0"/>
<feBlend mode="normal" in2="BackgroundImageFix" result="effect1_dropShadow_2380_6171"/>
<feBlend mode="normal" in="SourceGraphic" in2="effect1_dropShadow_2380_6171" result="shape"/>
</filter>
<filter id="filter4_i_2380_6171" x="20.3535" y="28.5791" width="50.8032" height="51.2206" filterUnits="userSpaceOnUse" color-interpolation-filters="sRGB">
<feFlood flood-opacity="0" result="BackgroundImageFix"/>
<feBlend mode="normal" in="SourceGraphic" in2="BackgroundImageFix" result="shape"/>
<feColorMatrix in="SourceAlpha" type="matrix" values="0 0 0 0 0 0 0 0 0 0 0 0 0 0 0 0 0 0 127 0" result="hardAlpha"/>
<feOffset dy="0.616317"/>
<feGaussianBlur stdDeviation="0.205439"/>
<feComposite in2="hardAlpha" operator="arithmetic" k2="-1" k3="1"/>
<feColorMatrix type="matrix" values="0 0 0 0 1 0 0 0 0 1 0 0 0 0 1 0 0 0 0.19 0"/>
<feBlend mode="normal" in2="shape" result="effect1_innerShadow_2380_6171"/>
</filter>
<filter id="filter5_i_2380_6171" x="24.4119" y="32.5949" width="42.7307" height="43.0453" filterUnits="userSpaceOnUse" color-interpolation-filters="sRGB">
<feFlood flood-opacity="0" result="BackgroundImageFix"/>
<feBlend mode="normal" in="SourceGraphic" in2="BackgroundImageFix" result="shape"/>
<feColorMatrix in="SourceAlpha" type="matrix" values="0 0 0 0 0 0 0 0 0 0 0 0 0 0 0 0 0 0 127 0" result="hardAlpha"/>
<feOffset dy="0.616317"/>
<feGaussianBlur stdDeviation="0.133535"/>
<feComposite in2="hardAlpha" operator="arithmetic" k2="-1" k3="1"/>
<feColorMatrix type="matrix" values="0 0 0 0 1 0 0 0 0 1 0 0 0 0 1 0 0 0 0.19 0"/>
<feBlend mode="normal" in2="shape" result="effect1_innerShadow_2380_6171"/>
</filter>
<linearGradient id="paint0_linear_2380_6171" x1="7.90074" y1="7.97876" x2="99.4983" y2="43.9374" gradientUnits="userSpaceOnUse">
<stop stop-color="#C1C1C1"/>
<stop offset="1" stop-color="#D3D3D3"/>
</linearGradient>
<linearGradient id="paint1_linear_2380_6171" x1="7.90074" y1="15.6187" x2="29.6848" y2="58.3778" gradientUnits="userSpaceOnUse">
<stop stop-color="#C1C1C1"/>
<stop offset="1" stop-color="#D3D3D3"/>
</linearGradient>
<linearGradient id="paint2_linear_2380_6171" x1="45.7893" y1="26.5369" x2="45.7893" y2="81.0828" gradientUnits="userSpaceOnUse">
<stop stop-color="#EAEAEA"/>
<stop offset="1" stop-color="#B6B6B6"/>
</linearGradient>
<linearGradient id="paint3_linear_2380_6171" x1="45.8285" y1="66.8433" x2="45.8285" y2="40.7764" gradientUnits="userSpaceOnUse">
<stop/>
<stop offset="1"/>
</linearGradient>
</defs>
</svg>
