<svg width="90" height="90" viewBox="0 0 90 90" fill="none" xmlns="http://www.w3.org/2000/svg">
<rect width="90" height="90" fill="#F6E58D"/>
<rect x="63.8098" y="19.2861" width="10.9569" height="3.35417" rx="0.894445" fill="#DDDDCA"/>
<mask id="path-2-inside-1_2380_6206" fill="white">
<path fill-rule="evenodd" clip-rule="evenodd" d="M7.22427 9.00003H26.4709C28.394 9.00003 29.6927 10.9634 28.9404 12.7332L25.6527 20.4668C25.5469 20.7155 25.3029 20.877 25.0326 20.877H7.68333C6.20137 20.877 5 22.0783 5 23.5603V78.7667C5 80.0016 6.00115 81.0028 7.23612 81.0028H81.0278C82.2628 81.0028 83.2639 80.0016 83.2639 78.7667V23.5603C83.2639 22.0784 82.0625 20.877 80.5806 20.877L63.2312 20.877C62.961 20.877 62.7169 20.7155 62.6112 20.4668L59.3234 12.7332C58.5711 10.9634 59.8699 9.00005 61.7929 9.00005L81.0422 9.00005C81.0374 9.00002 81.0326 9 81.0278 9H36.034H7.23611C7.23216 9 7.22822 9.00001 7.22427 9.00003Z"/>
</mask>
<path fill-rule="evenodd" clip-rule="evenodd" d="M7.22427 9.00003H26.4709C28.394 9.00003 29.6927 10.9634 28.9404 12.7332L25.6527 20.4668C25.5469 20.7155 25.3029 20.877 25.0326 20.877H7.68333C6.20137 20.877 5 22.0783 5 23.5603V78.7667C5 80.0016 6.00115 81.0028 7.23612 81.0028H81.0278C82.2628 81.0028 83.2639 80.0016 83.2639 78.7667V23.5603C83.2639 22.0784 82.0625 20.877 80.5806 20.877L63.2312 20.877C62.961 20.877 62.7169 20.7155 62.6112 20.4668L59.3234 12.7332C58.5711 10.9634 59.8699 9.00005 61.7929 9.00005L81.0422 9.00005C81.0374 9.00002 81.0326 9 81.0278 9H36.034H7.23611C7.23216 9 7.22822 9.00001 7.22427 9.00003Z" fill="#DDDDCA"/>
<path d="M7.22427 9.00003L7.22311 8.77642L7.22427 9.22364V9.00003ZM25.6527 20.4668L25.8584 20.5543L25.8584 20.5543L25.6527 20.4668ZM63.2312 20.877L63.2312 21.1006H63.2312L63.2312 20.877ZM62.6112 20.4668L62.4054 20.5543L62.4054 20.5543L62.6112 20.4668ZM81.0422 9.00005L81.0422 9.22366L81.0436 8.77644L81.0422 9.00005ZM59.3234 12.7332L59.5292 12.6457L59.3234 12.7332ZM80.5806 20.877L80.5806 20.6534L80.5806 20.877ZM28.9404 12.7332L29.1462 12.8206L28.9404 12.7332ZM26.4709 8.77642H7.22427V9.22364H26.4709V8.77642ZM25.8584 20.5543L29.1462 12.8206L28.7346 12.6457L25.4469 20.3793L25.8584 20.5543ZM25.0326 21.1006C25.3925 21.1006 25.7176 20.8855 25.8584 20.5543L25.4469 20.3793C25.3762 20.5455 25.2132 20.6534 25.0326 20.6534V21.1006ZM7.68333 21.1006H25.0326V20.6534H7.68333V21.1006ZM5.22361 78.7667V23.5603H4.77639V78.7667H5.22361ZM7.23612 80.7792C6.12464 80.7792 5.22361 79.8781 5.22361 78.7667H4.77639C4.77639 80.1251 5.87765 81.2264 7.23612 81.2264V80.7792ZM81.0278 80.7792H7.23612V81.2264H81.0278V80.7792ZM83.0403 78.7667C83.0403 79.8781 82.1393 80.7792 81.0278 80.7792V81.2264C82.3863 81.2264 83.4875 80.1251 83.4875 78.7667H83.0403ZM83.0403 23.5603V78.7667H83.4875V23.5603H83.0403ZM80.5806 20.6534L63.2312 20.6534L63.2312 21.1006L80.5806 21.1006L80.5806 20.6534ZM63.2312 20.6534C63.0507 20.6534 62.8876 20.5455 62.8169 20.3794L62.4054 20.5543C62.5462 20.8856 62.8713 21.1006 63.2312 21.1006V20.6534ZM62.8169 20.3794L59.5292 12.6457L59.1177 12.8207L62.4054 20.5543L62.8169 20.3794ZM61.7929 9.22366L81.0422 9.22366L81.0422 8.77643L61.7929 8.77644L61.7929 9.22366ZM81.0278 9.22361C81.0321 9.22361 81.0365 9.22362 81.0408 9.22365L81.0436 8.77644C81.0384 8.77641 81.0331 8.77639 81.0278 8.77639V9.22361ZM36.034 9.22361H81.0278V8.77639H36.034V9.22361ZM7.23611 9.22361H36.034V8.77639H7.23611V9.22361ZM7.22543 9.22364C7.22899 9.22362 7.23255 9.22361 7.23611 9.22361V8.77639C7.23178 8.77639 7.22744 8.7764 7.22311 8.77642L7.22543 9.22364ZM59.5292 12.6457C58.8396 11.0234 60.0301 9.22366 61.7929 9.22366L61.7929 8.77644C59.7096 8.77644 58.3026 10.9034 59.1177 12.8207L59.5292 12.6457ZM83.4875 23.5603C83.4875 21.9549 82.186 20.6534 80.5806 20.6534L80.5806 21.1006C81.939 21.1006 83.0403 22.2019 83.0403 23.5603H83.4875ZM7.68333 20.6534C6.07787 20.6534 4.77639 21.9549 4.77639 23.5603H5.22361C5.22361 22.2018 6.32487 21.1006 7.68333 21.1006V20.6534ZM26.4709 9.22364C28.2337 9.22364 29.4242 11.0234 28.7346 12.6457L29.1462 12.8206C29.9612 10.9034 28.5542 8.77642 26.4709 8.77642V9.22364Z" fill="url(#paint0_linear_2380_6206)" mask="url(#path-2-inside-1_2380_6206)"/>
<path d="M11.9078 30.0484C11.2452 30.0484 10.7082 29.5106 10.7082 28.8472C10.7082 28.1838 11.2452 27.6465 11.9078 27.6465C12.1414 27.6465 12.3595 27.7132 12.5437 27.8288L11.9078 28.8472L13.1048 28.1554C12.9748 27.948 12.7883 27.7693 12.5627 27.6337C12.2757 27.4617 11.8765 27.3553 11.435 27.3553C10.8053 27.3553 10.2528 27.5843 9.94472 27.9273C9.71662 28.1809 9.58081 28.5 9.58081 28.8472C9.58081 29.1946 9.71662 29.514 9.94472 29.7677C10.2536 30.1111 10.7979 30.3388 11.4172 30.3388C12.0365 30.3388 12.5805 30.111 12.8896 29.7677C12.9066 29.7488 12.923 29.7297 12.9385 29.7099L12.8918 29.5348C12.6746 29.8451 12.3149 30.0484 11.9078 30.0484" fill="#818188"/>
<path d="M15.9542 30.3467L15.4518 28.4709C15.3711 28.1677 15.0953 27.9449 14.767 27.9449C14.6818 27.9449 14.6003 27.9601 14.5245 27.9877L13.443 28.3814H14.5554L14.7454 29.0919C14.5611 28.9331 14.3209 28.8364 14.058 28.8364C13.5358 28.8364 13.113 29.1866 13.113 29.6187C13.113 30.0507 13.5358 30.4015 14.058 30.4015C14.4339 30.4015 14.7663 30.2173 14.9713 29.9343L15.0816 30.3467H15.9542V30.3467ZM14.4217 30.0554C14.1809 30.0554 13.9856 29.8601 13.9856 29.6187C13.9856 29.3776 14.1809 29.1822 14.4217 29.1822C14.6626 29.1822 14.858 29.3776 14.858 29.6187C14.858 29.8601 14.6626 30.0554 14.4217 30.0554Z" fill="#818188"/>
<path d="M17.9251 27.8651C17.8592 27.8651 17.7968 27.8797 17.7412 27.9058L17.0468 28.2297C17.0124 28.0228 16.8328 27.8651 16.6162 27.8651C16.5506 27.8651 16.4881 27.8797 16.4318 27.9058L15.584 28.3012H16.1801V30.2666H17.0527V28.5199C17.0527 28.3994 17.1501 28.3013 17.2709 28.3013C17.391 28.3013 17.4891 28.3994 17.4891 28.5199V30.2666H18.3614V28.3012C18.3614 28.0602 18.1659 27.8651 17.9251 27.8651" fill="#818188"/>
<path d="M21.1967 29.102C21.1967 29.7852 20.6436 30.3388 19.9612 30.3388C19.2784 30.3388 18.7249 29.7852 18.7249 29.102C18.7249 28.419 19.2784 27.8651 19.9612 27.8651C20.6436 27.8651 21.1967 28.4191 21.1967 29.102V29.102ZM20.0124 28.2405C19.9735 28.095 19.8241 28.0086 19.6787 28.0477C19.5335 28.0867 19.4467 28.2363 19.4857 28.3819L19.9096 29.9635C19.9488 30.1091 20.0979 30.1955 20.2432 30.1569C20.3886 30.1175 20.475 29.9679 20.436 29.8224L20.0124 28.2405V28.2405Z" fill="#818188"/>
<path d="M23.3971 27.8651C23.331 27.8651 23.2683 27.8797 23.2118 27.9058L22.5181 28.2297C22.4839 28.0228 22.3043 27.8651 22.0877 27.8651C22.0221 27.8651 21.9596 27.8797 21.9031 27.9058L21.0557 28.3012H21.6516V30.2666H22.524V28.5199C22.524 28.3994 22.6216 28.3013 22.7424 28.3013C22.8628 28.3013 22.9603 28.3994 22.9603 28.5199V30.2666H23.8332V28.3012C23.8332 28.0602 23.6376 27.8651 23.3971 27.8651" fill="#818188"/>
<path fill-rule="evenodd" clip-rule="evenodd" d="M24.9014 42.8443V36.057C24.9014 35.563 24.5009 35.1625 24.0069 35.1625H5.89444C5.40046 35.1625 5 35.563 5 36.0569V76.7542C5 77.2482 5.40046 77.6486 5.89445 77.6486H24.0069C24.5009 77.6486 24.9014 77.2482 24.9014 76.7542V70.1904C21.9588 66.418 20.2056 61.6724 20.2056 56.5173C20.2056 51.3623 21.9588 46.6167 24.9014 42.8443Z" fill="#33332F"/>
<path d="M17.4811 70.1802C17.1414 70.7737 16.3518 70.9291 15.8508 70.4636C14.2497 68.9756 12.9201 67.1192 11.9469 65.0036C10.7803 62.4677 10.1612 59.6364 10.1435 56.7564C10.1257 53.8763 10.71 51.0349 11.8452 48.4796C12.7928 46.3467 14.1004 44.4671 15.6842 42.9519C16.1778 42.4797 16.9688 42.6236 17.3161 43.2119V43.2119C17.5982 43.6897 17.484 44.2985 17.0787 44.6774C15.6558 46.0078 14.4835 47.6741 13.6403 49.572C12.6572 51.7848 12.1513 54.2453 12.1666 56.7393C12.182 59.2333 12.7181 61.6851 13.7283 63.8811C14.5939 65.7627 15.7851 67.4076 17.2222 68.7132C17.6343 69.0876 17.7577 69.6969 17.4811 70.1802V70.1802Z" fill="#252522"/>
<path d="M83.2639 30.2431H84.382C84.876 30.2431 85.2764 30.6435 85.2764 31.1375V75.4125C85.2764 75.9065 84.876 76.307 84.382 76.307H83.2639V30.2431Z" fill="#818188"/>
<path fill-rule="evenodd" clip-rule="evenodd" d="M77.0398 69.3367C77.4483 68.3496 77.6737 67.2674 77.6737 66.1327C77.6737 61.5015 73.9194 57.7473 69.2882 57.7473C64.6571 57.7473 60.9028 61.5015 60.9028 66.1327C60.9028 70.7638 64.6571 74.5181 69.2882 74.5181C71.2631 74.5181 73.0784 73.8354 74.5112 72.6932L75.8979 73.4938C76.8954 74.0697 78.1709 73.728 78.7468 72.7305C79.3227 71.733 78.981 70.4575 77.9835 69.8815L77.0398 69.3367Z" fill="#D3D3C0"/>
<rect x="63.8098" y="19.2861" width="10.9569" height="3.35417" rx="0.894445" fill="#DDDDCA"/>
<mask id="path-14-inside-2_2380_6206" fill="white">
<path fill-rule="evenodd" clip-rule="evenodd" d="M7.22427 9.00003H26.4709C28.394 9.00003 29.6927 10.9634 28.9404 12.7332L25.6527 20.4668C25.5469 20.7155 25.3029 20.877 25.0326 20.877H7.68333C6.20137 20.877 5 22.0783 5 23.5603V78.7667C5 80.0016 6.00115 81.0028 7.23612 81.0028H81.0278C82.2628 81.0028 83.2639 80.0016 83.2639 78.7667V23.5603C83.2639 22.0784 82.0625 20.877 80.5806 20.877L63.2312 20.877C62.961 20.877 62.7169 20.7155 62.6112 20.4668L59.3234 12.7332C58.5711 10.9634 59.8699 9.00005 61.7929 9.00005L81.0422 9.00005C81.0374 9.00002 81.0326 9 81.0278 9H36.034H7.23611C7.23216 9 7.22822 9.00001 7.22427 9.00003Z"/>
</mask>
<path fill-rule="evenodd" clip-rule="evenodd" d="M7.22427 9.00003H26.4709C28.394 9.00003 29.6927 10.9634 28.9404 12.7332L25.6527 20.4668C25.5469 20.7155 25.3029 20.877 25.0326 20.877H7.68333C6.20137 20.877 5 22.0783 5 23.5603V78.7667C5 80.0016 6.00115 81.0028 7.23612 81.0028H81.0278C82.2628 81.0028 83.2639 80.0016 83.2639 78.7667V23.5603C83.2639 22.0784 82.0625 20.877 80.5806 20.877L63.2312 20.877C62.961 20.877 62.7169 20.7155 62.6112 20.4668L59.3234 12.7332C58.5711 10.9634 59.8699 9.00005 61.7929 9.00005L81.0422 9.00005C81.0374 9.00002 81.0326 9 81.0278 9H36.034H7.23611C7.23216 9 7.22822 9.00001 7.22427 9.00003Z" fill="#DDDDCA"/>
<path d="M7.22427 9.00003L7.22311 8.77642L7.22427 9.22364V9.00003ZM25.6527 20.4668L25.8584 20.5543L25.8584 20.5543L25.6527 20.4668ZM63.2312 20.877L63.2312 21.1006H63.2312L63.2312 20.877ZM62.6112 20.4668L62.4054 20.5543L62.4054 20.5543L62.6112 20.4668ZM81.0422 9.00005L81.0422 9.22366L81.0436 8.77644L81.0422 9.00005ZM59.3234 12.7332L59.5292 12.6457L59.3234 12.7332ZM80.5806 20.877L80.5806 20.6534L80.5806 20.877ZM28.9404 12.7332L29.1462 12.8206L28.9404 12.7332ZM26.4709 8.77642H7.22427V9.22364H26.4709V8.77642ZM25.8584 20.5543L29.1462 12.8206L28.7346 12.6457L25.4469 20.3793L25.8584 20.5543ZM25.0326 21.1006C25.3925 21.1006 25.7176 20.8855 25.8584 20.5543L25.4469 20.3793C25.3762 20.5455 25.2132 20.6534 25.0326 20.6534V21.1006ZM7.68333 21.1006H25.0326V20.6534H7.68333V21.1006ZM5.22361 78.7667V23.5603H4.77639V78.7667H5.22361ZM7.23612 80.7792C6.12464 80.7792 5.22361 79.8781 5.22361 78.7667H4.77639C4.77639 80.1251 5.87765 81.2264 7.23612 81.2264V80.7792ZM81.0278 80.7792H7.23612V81.2264H81.0278V80.7792ZM83.0403 78.7667C83.0403 79.8781 82.1393 80.7792 81.0278 80.7792V81.2264C82.3863 81.2264 83.4875 80.1251 83.4875 78.7667H83.0403ZM83.0403 23.5603V78.7667H83.4875V23.5603H83.0403ZM80.5806 20.6534L63.2312 20.6534L63.2312 21.1006L80.5806 21.1006L80.5806 20.6534ZM63.2312 20.6534C63.0507 20.6534 62.8876 20.5455 62.8169 20.3794L62.4054 20.5543C62.5462 20.8856 62.8713 21.1006 63.2312 21.1006V20.6534ZM62.8169 20.3794L59.5292 12.6457L59.1177 12.8207L62.4054 20.5543L62.8169 20.3794ZM61.7929 9.22366L81.0422 9.22366L81.0422 8.77643L61.7929 8.77644L61.7929 9.22366ZM81.0278 9.22361C81.0321 9.22361 81.0365 9.22362 81.0408 9.22365L81.0436 8.77644C81.0384 8.77641 81.0331 8.77639 81.0278 8.77639V9.22361ZM36.034 9.22361H81.0278V8.77639H36.034V9.22361ZM7.23611 9.22361H36.034V8.77639H7.23611V9.22361ZM7.22543 9.22364C7.22899 9.22362 7.23255 9.22361 7.23611 9.22361V8.77639C7.23178 8.77639 7.22744 8.7764 7.22311 8.77642L7.22543 9.22364ZM59.5292 12.6457C58.8396 11.0234 60.0301 9.22366 61.7929 9.22366L61.7929 8.77644C59.7096 8.77644 58.3026 10.9034 59.1177 12.8207L59.5292 12.6457ZM83.4875 23.5603C83.4875 21.9549 82.186 20.6534 80.5806 20.6534L80.5806 21.1006C81.939 21.1006 83.0403 22.2019 83.0403 23.5603H83.4875ZM7.68333 20.6534C6.07787 20.6534 4.77639 21.9549 4.77639 23.5603H5.22361C5.22361 22.2018 6.32487 21.1006 7.68333 21.1006V20.6534ZM26.4709 9.22364C28.2337 9.22364 29.4242 11.0234 28.7346 12.6457L29.1462 12.8206C29.9612 10.9034 28.5542 8.77642 26.4709 8.77642V9.22364Z" fill="url(#paint1_linear_2380_6206)" mask="url(#path-14-inside-2_2380_6206)"/>
<path d="M11.9078 30.0484C11.2452 30.0484 10.7082 29.5106 10.7082 28.8472C10.7082 28.1838 11.2452 27.6465 11.9078 27.6465C12.1414 27.6465 12.3595 27.7132 12.5437 27.8288L11.9078 28.8472L13.1048 28.1554C12.9748 27.948 12.7883 27.7693 12.5627 27.6337C12.2757 27.4617 11.8765 27.3553 11.435 27.3553C10.8053 27.3553 10.2528 27.5843 9.94472 27.9273C9.71662 28.1809 9.58081 28.5 9.58081 28.8472C9.58081 29.1946 9.71662 29.514 9.94472 29.7677C10.2536 30.1111 10.7979 30.3388 11.4172 30.3388C12.0365 30.3388 12.5805 30.111 12.8896 29.7677C12.9066 29.7488 12.923 29.7297 12.9385 29.7099L12.8918 29.5348C12.6746 29.8451 12.3149 30.0484 11.9078 30.0484" fill="#818188"/>
<path d="M15.9542 30.3467L15.4518 28.4709C15.3711 28.1677 15.0953 27.9449 14.767 27.9449C14.6818 27.9449 14.6003 27.9601 14.5245 27.9877L13.443 28.3814H14.5554L14.7454 29.0919C14.5611 28.9331 14.3209 28.8364 14.058 28.8364C13.5358 28.8364 13.113 29.1866 13.113 29.6187C13.113 30.0507 13.5358 30.4015 14.058 30.4015C14.4339 30.4015 14.7663 30.2173 14.9713 29.9343L15.0816 30.3467H15.9542V30.3467ZM14.4217 30.0554C14.1809 30.0554 13.9856 29.8601 13.9856 29.6187C13.9856 29.3776 14.1809 29.1822 14.4217 29.1822C14.6626 29.1822 14.858 29.3776 14.858 29.6187C14.858 29.8601 14.6626 30.0554 14.4217 30.0554Z" fill="#818188"/>
<path d="M17.9251 27.8651C17.8592 27.8651 17.7968 27.8797 17.7412 27.9058L17.0468 28.2297C17.0124 28.0228 16.8328 27.8651 16.6162 27.8651C16.5506 27.8651 16.4881 27.8797 16.4318 27.9058L15.584 28.3012H16.1801V30.2666H17.0527V28.5199C17.0527 28.3994 17.1501 28.3013 17.2709 28.3013C17.391 28.3013 17.4891 28.3994 17.4891 28.5199V30.2666H18.3614V28.3012C18.3614 28.0602 18.1659 27.8651 17.9251 27.8651" fill="#818188"/>
<path d="M21.1967 29.102C21.1967 29.7852 20.6436 30.3388 19.9612 30.3388C19.2784 30.3388 18.7249 29.7852 18.7249 29.102C18.7249 28.419 19.2784 27.8651 19.9612 27.8651C20.6436 27.8651 21.1967 28.4191 21.1967 29.102V29.102ZM20.0124 28.2405C19.9735 28.095 19.8241 28.0086 19.6787 28.0477C19.5335 28.0867 19.4467 28.2363 19.4857 28.3819L19.9096 29.9635C19.9488 30.1091 20.0979 30.1955 20.2432 30.1569C20.3886 30.1175 20.475 29.9679 20.436 29.8224L20.0124 28.2405V28.2405Z" fill="#818188"/>
<path d="M23.3971 27.8651C23.331 27.8651 23.2683 27.8797 23.2118 27.9058L22.5181 28.2297C22.4839 28.0228 22.3043 27.8651 22.0877 27.8651C22.0221 27.8651 21.9596 27.8797 21.9031 27.9058L21.0557 28.3012H21.6516V30.2666H22.524V28.5199C22.524 28.3994 22.6216 28.3013 22.7424 28.3013C22.8628 28.3013 22.9603 28.3994 22.9603 28.5199V30.2666H23.8332V28.3012C23.8332 28.0602 23.6376 27.8651 23.3971 27.8651" fill="#818188"/>
<path fill-rule="evenodd" clip-rule="evenodd" d="M24.9014 42.8443V36.057C24.9014 35.563 24.5009 35.1625 24.0069 35.1625H5.89444C5.40046 35.1625 5 35.563 5 36.0569V76.7542C5 77.2482 5.40046 77.6486 5.89445 77.6486H24.0069C24.5009 77.6486 24.9014 77.2482 24.9014 76.7542V70.1904C21.9588 66.418 20.2056 61.6724 20.2056 56.5173C20.2056 51.3623 21.9588 46.6167 24.9014 42.8443Z" fill="#33332F"/>
<path d="M17.4811 70.1802C17.1414 70.7737 16.3518 70.9291 15.8508 70.4636C14.2497 68.9756 12.9201 67.1192 11.9469 65.0036C10.7803 62.4677 10.1612 59.6364 10.1435 56.7564C10.1257 53.8763 10.71 51.0349 11.8452 48.4796C12.7928 46.3467 14.1004 44.4671 15.6842 42.9519C16.1778 42.4797 16.9688 42.6236 17.3161 43.2119V43.2119C17.5982 43.6897 17.484 44.2985 17.0787 44.6774C15.6558 46.0078 14.4835 47.6741 13.6403 49.572C12.6572 51.7848 12.1513 54.2453 12.1666 56.7393C12.182 59.2333 12.7181 61.6851 13.7283 63.8811C14.5939 65.7627 15.7851 67.4076 17.2222 68.7132C17.6343 69.0876 17.7577 69.6969 17.4811 70.1802V70.1802Z" fill="#252522"/>
<path d="M83.2639 30.2431H84.382C84.876 30.2431 85.2764 30.6435 85.2764 31.1375V75.4125C85.2764 75.9065 84.876 76.307 84.382 76.307H83.2639V30.2431Z" fill="#818188"/>
<path fill-rule="evenodd" clip-rule="evenodd" d="M77.0398 69.3367C77.4483 68.3496 77.6737 67.2674 77.6737 66.1327C77.6737 61.5015 73.9194 57.7473 69.2882 57.7473C64.6571 57.7473 60.9028 61.5015 60.9028 66.1327C60.9028 70.7638 64.6571 74.5181 69.2882 74.5181C71.2631 74.5181 73.0784 73.8354 74.5112 72.6932L75.8979 73.4938C76.8954 74.0697 78.1709 73.728 78.7468 72.7305C79.3227 71.733 78.981 70.4575 77.9835 69.8815L77.0398 69.3367Z" fill="#D3D3C0"/>
<rect x="33.5508" y="10.7276" width="20.7307" height="10.3653" rx="0.863778" fill="#1B1B19"/>
<rect x="39.813" y="13.3189" width="7.98995" height="5.18267" rx="0.863778" fill="#BBBBBB"/>
<rect x="39.813" y="13.3189" width="7.98995" height="5.18267" rx="0.863778" fill="#A4A49D"/>
<g filter="url(#filter0_d_2380_6206)">
<circle cx="43.8625" cy="56.6703" r="15.4945" fill="#F64F46"/>
</g>
<circle cx="43.9118" cy="56.7196" r="13.3362" fill="#DDDDCA" stroke="#ABAE9B" stroke-width="0.0310878"/>
<circle cx="43.8624" cy="56.6703" r="11.462" fill="#1B1B19" stroke="#BBBBBB" stroke-width="0.373053"/>
<circle cx="43.8623" cy="56.6703" r="9.55283" fill="#1B1B19" stroke="#BBBBBB" stroke-width="0.124351"/>
<circle cx="43.8627" cy="56.6703" r="7.40466" fill="url(#paint2_linear_2380_6206)"/>
<circle cx="45.6307" cy="54.902" r="1.79038" fill="#232323"/>
<circle cx="46.8241" cy="53.4432" r="2.45349" fill="#232323" fill-opacity="0.7"/>
<circle cx="42.4256" cy="54.2168" r="3.22711" fill="#232323" fill-opacity="0.56"/>
<circle cx="44.857" cy="57.4438" r="4.55332" fill="#232323" fill-opacity="0.4"/>
<path fill-rule="evenodd" clip-rule="evenodd" d="M31.2742 24.2056V24.2056C31.5207 24.2056 31.7528 24.3216 31.9006 24.5188L32.9067 25.8603C33.0757 26.0855 33.3408 26.2181 33.6223 26.2181H54.1945C54.476 26.2181 54.7411 26.0855 54.9101 25.8603V25.8603C55.6913 24.8186 56.9174 24.2056 58.2194 24.2056H76.6672C79.3224 24.2056 81.4749 26.3581 81.4749 29.0132C81.4749 31.6684 79.3224 33.8209 76.6673 33.8209H53.9999C52.7654 33.8209 51.5895 33.3595 50.5285 32.7285C48.5906 31.5759 46.3267 30.9139 43.9083 30.9139C41.4898 30.9139 39.226 31.5759 37.288 32.7285C36.227 33.3595 35.0511 33.8209 33.8166 33.8209H31.2742C28.619 33.8209 26.4666 31.6684 26.4666 29.0132C26.4666 26.3581 28.619 24.2056 31.2742 24.2056Z" fill="#33332F"/>
<circle cx="39.8834" cy="28.9014" r="1.11806" fill="#5D5D53"/>
<path d="M58.2195 26.8889C58.2195 26.3949 58.6199 25.9945 59.1139 25.9945H71.8598C72.3537 25.9945 72.7542 26.3949 72.7542 26.8889V31.3611C72.7542 31.8551 72.3537 32.2556 71.8598 32.2556H59.1139C58.6199 32.2556 58.2195 31.8551 58.2195 31.3611V26.8889Z" fill="#918C87"/>
<circle cx="77.45" cy="28.9014" r="1.56528" fill="#918C87"/>
<defs>
<filter id="filter0_d_2380_6206" x="28.057" y="40.9892" width="31.6108" height="31.6108" filterUnits="userSpaceOnUse" color-interpolation-filters="sRGB">
<feFlood flood-opacity="0" result="BackgroundImageFix"/>
<feColorMatrix in="SourceAlpha" type="matrix" values="0 0 0 0 0 0 0 0 0 0 0 0 0 0 0 0 0 0 127 0" result="hardAlpha"/>
<feOffset dy="0.124351"/>
<feGaussianBlur stdDeviation="0.155439"/>
<feColorMatrix type="matrix" values="0 0 0 0 0 0 0 0 0 0 0 0 0 0 0 0 0 0 0.2 0"/>
<feBlend mode="normal" in2="BackgroundImageFix" result="effect1_dropShadow_2380_6206"/>
<feBlend mode="normal" in="SourceGraphic" in2="effect1_dropShadow_2380_6206" result="shape"/>
</filter>
<linearGradient id="paint0_linear_2380_6206" x1="44.132" y1="9" x2="44.132" y2="81.0028" gradientUnits="userSpaceOnUse">
<stop stop-color="#DBDBCB"/>
<stop offset="1" stop-color="#D8D8C7"/>
</linearGradient>
<linearGradient id="paint1_linear_2380_6206" x1="44.132" y1="9" x2="44.132" y2="81.0028" gradientUnits="userSpaceOnUse">
<stop stop-color="#DBDBCB"/>
<stop offset="1" stop-color="#D8D8C7"/>
</linearGradient>
<linearGradient id="paint2_linear_2380_6206" x1="43.8848" y1="64.0749" x2="43.8848" y2="49.2656" gradientUnits="userSpaceOnUse">
<stop/>
<stop offset="1"/>
</linearGradient>
</defs>
</svg>
