<svg width="90" height="90" viewBox="0 0 90 90" fill="none" xmlns="http://www.w3.org/2000/svg">
<rect width="90" height="90" fill="#F6E58D"/>
<rect x="64.0725" y="18.507" width="11.1922" height="3.42618" rx="0.913649" fill="#DDDDCA"/>
<mask id="path-2-inside-1_2380_6206" fill="white">
<path fill-rule="evenodd" clip-rule="evenodd" d="M5.02629 8.00002H28.7417C29.374 8.00002 29.8011 8.64561 29.5537 9.22753L25.0962 19.713C24.9882 19.967 24.7388 20.132 24.4628 20.132H4.88232C4.39503 20.132 4 20.527 4 21.0143V80.5164C4 81.0866 4.46219 81.5487 5.03232 81.5487H82.912C83.4821 81.5487 83.9443 81.0866 83.9443 80.5164V21.0143C83.9443 20.527 83.5493 20.132 83.062 20.132L63.4817 20.132C63.2056 20.132 62.9563 19.9671 62.8483 19.713L58.3907 9.22754C58.1434 8.64562 58.5704 8.00003 59.2027 8.00003L82.9191 8.00002C82.9167 8.00001 82.9143 8 82.912 8H35.7004H5.03232C5.03031 8 5.0283 8.00001 5.02629 8.00002Z"/>
</mask>
<path fill-rule="evenodd" clip-rule="evenodd" d="M5.02629 8.00002H28.7417C29.374 8.00002 29.8011 8.64561 29.5537 9.22753L25.0962 19.713C24.9882 19.967 24.7388 20.132 24.4628 20.132H4.88232C4.39503 20.132 4 20.527 4 21.0143V80.5164C4 81.0866 4.46219 81.5487 5.03232 81.5487H82.912C83.4821 81.5487 83.9443 81.0866 83.9443 80.5164V21.0143C83.9443 20.527 83.5493 20.132 83.062 20.132L63.4817 20.132C63.2056 20.132 62.9563 19.9671 62.8483 19.713L58.3907 9.22754C58.1434 8.64562 58.5704 8.00003 59.2027 8.00003L82.9191 8.00002C82.9167 8.00001 82.9143 8 82.912 8H35.7004H5.03232C5.03031 8 5.0283 8.00001 5.02629 8.00002Z" fill="#DDDDCA"/>
<path d="M5.02629 8.00002L5.02499 7.77161L5.02629 8.22843V8.00002ZM25.0962 19.713L24.8859 19.6236L24.8859 19.6236L25.0962 19.713ZM63.4817 20.132L63.4817 20.3604H63.4817L63.4817 20.132ZM62.8483 19.713L62.6381 19.8024L62.6381 19.8024L62.8483 19.713ZM82.9191 8.00002L82.9191 8.22844L82.9206 7.77162L82.9191 8.00002ZM58.3907 9.22754L58.1805 9.3169L58.1805 9.3169L58.3907 9.22754ZM83.062 20.132L83.062 19.9036H83.062L83.062 20.132ZM29.5537 9.22753L29.3435 9.13817L29.5537 9.22753ZM28.7417 7.7716H5.02629V8.22843H28.7417V7.7716ZM25.3064 19.8024L29.7639 9.3169L29.3435 9.13817L24.8859 19.6236L25.3064 19.8024ZM24.4628 20.3604C24.8304 20.3604 25.1625 20.1407 25.3064 19.8024L24.8859 19.6236C24.8138 19.7934 24.6472 19.9036 24.4628 19.9036V20.3604ZM4.88232 20.3604H24.4628V19.9036H4.88232V20.3604ZM4.22841 80.5164V21.0143H3.77159V80.5164H4.22841ZM5.03232 81.3203C4.58833 81.3203 4.22841 80.9604 4.22841 80.5164H3.77159C3.77159 81.2127 4.33604 81.7772 5.03232 81.7772V81.3203ZM82.912 81.3203H5.03232V81.7772H82.912V81.3203ZM83.7159 80.5164C83.7159 80.9604 83.356 81.3203 82.912 81.3203V81.7772C83.6082 81.7772 84.1727 81.2127 84.1727 80.5164H83.7159ZM83.7159 21.0143V80.5164H84.1727V21.0143H83.7159ZM83.062 19.9036L63.4817 19.9036L63.4817 20.3604L83.062 20.3604L83.062 19.9036ZM63.4817 19.9036C63.2972 19.9036 63.1307 19.7934 63.0585 19.6237L62.6381 19.8024C62.7819 20.1407 63.114 20.3604 63.4817 20.3604V19.9036ZM63.0585 19.6237L58.601 9.13818L58.1805 9.3169L62.6381 19.8024L63.0585 19.6237ZM59.2027 8.22844L82.9191 8.22844L82.9191 7.77161L59.2027 7.77161L59.2027 8.22844ZM82.912 8.22841C82.9138 8.22841 82.9157 8.22842 82.9175 8.22843L82.9206 7.77162C82.9177 7.7716 82.9149 7.77159 82.912 7.77159V8.22841ZM35.7004 8.22841H82.912V7.77159H35.7004V8.22841ZM5.03232 8.22841H35.7004V7.77159H5.03232V8.22841ZM5.0276 8.22843C5.02917 8.22842 5.03074 8.22841 5.03232 8.22841V7.77159C5.02987 7.77159 5.02743 7.77159 5.02499 7.77161L5.0276 8.22843ZM58.601 9.13818C58.4176 8.7069 58.7341 8.22844 59.2027 8.22844L59.2027 7.77161C58.4067 7.77161 57.8691 8.58433 58.1805 9.3169L58.601 9.13818ZM84.1727 21.0143C84.1727 20.4009 83.6754 19.9036 83.062 19.9036L83.062 20.3604C83.4231 20.3604 83.7159 20.6532 83.7159 21.0143H84.1727ZM4.88232 19.9036C4.26888 19.9036 3.77159 20.4009 3.77159 21.0143H4.22841C4.22841 20.6532 4.52118 20.3604 4.88232 20.3604V19.9036ZM28.7417 8.22843C29.2103 8.22843 29.5268 8.70689 29.3435 9.13817L29.7639 9.3169C30.0753 8.58433 29.5377 7.7716 28.7417 7.7716V8.22843Z" fill="url(#paint0_linear_2380_6206)" mask="url(#path-2-inside-1_2380_6206)"/>
<path d="M11.0562 29.5003C10.3793 29.5003 9.83077 28.951 9.83077 28.2734C9.83077 27.5957 10.3793 27.0469 11.0562 27.0469C11.2948 27.0469 11.5175 27.115 11.7057 27.2331L11.0562 28.2734L12.2789 27.5667C12.1461 27.3549 11.9555 27.1723 11.7251 27.0338C11.432 26.8581 11.0242 26.7494 10.5732 26.7494C9.92997 26.7494 9.36564 26.9834 9.05093 27.3338C8.81792 27.5928 8.6792 27.9187 8.6792 28.2734C8.6792 28.6282 8.81792 28.9544 9.05093 29.2136C9.36646 29.5644 9.92238 29.797 10.555 29.797C11.1876 29.797 11.7433 29.5643 12.0591 29.2136C12.0764 29.1943 12.0931 29.1748 12.1089 29.1546L12.0613 28.9758C11.8394 29.2927 11.472 29.5003 11.0562 29.5003" fill="#818188"/>
<path d="M15.1893 29.805L14.6761 27.8889C14.5937 27.5792 14.312 27.3517 13.9766 27.3517C13.8896 27.3517 13.8063 27.3672 13.7289 27.3954L12.6241 27.7975H13.7604L13.9546 28.5233C13.7662 28.361 13.5209 28.2623 13.2523 28.2623C12.7189 28.2623 12.2871 28.62 12.2871 29.0613C12.2871 29.5027 12.7189 29.861 13.2523 29.861C13.6363 29.861 13.9759 29.6728 14.1853 29.3837L14.298 29.805H15.1893V29.805ZM13.6239 29.5074C13.3779 29.5074 13.1784 29.308 13.1784 29.0613C13.1784 28.8151 13.3779 28.6155 13.6239 28.6155C13.87 28.6155 14.0696 28.8151 14.0696 29.0613C14.0696 29.308 13.87 29.5074 13.6239 29.5074Z" fill="#818188"/>
<path d="M17.2026 27.2701C17.1353 27.2701 17.0716 27.285 17.0148 27.3117L16.3055 27.6426C16.2704 27.4312 16.0869 27.2701 15.8657 27.2701C15.7987 27.2701 15.7348 27.285 15.6773 27.3117L14.8113 27.7156H15.4202V29.7232H16.3115V27.9389C16.3115 27.8158 16.411 27.7156 16.5344 27.7156C16.6571 27.7156 16.7573 27.8158 16.7573 27.9389V29.7232H17.6483V27.7156C17.6483 27.4694 17.4487 27.2701 17.2026 27.2701" fill="#818188"/>
<path d="M20.5445 28.5336C20.5445 29.2314 19.9794 29.7969 19.2825 29.7969C18.5849 29.7969 18.0195 29.2314 18.0195 28.5336C18.0195 27.8359 18.5849 27.2701 19.2825 27.2701C19.9794 27.2701 20.5445 27.836 20.5445 28.5336V28.5336ZM19.3347 27.6536C19.295 27.5049 19.1423 27.4166 18.9938 27.4566C18.8455 27.4964 18.7569 27.6493 18.7968 27.798L19.2297 29.4135C19.2697 29.5623 19.422 29.6505 19.5705 29.6111C19.719 29.5709 19.8073 29.4181 19.7674 29.2694L19.3347 27.6536V27.6536Z" fill="#818188"/>
<path d="M22.7921 27.2701C22.7246 27.2701 22.6606 27.285 22.6029 27.3117L21.8942 27.6426C21.8593 27.4312 21.6759 27.2701 21.4546 27.2701C21.3876 27.2701 21.3237 27.285 21.2661 27.3117L20.4004 27.7156H21.0091V29.7232H21.9003V27.9389C21.9003 27.8158 22 27.7156 22.1234 27.7156C22.2464 27.7156 22.3459 27.8158 22.3459 27.9389V29.7232H23.2376V27.7156C23.2376 27.4694 23.0378 27.2701 22.7921 27.2701" fill="#818188"/>
<path fill-rule="evenodd" clip-rule="evenodd" d="M24.3287 42.5709V35.6379C24.3287 35.1333 23.9196 34.7242 23.415 34.7242H4.91365C4.40905 34.7242 4 35.1333 4 35.6379V77.2089C4 77.7135 4.40905 78.1226 4.91365 78.1226H23.415C23.9196 78.1226 24.3287 77.7135 24.3287 77.2089V70.5043C21.3228 66.6509 19.532 61.8034 19.532 56.5376C19.532 51.2718 21.3228 46.4243 24.3287 42.5709Z" fill="#33332F"/>
<path d="M16.749 70.4938C16.402 71.1001 15.5955 71.2588 15.0837 70.7833C13.4483 69.2634 12.0901 67.3671 11.096 65.2061C9.90434 62.6157 9.27192 59.7236 9.25382 56.7818C9.23572 53.8399 9.83248 50.9375 10.9921 48.3273C11.9601 46.1486 13.2957 44.2286 14.9135 42.6809C15.4178 42.1985 16.2257 42.3456 16.5805 42.9465V42.9465C16.8686 43.4345 16.7519 44.0564 16.3379 44.4435C14.8846 45.8024 13.6871 47.5044 12.8257 49.4431C11.8215 51.7034 11.3048 54.2168 11.3204 56.7644C11.3361 59.3119 11.8838 61.8163 12.9157 64.0594C13.7999 65.9815 15.0166 67.6617 16.4846 68.9953C16.9055 69.3777 17.0315 70.0002 16.749 70.4938V70.4938Z" fill="#252522"/>
<path d="M83.9443 29.6992H85.0864C85.591 29.6992 86 30.1082 86 30.6128V75.8384C86 76.343 85.591 76.7521 85.0864 76.7521H83.9443V29.6992Z" fill="#818188"/>
<path fill-rule="evenodd" clip-rule="evenodd" d="M77.5865 69.6321C78.0037 68.6238 78.2339 67.5185 78.2339 66.3593C78.2339 61.6288 74.3991 57.7939 69.6685 57.7939C64.9379 57.7939 61.103 61.6288 61.103 66.3593C61.103 71.0899 64.9379 74.9248 69.6685 74.9248C71.6857 74.9248 73.5401 74.2275 75.0037 73.0607L76.4202 73.8786C77.4391 74.4668 78.742 74.1177 79.3303 73.0988C79.9186 72.0799 79.5695 70.777 78.5505 70.1887L77.5865 69.6321Z" fill="#D3D3C0"/>
<rect x="33.1636" y="9.76465" width="21.1758" height="10.5879" rx="0.882324" fill="#1B1B19"/>
<rect x="39.5605" y="12.4116" width="8.1615" height="5.29394" rx="0.882324" fill="#BBBBBB"/>
<rect x="39.5605" y="12.4116" width="8.1615" height="5.29394" rx="0.882324" fill="#A4A49D"/>
<g filter="url(#filter0_d_2380_6206)">
<circle cx="43.6968" cy="56.6938" r="15.8272" fill="#F64F46"/>
</g>
<circle cx="43.7474" cy="56.7442" r="13.6226" fill="#DDDDCA" stroke="#ABAE9B" stroke-width="0.0317552"/>
<circle cx="43.697" cy="56.6938" r="11.7081" fill="#1B1B19" stroke="#BBBBBB" stroke-width="0.381063"/>
<circle cx="43.6967" cy="56.6938" r="9.75794" fill="#1B1B19" stroke="#BBBBBB" stroke-width="0.127021"/>
<circle cx="43.6972" cy="56.6938" r="7.56365" fill="url(#paint1_linear_2380_6206)"/>
<circle cx="45.5031" cy="54.8875" r="1.82882" fill="#232323"/>
<circle cx="46.722" cy="53.3974" r="2.50616" fill="#232323" fill-opacity="0.7"/>
<circle cx="42.2293" cy="54.1876" r="3.2964" fill="#232323" fill-opacity="0.56"/>
<circle cx="44.7128" cy="57.484" r="4.65108" fill="#232323" fill-opacity="0.4"/>
<path fill-rule="evenodd" clip-rule="evenodd" d="M30.8384 23.532H31.2382L32.5058 25.2223C32.6784 25.4524 32.9492 25.5878 33.2368 25.5878H54.2507C54.5383 25.5878 54.8091 25.4524 54.9816 25.2223L56.2493 23.532H77.206C79.9182 23.532 82.1169 25.7307 82.1169 28.4429C82.1169 31.1551 79.9182 33.3538 77.206 33.3538H52.1026C49.8226 31.4974 46.9131 30.3844 43.7438 30.3844C40.5744 30.3844 37.6649 31.4974 35.3849 33.3538H30.8383C28.1262 33.3538 25.9275 31.1551 25.9275 28.4429C25.9275 25.7307 28.1262 23.532 30.8384 23.532Z" fill="#33332F"/>
<circle cx="39.6323" cy="28.3287" r="1.14206" fill="#5D5D53"/>
<path d="M58.3621 26.273C58.3621 25.7684 58.7711 25.3593 59.2757 25.3593H72.2952C72.7998 25.3593 73.2089 25.7684 73.2089 26.273V30.8412C73.2089 31.3458 72.7998 31.7549 72.2952 31.7549H59.2757C58.7711 31.7549 58.3621 31.3458 58.3621 30.8412V26.273Z" fill="#918C87"/>
<circle cx="78.0056" cy="28.3287" r="1.59889" fill="#918C87"/>
<defs>
<filter id="filter0_d_2380_6206" x="27.5521" y="40.676" width="32.2896" height="32.2895" filterUnits="userSpaceOnUse" color-interpolation-filters="sRGB">
<feFlood flood-opacity="0" result="BackgroundImageFix"/>
<feColorMatrix in="SourceAlpha" type="matrix" values="0 0 0 0 0 0 0 0 0 0 0 0 0 0 0 0 0 0 127 0" result="hardAlpha"/>
<feOffset dy="0.127021"/>
<feGaussianBlur stdDeviation="0.158776"/>
<feColorMatrix type="matrix" values="0 0 0 0 0 0 0 0 0 0 0 0 0 0 0 0 0 0 0.2 0"/>
<feBlend mode="normal" in2="BackgroundImageFix" result="effect1_dropShadow_2380_6206"/>
<feBlend mode="normal" in="SourceGraphic" in2="effect1_dropShadow_2380_6206" result="shape"/>
</filter>
<linearGradient id="paint0_linear_2380_6206" x1="43.9721" y1="8" x2="43.9721" y2="81.5487" gradientUnits="userSpaceOnUse">
<stop stop-color="#DBDBCB"/>
<stop offset="1" stop-color="#D8D8C7"/>
</linearGradient>
<linearGradient id="paint1_linear_2380_6206" x1="43.7198" y1="64.2574" x2="43.7198" y2="49.1301" gradientUnits="userSpaceOnUse">
<stop/>
<stop offset="1"/>
</linearGradient>
</defs>
</svg>
