<svg width="90" height="90" viewBox="0 0 90 90" fill="none" xmlns="http://www.w3.org/2000/svg">
<rect width="90" height="90" fill="#F6E58D"/>
<rect x="7" y="6" width="78" height="78" rx="4.68" fill="url(#paint0_linear_2380_6206)"/>
<rect x="7" y="30.4629" width="78" height="46.3467" fill="#1B1B19"/>
<g filter="url(#filter0_i_2380_6206)">
<path d="M38.2712 11.2498C38.722 10.0212 39.8916 9.20444 41.2003 9.20444H52.1807C53.9038 9.20444 55.3007 10.6013 55.3007 12.3244V20.9341C55.3007 22.6573 53.9038 24.0541 52.1807 24.0541H38.0413C35.8724 24.0541 34.3652 21.8957 35.1123 19.8595L38.2712 11.2498Z" fill="#BBBBBB"/>
</g>
<g filter="url(#filter1_d_2380_6206)">
<path d="M7 10.68C7 8.09531 9.09531 6 11.68 6L37.3247 6L31.7422 21.3001C31.2929 22.5315 30.1219 23.3507 28.8112 23.3507H7V10.68Z" fill="url(#paint1_linear_2380_6206)"/>
</g>
<rect x="58.4268" y="9.20444" width="23.4469" height="14.8497" rx="3.12" fill="#1B1B19"/>
<g filter="url(#filter2_d_2380_6206)">
<circle cx="45.9612" cy="53.6362" r="27.3938" fill="url(#paint2_linear_2380_6206)"/>
<circle cx="45.9612" cy="53.6362" r="27.3158" stroke="#D3D2D2" stroke-width="0.156"/>
</g>
<circle cx="45.9613" cy="53.6364" r="25.2056" fill="#1B1B19" stroke="#D3D2D2" stroke-width="0.156"/>
<circle cx="45.9606" cy="53.6363" r="19.6582" fill="#1B1B19" stroke="#BBBBBB" stroke-width="1.872"/>
<circle cx="45.9607" cy="53.6363" r="16.687" fill="#1B1B19" stroke="#BBBBBB" stroke-width="0.624"/>
<circle cx="45.9611" cy="53.6363" r="13.0912" fill="url(#paint3_linear_2380_6206)"/>
<circle cx="49.087" cy="50.51" r="3.16533" fill="#232323"/>
<circle cx="51.1973" cy="47.9309" r="4.33768" fill="#232323" fill-opacity="0.7"/>
<circle cx="43.4207" cy="49.2986" r="5.70541" fill="#232323" fill-opacity="0.56"/>
<circle cx="47.7195" cy="55.0039" r="8.0501" fill="#232323" fill-opacity="0.4"/>
<g filter="url(#filter3_d_2380_6206)">
<circle cx="45.9612" cy="53.6362" r="27.3938" fill="url(#paint4_linear_2380_6206)"/>
<circle cx="45.9612" cy="53.6362" r="27.3158" stroke="#D3D2D2" stroke-width="0.156"/>
</g>
<circle cx="45.9613" cy="53.6364" r="25.2056" fill="#1B1B19" stroke="#D3D2D2" stroke-width="0.156"/>
<circle cx="45.9606" cy="53.6363" r="19.6582" fill="#1B1B19" stroke="#BBBBBB" stroke-width="1.872"/>
<circle cx="45.9607" cy="53.6363" r="16.687" fill="#1B1B19" stroke="#BBBBBB" stroke-width="0.624"/>
<circle cx="45.9611" cy="53.6363" r="13.0912" fill="url(#paint5_linear_2380_6206)"/>
<circle cx="49.087" cy="50.51" r="3.16533" fill="#232323"/>
<circle cx="51.1973" cy="47.9309" r="4.33768" fill="#232323" fill-opacity="0.7"/>
<circle cx="43.4207" cy="49.2986" r="5.70541" fill="#232323" fill-opacity="0.56"/>
<circle cx="47.7195" cy="55.0039" r="8.0501" fill="#232323" fill-opacity="0.4"/>
<defs>
<filter id="filter0_i_2380_6206" x="34.9187" y="9.20444" width="20.3821" height="15.1617" filterUnits="userSpaceOnUse" color-interpolation-filters="sRGB">
<feFlood flood-opacity="0" result="BackgroundImageFix"/>
<feBlend mode="normal" in="SourceGraphic" in2="BackgroundImageFix" result="shape"/>
<feColorMatrix in="SourceAlpha" type="matrix" values="0 0 0 0 0 0 0 0 0 0 0 0 0 0 0 0 0 0 127 0" result="hardAlpha"/>
<feOffset dy="0.312"/>
<feGaussianBlur stdDeviation="0.156"/>
<feComposite in2="hardAlpha" operator="arithmetic" k2="-1" k3="1"/>
<feColorMatrix type="matrix" values="0 0 0 0 0 0 0 0 0 0 0 0 0 0 0 0 0 0 0.12 0"/>
<feBlend mode="normal" in2="shape" result="effect1_innerShadow_2380_6206"/>
</filter>
<filter id="filter1_d_2380_6206" x="7" y="6" width="30.9487" height="18.2867" filterUnits="userSpaceOnUse" color-interpolation-filters="sRGB">
<feFlood flood-opacity="0" result="BackgroundImageFix"/>
<feColorMatrix in="SourceAlpha" type="matrix" values="0 0 0 0 0 0 0 0 0 0 0 0 0 0 0 0 0 0 127 0" result="hardAlpha"/>
<feOffset dx="0.312" dy="0.624"/>
<feGaussianBlur stdDeviation="0.156"/>
<feColorMatrix type="matrix" values="0 0 0 0 1 0 0 0 0 1 0 0 0 0 1 0 0 0 0.4 0"/>
<feBlend mode="normal" in2="BackgroundImageFix" result="effect1_dropShadow_2380_6206"/>
<feBlend mode="normal" in="SourceGraphic" in2="effect1_dropShadow_2380_6206" result="shape"/>
</filter>
<filter id="filter2_d_2380_6206" x="17.0074" y="25.3065" width="57.9076" height="57.9076" filterUnits="userSpaceOnUse" color-interpolation-filters="sRGB">
<feFlood flood-opacity="0" result="BackgroundImageFix"/>
<feColorMatrix in="SourceAlpha" type="matrix" values="0 0 0 0 0 0 0 0 0 0 0 0 0 0 0 0 0 0 127 0" result="hardAlpha"/>
<feOffset dy="0.624"/>
<feGaussianBlur stdDeviation="0.78"/>
<feColorMatrix type="matrix" values="0 0 0 0 0 0 0 0 0 0 0 0 0 0 0 0 0 0 0.2 0"/>
<feBlend mode="normal" in2="BackgroundImageFix" result="effect1_dropShadow_2380_6206"/>
<feBlend mode="normal" in="SourceGraphic" in2="effect1_dropShadow_2380_6206" result="shape"/>
</filter>
<filter id="filter3_d_2380_6206" x="17.0074" y="25.3065" width="57.9076" height="57.9076" filterUnits="userSpaceOnUse" color-interpolation-filters="sRGB">
<feFlood flood-opacity="0" result="BackgroundImageFix"/>
<feColorMatrix in="SourceAlpha" type="matrix" values="0 0 0 0 0 0 0 0 0 0 0 0 0 0 0 0 0 0 127 0" result="hardAlpha"/>
<feOffset dy="0.624"/>
<feGaussianBlur stdDeviation="0.78"/>
<feColorMatrix type="matrix" values="0 0 0 0 0 0 0 0 0 0 0 0 0 0 0 0 0 0 0.2 0"/>
<feBlend mode="normal" in2="BackgroundImageFix" result="effect1_dropShadow_2380_6206"/>
<feBlend mode="normal" in="SourceGraphic" in2="effect1_dropShadow_2380_6206" result="shape"/>
</filter>
<linearGradient id="paint0_linear_2380_6206" x1="7.9047" y1="7.6022" x2="99.908" y2="43.7201" gradientUnits="userSpaceOnUse">
<stop stop-color="#C1C1C1"/>
<stop offset="1" stop-color="#D3D3D3"/>
</linearGradient>
<linearGradient id="paint1_linear_2380_6206" x1="9.63305" y1="6" x2="36.5557" y2="12.2563" gradientUnits="userSpaceOnUse">
<stop stop-color="#B0B0B0"/>
<stop offset="1" stop-color="#C0C0C0"/>
</linearGradient>
<linearGradient id="paint2_linear_2380_6206" x1="45.9612" y1="26.2425" x2="45.9612" y2="81.03" gradientUnits="userSpaceOnUse">
<stop stop-color="#EAEAEA"/>
<stop offset="1" stop-color="#B6B6B6"/>
</linearGradient>
<linearGradient id="paint3_linear_2380_6206" x1="46.0001" y1="66.7274" x2="46.0001" y2="40.5451" gradientUnits="userSpaceOnUse">
<stop/>
<stop offset="1"/>
</linearGradient>
<linearGradient id="paint4_linear_2380_6206" x1="45.9612" y1="26.2425" x2="45.9612" y2="81.03" gradientUnits="userSpaceOnUse">
<stop stop-color="#EAEAEA"/>
<stop offset="1" stop-color="#B6B6B6"/>
</linearGradient>
<linearGradient id="paint5_linear_2380_6206" x1="46.0001" y1="66.7274" x2="46.0001" y2="40.5451" gradientUnits="userSpaceOnUse">
<stop/>
<stop offset="1"/>
</linearGradient>
</defs>
</svg>
