<svg width="90" height="90" viewBox="0 0 90 90" fill="none" xmlns="http://www.w3.org/2000/svg">
<rect width="90" height="90" fill="#FFBE76"/>
<rect x="7" y="6" width="78" height="78" rx="4.68" fill="url(#paint0_linear_2380_6086)"/>
<rect x="7" y="30.4629" width="78" height="46.3467" fill="#1B1B19"/>
<g filter="url(#filter0_d_2380_6086)">
<rect x="11.6895" y="35.1523" width="5.93988" height="5.93988" rx="2.96994" fill="#C4C4C4"/>
</g>
<g filter="url(#filter1_i_2380_6086)">
<path d="M38.2712 11.2498C38.722 10.0212 39.8916 9.20444 41.2003 9.20444H52.1807C53.9038 9.20444 55.3007 10.6013 55.3007 12.3244V20.9341C55.3007 22.6573 53.9038 24.0541 52.1807 24.0541H38.0413C35.8724 24.0541 34.3652 21.8957 35.1123 19.8595L38.2712 11.2498Z" fill="#BBBBBB"/>
</g>
<g filter="url(#filter2_d_2380_6086)">
<path d="M7 10.68C7 8.09531 9.09531 6 11.68 6L37.3247 6L31.7422 21.3001C31.2929 22.5315 30.1219 23.3507 28.8112 23.3507H7V10.68Z" fill="url(#paint1_linear_2380_6086)"/>
</g>
<rect x="58.4268" y="9.20444" width="23.4469" height="14.8497" rx="3.12" fill="#1B1B19"/>
<g filter="url(#filter3_d_2380_6086)">
<circle cx="45.9612" cy="53.6362" r="27.3938" fill="url(#paint2_linear_2380_6086)"/>
<circle cx="45.9612" cy="53.6362" r="27.3158" stroke="#D3D2D2" stroke-width="0.156"/>
</g>
<circle cx="45.9613" cy="53.6364" r="25.2056" fill="#1B1B19" stroke="#D3D2D2" stroke-width="0.156"/>
<circle cx="45.9606" cy="53.6363" r="19.6582" fill="#1B1B19" stroke="#BBBBBB" stroke-width="1.872"/>
<circle cx="45.9607" cy="53.6363" r="16.687" fill="#1B1B19" stroke="#BBBBBB" stroke-width="0.624"/>
<circle cx="45.9611" cy="53.6363" r="13.0912" fill="url(#paint3_linear_2380_6086)"/>
<circle cx="49.087" cy="50.51" r="3.16533" fill="#232323"/>
<circle cx="51.1973" cy="47.9309" r="4.33768" fill="#232323" fill-opacity="0.7"/>
<circle cx="43.4207" cy="49.2986" r="5.70541" fill="#232323" fill-opacity="0.56"/>
<circle cx="47.7195" cy="55.0039" r="8.0501" fill="#232323" fill-opacity="0.4"/>
<g filter="url(#filter4_d_2380_6086)">
<circle cx="45.9612" cy="53.6362" r="27.3938" fill="url(#paint4_linear_2380_6086)"/>
<circle cx="45.9612" cy="53.6362" r="27.3158" stroke="#D3D2D2" stroke-width="0.156"/>
</g>
<circle cx="45.9613" cy="53.6364" r="25.2056" fill="#1B1B19" stroke="#D3D2D2" stroke-width="0.156"/>
<circle cx="45.9606" cy="53.6363" r="19.6582" fill="#1B1B19" stroke="#BBBBBB" stroke-width="1.872"/>
<circle cx="45.9607" cy="53.6363" r="16.687" fill="#1B1B19" stroke="#BBBBBB" stroke-width="0.624"/>
<circle cx="45.9611" cy="53.6363" r="13.0912" fill="url(#paint5_linear_2380_6086)"/>
<circle cx="49.087" cy="50.51" r="3.16533" fill="#232323"/>
<circle cx="51.1973" cy="47.9309" r="4.33768" fill="#232323" fill-opacity="0.7"/>
<circle cx="43.4207" cy="49.2986" r="5.70541" fill="#232323" fill-opacity="0.56"/>
<circle cx="47.7195" cy="55.0039" r="8.0501" fill="#232323" fill-opacity="0.4"/>
<path d="M14.3612 16.1096C13.4891 16.1096 12.7823 15.4018 12.7823 14.5287C12.7823 13.6556 13.4891 12.9485 14.3612 12.9485C14.6686 12.9485 14.9556 13.0362 15.198 13.1883L14.3612 14.5287L15.9366 13.6183C15.7655 13.3453 15.52 13.1101 15.2231 12.9316C14.8454 12.7053 14.32 12.5652 13.7389 12.5652C12.9101 12.5652 12.183 12.8666 11.7775 13.3181C11.4773 13.6518 11.2986 14.0718 11.2986 14.5287C11.2986 14.9859 11.4773 15.4062 11.7775 15.7402C12.1841 16.1922 12.9004 16.4919 13.7155 16.4919C14.5305 16.4919 15.2466 16.192 15.6534 15.7402C15.6757 15.7153 15.6972 15.6902 15.7176 15.6642L15.6562 15.4337C15.3704 15.8421 14.897 16.1096 14.3612 16.1096" fill="#17171C"/>
<path d="M19.6868 16.5022L19.0256 14.0334C18.9194 13.6344 18.5564 13.3412 18.1243 13.3412C18.0122 13.3412 17.9049 13.3612 17.8052 13.3975L16.3817 13.9156H17.8458L18.0959 14.8508C17.8533 14.6417 17.5372 14.5145 17.1911 14.5145C16.5039 14.5145 15.9475 14.9754 15.9475 15.544C15.9475 16.1127 16.5039 16.5743 17.1911 16.5743C17.6859 16.5743 18.1234 16.3319 18.3933 15.9594L18.5384 16.5022H19.6868V16.5022ZM17.6699 16.1188C17.3529 16.1188 17.0959 15.8618 17.0959 15.544C17.0959 15.2267 17.3529 14.9695 17.6699 14.9695C17.9869 14.9695 18.2441 15.2267 18.2441 15.544C18.2441 15.8618 17.9869 16.1188 17.6699 16.1188Z" fill="#17171C"/>
<path d="M22.2806 13.2361C22.1939 13.2361 22.1118 13.2553 22.0386 13.2897L21.1247 13.716C21.0794 13.4437 20.8431 13.2361 20.558 13.2361C20.4717 13.2361 20.3894 13.2553 20.3153 13.2897L19.1995 13.8101H19.984V16.3968H21.1324V14.0979C21.1324 13.9392 21.2607 13.8101 21.4196 13.8101C21.5777 13.8101 21.7069 13.9392 21.7069 14.0979V16.3968H22.8548V13.8101C22.8548 13.4929 22.5976 13.2361 22.2806 13.2361" fill="#17171C"/>
<path d="M26.5863 14.864C26.5863 15.7631 25.8582 16.4918 24.9602 16.4918C24.0615 16.4918 23.333 15.7631 23.333 14.864C23.333 13.9652 24.0615 13.2361 24.9602 13.2361C25.8582 13.2361 26.5863 13.9652 26.5863 14.864V14.864ZM25.0275 13.7302C24.9764 13.5386 24.7797 13.4249 24.5884 13.4764C24.3973 13.5277 24.2831 13.7247 24.3344 13.9162L24.8922 15.9978C24.9438 16.1895 25.1401 16.3031 25.3314 16.2524C25.5227 16.2006 25.6364 16.0037 25.5851 15.8122L25.0275 13.7302V13.7302Z" fill="#17171C"/>
<path d="M29.4823 13.2361C29.3953 13.2361 29.3127 13.2553 29.2384 13.2897L28.3254 13.716C28.2804 13.4437 28.044 13.2361 27.7589 13.2361C27.6726 13.2361 27.5903 13.2553 27.516 13.2897L26.4006 13.8101H27.1849V16.3968H28.3331V14.0979C28.3331 13.9392 28.4616 13.8101 28.6206 13.8101C28.7791 13.8101 28.9073 13.9392 28.9073 14.0979V16.3968H30.0562V13.8101C30.0562 13.4929 29.7988 13.2361 29.4823 13.2361" fill="#17171C"/>
<defs>
<filter id="filter0_d_2380_6086" x="11.0655" y="35.1523" width="7.18794" height="7.18788" filterUnits="userSpaceOnUse" color-interpolation-filters="sRGB">
<feFlood flood-opacity="0" result="BackgroundImageFix"/>
<feColorMatrix in="SourceAlpha" type="matrix" values="0 0 0 0 0 0 0 0 0 0 0 0 0 0 0 0 0 0 127 0" result="hardAlpha"/>
<feOffset dy="0.624"/>
<feGaussianBlur stdDeviation="0.312"/>
<feColorMatrix type="matrix" values="0 0 0 0 0 0 0 0 0 0 0 0 0 0 0 0 0 0 1 0"/>
<feBlend mode="normal" in2="BackgroundImageFix" result="effect1_dropShadow_2380_6086"/>
<feBlend mode="normal" in="SourceGraphic" in2="effect1_dropShadow_2380_6086" result="shape"/>
</filter>
<filter id="filter1_i_2380_6086" x="34.9187" y="9.20444" width="20.3821" height="15.1617" filterUnits="userSpaceOnUse" color-interpolation-filters="sRGB">
<feFlood flood-opacity="0" result="BackgroundImageFix"/>
<feBlend mode="normal" in="SourceGraphic" in2="BackgroundImageFix" result="shape"/>
<feColorMatrix in="SourceAlpha" type="matrix" values="0 0 0 0 0 0 0 0 0 0 0 0 0 0 0 0 0 0 127 0" result="hardAlpha"/>
<feOffset dy="0.312"/>
<feGaussianBlur stdDeviation="0.156"/>
<feComposite in2="hardAlpha" operator="arithmetic" k2="-1" k3="1"/>
<feColorMatrix type="matrix" values="0 0 0 0 0 0 0 0 0 0 0 0 0 0 0 0 0 0 0.12 0"/>
<feBlend mode="normal" in2="shape" result="effect1_innerShadow_2380_6086"/>
</filter>
<filter id="filter2_d_2380_6086" x="7" y="6" width="30.9487" height="18.2867" filterUnits="userSpaceOnUse" color-interpolation-filters="sRGB">
<feFlood flood-opacity="0" result="BackgroundImageFix"/>
<feColorMatrix in="SourceAlpha" type="matrix" values="0 0 0 0 0 0 0 0 0 0 0 0 0 0 0 0 0 0 127 0" result="hardAlpha"/>
<feOffset dx="0.312" dy="0.624"/>
<feGaussianBlur stdDeviation="0.156"/>
<feColorMatrix type="matrix" values="0 0 0 0 1 0 0 0 0 1 0 0 0 0 1 0 0 0 0.4 0"/>
<feBlend mode="normal" in2="BackgroundImageFix" result="effect1_dropShadow_2380_6086"/>
<feBlend mode="normal" in="SourceGraphic" in2="effect1_dropShadow_2380_6086" result="shape"/>
</filter>
<filter id="filter3_d_2380_6086" x="17.0074" y="25.3065" width="57.9076" height="57.9076" filterUnits="userSpaceOnUse" color-interpolation-filters="sRGB">
<feFlood flood-opacity="0" result="BackgroundImageFix"/>
<feColorMatrix in="SourceAlpha" type="matrix" values="0 0 0 0 0 0 0 0 0 0 0 0 0 0 0 0 0 0 127 0" result="hardAlpha"/>
<feOffset dy="0.624"/>
<feGaussianBlur stdDeviation="0.78"/>
<feColorMatrix type="matrix" values="0 0 0 0 0 0 0 0 0 0 0 0 0 0 0 0 0 0 0.2 0"/>
<feBlend mode="normal" in2="BackgroundImageFix" result="effect1_dropShadow_2380_6086"/>
<feBlend mode="normal" in="SourceGraphic" in2="effect1_dropShadow_2380_6086" result="shape"/>
</filter>
<filter id="filter4_d_2380_6086" x="17.0074" y="25.3065" width="57.9076" height="57.9076" filterUnits="userSpaceOnUse" color-interpolation-filters="sRGB">
<feFlood flood-opacity="0" result="BackgroundImageFix"/>
<feColorMatrix in="SourceAlpha" type="matrix" values="0 0 0 0 0 0 0 0 0 0 0 0 0 0 0 0 0 0 127 0" result="hardAlpha"/>
<feOffset dy="0.624"/>
<feGaussianBlur stdDeviation="0.78"/>
<feColorMatrix type="matrix" values="0 0 0 0 0 0 0 0 0 0 0 0 0 0 0 0 0 0 0.2 0"/>
<feBlend mode="normal" in2="BackgroundImageFix" result="effect1_dropShadow_2380_6086"/>
<feBlend mode="normal" in="SourceGraphic" in2="effect1_dropShadow_2380_6086" result="shape"/>
</filter>
<linearGradient id="paint0_linear_2380_6086" x1="7.9047" y1="7.6022" x2="99.908" y2="43.7201" gradientUnits="userSpaceOnUse">
<stop stop-color="#C1C1C1"/>
<stop offset="1" stop-color="#D3D3D3"/>
</linearGradient>
<linearGradient id="paint1_linear_2380_6086" x1="9.63305" y1="6" x2="36.5557" y2="12.2563" gradientUnits="userSpaceOnUse">
<stop stop-color="#B0B0B0"/>
<stop offset="1" stop-color="#C0C0C0"/>
</linearGradient>
<linearGradient id="paint2_linear_2380_6086" x1="45.9612" y1="26.2425" x2="45.9612" y2="81.03" gradientUnits="userSpaceOnUse">
<stop stop-color="#EAEAEA"/>
<stop offset="1" stop-color="#B6B6B6"/>
</linearGradient>
<linearGradient id="paint3_linear_2380_6086" x1="46.0001" y1="66.7274" x2="46.0001" y2="40.5451" gradientUnits="userSpaceOnUse">
<stop/>
<stop offset="1"/>
</linearGradient>
<linearGradient id="paint4_linear_2380_6086" x1="45.9612" y1="26.2425" x2="45.9612" y2="81.03" gradientUnits="userSpaceOnUse">
<stop stop-color="#EAEAEA"/>
<stop offset="1" stop-color="#B6B6B6"/>
</linearGradient>
<linearGradient id="paint5_linear_2380_6086" x1="46.0001" y1="66.7274" x2="46.0001" y2="40.5451" gradientUnits="userSpaceOnUse">
<stop/>
<stop offset="1"/>
</linearGradient>
</defs>
</svg>
