<svg width="90" height="90" viewBox="0 0 90 90" fill="none" xmlns="http://www.w3.org/2000/svg">
<rect width="90" height="90" fill="#FF6B6B"/>
<g filter="url(#filter0_d_2380_6171)">
<path d="M7 16.7903C7 14.2183 9.08499 12.1333 11.657 12.1333H79.959C82.531 12.1333 84.616 14.2183 84.616 16.7903V79.343C84.616 81.915 82.531 84 79.959 84H11.657C9.08499 84 7 81.915 7 79.343V16.7903Z" fill="url(#paint0_linear_2380_6171)"/>
</g>
<g filter="url(#filter1_d_2380_6171)">
<rect x="7" y="16.4453" width="77.616" height="14.3733" fill="url(#paint1_linear_2380_6171)"/>
</g>
<rect x="7" y="30.8187" width="77.616" height="45.9947" fill="#1B1B19"/>
<g filter="url(#filter2_d_2380_6171)">
<rect x="14.5972" y="68.1893" width="5.91064" height="5.91064" rx="2.95532" fill="#C4C4C4"/>
</g>
<g filter="url(#filter3_d_2380_6171)">
<circle cx="45.7694" cy="53.7858" r="27.2589" fill="url(#paint2_linear_2380_6171)"/>
<circle cx="45.7694" cy="53.7858" r="27.1813" stroke="#D3D2D2" stroke-width="0.155232"/>
</g>
<circle cx="45.8078" cy="53.816" r="26.4104" fill="#1B1B19" stroke="#D3D2D2" stroke-width="0.155232"/>
<circle cx="45.7693" cy="53.7858" r="16.6048" fill="#1B1B19" stroke="#BBBBBB" stroke-width="0.620928"/>
<circle cx="45.8079" cy="53.816" r="13.6522" fill="#1B1B19" stroke="#BBBBBB" stroke-width="0.620928"/>
<circle cx="45.7697" cy="53.7857" r="13.0267" fill="url(#paint3_linear_2380_6171)"/>
<circle cx="48.88" cy="50.6749" r="3.14975" fill="#232323"/>
<circle cx="50.9794" cy="48.1085" r="4.31632" fill="#232323" fill-opacity="0.7"/>
<circle cx="43.2415" cy="49.4695" r="5.67732" fill="#232323" fill-opacity="0.56"/>
<circle cx="45.8105" cy="53.8185" r="8.01047" fill="#232323" fill-opacity="0.4"/>
<g filter="url(#filter4_i_2380_6171)">
<rect x="19.936" y="55.2003" width="2.05333" height="4.312" rx="0.951341" transform="rotate(-90 19.936 55.2003)" fill="#1B1B19"/>
<rect x="19.9761" y="51.9419" width="2.05333" height="4.312" rx="0.951341" transform="rotate(-82.8 19.9761 51.9419)" fill="#1B1B19"/>
<rect x="20.4246" y="48.7142" width="2.05333" height="4.312" rx="0.951341" transform="rotate(-75.6 20.4246 48.7142)" fill="#1B1B19"/>
<rect x="21.2739" y="45.5681" width="2.05333" height="4.312" rx="0.951341" transform="rotate(-68.4 21.2739 45.5681)" fill="#1B1B19"/>
<rect x="22.5107" y="42.5533" width="2.05333" height="4.312" rx="0.951341" transform="rotate(-61.2 22.5107 42.5533)" fill="#1B1B19"/>
<rect x="24.1157" y="39.7173" width="2.05333" height="4.312" rx="0.951341" transform="rotate(-54 24.1157 39.7173)" fill="#1B1B19"/>
<rect x="26.0635" y="37.1049" width="2.05333" height="4.312" rx="0.951341" transform="rotate(-46.8 26.0635 37.1049)" fill="#1B1B19"/>
<rect x="28.3232" y="34.7571" width="2.05333" height="4.312" rx="0.951341" transform="rotate(-39.6 28.3232 34.7571)" fill="#1B1B19"/>
<rect x="30.8596" y="32.7111" width="2.05333" height="4.312" rx="0.951341" transform="rotate(-32.4 30.8596 32.7111)" fill="#1B1B19"/>
<rect x="33.6326" y="30.9991" width="2.05333" height="4.312" rx="0.951341" transform="rotate(-25.2 33.6326 30.9991)" fill="#1B1B19"/>
<rect x="36.5981" y="29.6482" width="2.05333" height="4.312" rx="0.951341" transform="rotate(-18 36.5981 29.6482)" fill="#1B1B19"/>
<rect x="39.7092" y="28.6795" width="2.05333" height="4.312" rx="0.951341" transform="rotate(-10.8 39.7092 28.6795)" fill="#1B1B19"/>
<rect x="42.9177" y="28.1085" width="2.05333" height="4.312" rx="0.951341" transform="rotate(-3.6 42.9177 28.1085)" fill="#1B1B19"/>
<rect x="46.1721" y="27.944" width="2.05333" height="4.312" rx="0.951341" transform="rotate(3.6 46.1721 27.944)" fill="#1B1B19"/>
<rect x="49.4216" y="28.1888" width="2.05333" height="4.312" rx="0.951341" transform="rotate(10.8 49.4216 28.1888)" fill="#1B1B19"/>
<rect x="52.6147" y="28.8389" width="2.05333" height="4.312" rx="0.951341" transform="rotate(18 52.6147 28.8389)" fill="#1B1B19"/>
<rect x="55.7012" y="29.8841" width="2.05333" height="4.312" rx="0.951341" transform="rotate(25.2 55.7012 29.8841)" fill="#1B1B19"/>
<rect x="58.6326" y="31.3078" width="2.05333" height="4.312" rx="0.951341" transform="rotate(32.4 58.6326 31.3078)" fill="#1B1B19"/>
<rect x="61.3621" y="33.0877" width="2.05333" height="4.312" rx="0.951341" transform="rotate(39.6 61.3621 33.0877)" fill="#1B1B19"/>
<rect x="63.8472" y="35.1957" width="2.05333" height="4.312" rx="0.951341" transform="rotate(46.8 63.8472 35.1957)" fill="#1B1B19"/>
<rect x="66.0483" y="37.5985" width="2.05333" height="4.312" rx="0.951341" transform="rotate(54 66.0483 37.5985)" fill="#1B1B19"/>
<rect x="67.9309" y="40.2583" width="2.05333" height="4.312" rx="0.951341" transform="rotate(61.2 67.9309 40.2583)" fill="#1B1B19"/>
<rect x="69.4656" y="43.1331" width="2.05333" height="4.312" rx="0.951341" transform="rotate(68.4 69.4656 43.1331)" fill="#1B1B19"/>
<rect x="70.6274" y="46.1775" width="2.05333" height="4.312" rx="0.951341" transform="rotate(75.6 70.6274 46.1775)" fill="#1B1B19"/>
<rect x="71.3989" y="49.3435" width="2.05333" height="4.312" rx="0.951341" transform="rotate(82.8 71.3989 49.3435)" fill="#1B1B19"/>
<rect x="71.7676" y="52.5813" width="2.05333" height="4.312" rx="0.951341" transform="rotate(90 71.7676 52.5813)" fill="#1B1B19"/>
<rect x="71.7273" y="55.8398" width="2.05333" height="4.312" rx="0.951341" transform="rotate(97.2 71.7273 55.8398)" fill="#1B1B19"/>
<rect x="71.2788" y="59.0674" width="2.05333" height="4.312" rx="0.951341" transform="rotate(104.4 71.2788 59.0674)" fill="#1B1B19"/>
<rect x="70.4297" y="62.2135" width="2.05333" height="4.312" rx="0.951341" transform="rotate(111.6 70.4297 62.2135)" fill="#1B1B19"/>
<rect x="69.1929" y="65.2283" width="2.05333" height="4.312" rx="0.951341" transform="rotate(118.8 69.1929 65.2283)" fill="#1B1B19"/>
<rect x="67.5876" y="68.0643" width="2.05333" height="4.312" rx="0.951341" transform="rotate(126 67.5876 68.0643)" fill="#1B1B19"/>
<rect x="65.6399" y="70.6768" width="2.05333" height="4.312" rx="0.951341" transform="rotate(133.2 65.6399 70.6768)" fill="#1B1B19"/>
<rect x="63.3799" y="73.0245" width="2.05333" height="4.312" rx="0.951341" transform="rotate(140.4 63.3799 73.0245)" fill="#1B1B19"/>
<rect x="60.8438" y="75.0706" width="2.05333" height="4.312" rx="0.951341" transform="rotate(147.6 60.8438 75.0706)" fill="#1B1B19"/>
<rect x="58.071" y="76.7825" width="2.05333" height="4.312" rx="0.951341" transform="rotate(154.8 58.071 76.7825)" fill="#1B1B19"/>
<rect x="55.1055" y="78.1335" width="2.05333" height="4.312" rx="0.951341" transform="rotate(162 55.1055 78.1335)" fill="#1B1B19"/>
<rect x="51.9941" y="79.1022" width="2.05333" height="4.312" rx="0.951341" transform="rotate(169.2 51.9941 79.1022)" fill="#1B1B19"/>
<rect x="48.7859" y="79.6732" width="2.05333" height="4.312" rx="0.951341" transform="rotate(176.4 48.7859 79.6732)" fill="#1B1B19"/>
<rect x="45.5312" y="79.8376" width="2.05333" height="4.312" rx="0.951341" transform="rotate(-176.4 45.5312 79.8376)" fill="#1B1B19"/>
<rect x="42.282" y="79.5929" width="2.05333" height="4.312" rx="0.951341" transform="rotate(-169.2 42.282 79.5929)" fill="#1B1B19"/>
<rect x="39.0889" y="78.9428" width="2.05333" height="4.312" rx="0.951341" transform="rotate(-162 39.0889 78.9428)" fill="#1B1B19"/>
<rect x="36.002" y="77.8976" width="2.05333" height="4.312" rx="0.951341" transform="rotate(-154.8 36.002 77.8976)" fill="#1B1B19"/>
<rect x="33.071" y="76.4739" width="2.05333" height="4.312" rx="0.951341" transform="rotate(-147.6 33.071 76.4739)" fill="#1B1B19"/>
<rect x="30.3413" y="74.694" width="2.05333" height="4.312" rx="0.951341" transform="rotate(-140.4 30.3413 74.694)" fill="#1B1B19"/>
<rect x="27.8562" y="72.5859" width="2.05333" height="4.312" rx="0.951341" transform="rotate(-133.2 27.8562 72.5859)" fill="#1B1B19"/>
<rect x="25.6553" y="70.1831" width="2.05333" height="4.312" rx="0.951341" transform="rotate(-126 25.6553 70.1831)" fill="#1B1B19"/>
<rect x="23.7727" y="67.5233" width="2.05333" height="4.312" rx="0.951341" transform="rotate(-118.8 23.7727 67.5233)" fill="#1B1B19"/>
<rect x="22.238" y="64.6486" width="2.05333" height="4.312" rx="0.951341" transform="rotate(-111.6 22.238 64.6486)" fill="#1B1B19"/>
<rect x="21.0759" y="61.6042" width="2.05333" height="4.312" rx="0.951341" transform="rotate(-104.4 21.0759 61.6042)" fill="#1B1B19"/>
<rect x="20.3047" y="58.4381" width="2.05333" height="4.312" rx="0.951341" transform="rotate(-97.2 20.3047 58.4381)" fill="#1B1B19"/>
</g>
<g filter="url(#filter5_i_2380_6171)">
<rect x="24.4534" y="54.869" width="1.90208" height="3.85553" rx="0.951041" transform="rotate(-90 24.4534 54.869)" fill="#1B1B19"/>
<rect x="24.4863" y="52.1902" width="1.90208" height="3.85553" rx="0.951041" transform="rotate(-82.8 24.4863 52.1902)" fill="#1B1B19"/>
<rect x="24.855" y="49.5367" width="1.90208" height="3.85553" rx="0.951041" transform="rotate(-75.6 24.855 49.5367)" fill="#1B1B19"/>
<rect x="25.553" y="46.9503" width="1.90208" height="3.85553" rx="0.951041" transform="rotate(-68.4 25.553 46.9503)" fill="#1B1B19"/>
<rect x="26.5701" y="44.4718" width="1.90208" height="3.85553" rx="0.951041" transform="rotate(-61.2 26.5701 44.4718)" fill="#1B1B19"/>
<rect x="27.8894" y="42.1403" width="1.90208" height="3.85553" rx="0.951041" transform="rotate(-54 27.8894 42.1403)" fill="#1B1B19"/>
<rect x="29.4907" y="39.9926" width="1.90208" height="3.85553" rx="0.951041" transform="rotate(-46.8 29.4907 39.9926)" fill="#1B1B19"/>
<rect x="31.3486" y="38.0624" width="1.90208" height="3.85553" rx="0.951041" transform="rotate(-39.6 31.3486 38.0624)" fill="#1B1B19"/>
<rect x="33.4338" y="36.3804" width="1.90208" height="3.85553" rx="0.951041" transform="rotate(-32.4 33.4338 36.3804)" fill="#1B1B19"/>
<rect x="35.7131" y="34.973" width="1.90208" height="3.85553" rx="0.951041" transform="rotate(-25.2 35.7131 34.973)" fill="#1B1B19"/>
<rect x="38.1514" y="33.8623" width="1.90208" height="3.85553" rx="0.951041" transform="rotate(-18 38.1514 33.8623)" fill="#1B1B19"/>
<rect x="40.7092" y="33.066" width="1.90208" height="3.85553" rx="0.951041" transform="rotate(-10.8 40.7092 33.066)" fill="#1B1B19"/>
<rect x="43.3467" y="32.5965" width="1.90208" height="3.85553" rx="0.951041" transform="rotate(-3.6 43.3467 32.5965)" fill="#1B1B19"/>
<rect x="46.0225" y="32.4613" width="1.90208" height="3.85553" rx="0.951041" transform="rotate(3.6 46.0225 32.4613)" fill="#1B1B19"/>
<rect x="48.6938" y="32.6626" width="1.90208" height="3.85553" rx="0.951041" transform="rotate(10.8 48.6938 32.6626)" fill="#1B1B19"/>
<rect x="51.3188" y="33.197" width="1.90208" height="3.85553" rx="0.951041" transform="rotate(18 51.3188 33.197)" fill="#1B1B19"/>
<rect x="53.8562" y="34.0562" width="1.90208" height="3.85553" rx="0.951041" transform="rotate(25.2 53.8562 34.0562)" fill="#1B1B19"/>
<rect x="56.2659" y="35.2267" width="1.90208" height="3.85553" rx="0.951041" transform="rotate(32.4 56.2659 35.2267)" fill="#1B1B19"/>
<rect x="58.51" y="36.69" width="1.90208" height="3.85553" rx="0.951041" transform="rotate(39.6 58.51 36.69)" fill="#1B1B19"/>
<rect x="60.553" y="38.423" width="1.90208" height="3.85553" rx="0.951041" transform="rotate(46.8 60.553 38.423)" fill="#1B1B19"/>
<rect x="62.3628" y="40.3984" width="1.90208" height="3.85553" rx="0.951041" transform="rotate(54 62.3628 40.3984)" fill="#1B1B19"/>
<rect x="63.9102" y="42.585" width="1.90208" height="3.85553" rx="0.951041" transform="rotate(61.2 63.9102 42.585)" fill="#1B1B19"/>
<rect x="65.1721" y="44.9484" width="1.90208" height="3.85553" rx="0.951041" transform="rotate(68.4 65.1721 44.9484)" fill="#1B1B19"/>
<rect x="66.1272" y="47.4512" width="1.90208" height="3.85553" rx="0.951041" transform="rotate(75.6 66.1272 47.4512)" fill="#1B1B19"/>
<rect x="66.7615" y="50.0541" width="1.90208" height="3.85553" rx="0.951041" transform="rotate(82.8 66.7615 50.0541)" fill="#1B1B19"/>
<rect x="67.0645" y="52.7159" width="1.90208" height="3.85553" rx="0.951041" transform="rotate(90 67.0645 52.7159)" fill="#1B1B19"/>
<rect x="67.0315" y="55.3947" width="1.90208" height="3.85553" rx="0.951041" transform="rotate(97.2 67.0315 55.3947)" fill="#1B1B19"/>
<rect x="66.6628" y="58.0482" width="1.90208" height="3.85553" rx="0.951041" transform="rotate(104.4 66.6628 58.0482)" fill="#1B1B19"/>
<rect x="65.9646" y="60.6346" width="1.90208" height="3.85553" rx="0.951041" transform="rotate(111.6 65.9646 60.6346)" fill="#1B1B19"/>
<rect x="64.9475" y="63.113" width="1.90208" height="3.85553" rx="0.951041" transform="rotate(118.8 64.9475 63.113)" fill="#1B1B19"/>
<rect x="63.6284" y="65.4446" width="1.90208" height="3.85553" rx="0.951041" transform="rotate(126 63.6284 65.4446)" fill="#1B1B19"/>
<rect x="62.0269" y="67.5923" width="1.90208" height="3.85553" rx="0.951041" transform="rotate(133.2 62.0269 67.5923)" fill="#1B1B19"/>
<rect x="60.1689" y="69.5225" width="1.90208" height="3.85553" rx="0.951041" transform="rotate(140.4 60.1689 69.5225)" fill="#1B1B19"/>
<rect x="58.084" y="71.2045" width="1.90208" height="3.85553" rx="0.951041" transform="rotate(147.6 58.084 71.2045)" fill="#1B1B19"/>
<rect x="55.8047" y="72.6119" width="1.90208" height="3.85553" rx="0.951041" transform="rotate(154.8 55.8047 72.6119)" fill="#1B1B19"/>
<rect x="53.3665" y="73.7226" width="1.90208" height="3.85553" rx="0.951041" transform="rotate(162 53.3665 73.7226)" fill="#1B1B19"/>
<rect x="50.8086" y="74.519" width="1.90208" height="3.85553" rx="0.951041" transform="rotate(169.2 50.8086 74.519)" fill="#1B1B19"/>
<rect x="48.1711" y="74.9884" width="1.90208" height="3.85553" rx="0.951041" transform="rotate(176.4 48.1711 74.9884)" fill="#1B1B19"/>
<rect x="45.4954" y="75.1235" width="1.90208" height="3.85553" rx="0.951041" transform="rotate(-176.4 45.4954 75.1235)" fill="#1B1B19"/>
<rect x="42.824" y="74.9223" width="1.90208" height="3.85553" rx="0.951041" transform="rotate(-169.2 42.824 74.9223)" fill="#1B1B19"/>
<rect x="40.199" y="74.3879" width="1.90208" height="3.85553" rx="0.951041" transform="rotate(-162 40.199 74.3879)" fill="#1B1B19"/>
<rect x="37.6616" y="73.5287" width="1.90208" height="3.85553" rx="0.951041" transform="rotate(-154.8 37.6616 73.5287)" fill="#1B1B19"/>
<rect x="35.252" y="72.3582" width="1.90208" height="3.85553" rx="0.951041" transform="rotate(-147.6 35.252 72.3582)" fill="#1B1B19"/>
<rect x="33.0078" y="70.8949" width="1.90208" height="3.85553" rx="0.951041" transform="rotate(-140.4 33.0078 70.8949)" fill="#1B1B19"/>
<rect x="30.9648" y="69.1618" width="1.90208" height="3.85553" rx="0.951041" transform="rotate(-133.2 30.9648 69.1618)" fill="#1B1B19"/>
<rect x="29.155" y="67.1865" width="1.90208" height="3.85553" rx="0.951041" transform="rotate(-126 29.155 67.1865)" fill="#1B1B19"/>
<rect x="27.6072" y="64.9999" width="1.90208" height="3.85553" rx="0.951041" transform="rotate(-118.8 27.6072 64.9999)" fill="#1B1B19"/>
<rect x="26.3457" y="62.6365" width="1.90208" height="3.85553" rx="0.951041" transform="rotate(-111.6 26.3457 62.6365)" fill="#1B1B19"/>
<rect x="25.3906" y="60.1337" width="1.90208" height="3.85553" rx="0.951041" transform="rotate(-104.4 25.3906 60.1337)" fill="#1B1B19"/>
<rect x="24.7563" y="57.5308" width="1.90208" height="3.85553" rx="0.951041" transform="rotate(-97.2 24.7563 57.5308)" fill="#1B1B19"/>
</g>
<path d="M24.909 9.87268C25.0033 9.51102 25.33 9.25867 25.7037 9.25867H66.1173C66.491 9.25867 66.8177 9.51102 66.912 9.87268L67.6773 12.8063C67.8798 13.5827 67.9338 14.3903 67.8362 15.1867L66.8402 23.3212C66.7897 23.7331 66.4399 24.0427 66.0249 24.0427H25.7961C25.3811 24.0427 25.0313 23.7331 24.9808 23.3212L23.9848 15.1867C23.8872 14.3903 23.9412 13.5827 24.1437 12.8063L24.909 9.87268Z" fill="#1B1B19"/>
<path d="M24.864 16.4453L57.512 16.4453" stroke="#232321" stroke-width="0.205333"/>
<path d="M24.864 17.2667L57.512 17.2667" stroke="#232321" stroke-width="0.205333"/>
<path d="M25.0693 18.088L57.512 18.088" stroke="#232321" stroke-width="0.205333"/>
<path d="M25.0693 18.9093L57.512 18.9093" stroke="#232321" stroke-width="0.205333"/>
<path d="M25.2749 19.7307L57.5122 19.7307" stroke="#232321" stroke-width="0.205333"/>
<path d="M25.2749 20.552L57.5122 20.552" stroke="#232321" stroke-width="0.205333"/>
<path d="M25.48 21.3734L57.512 21.3733" stroke="#232321" stroke-width="0.205333"/>
<path d="M25.48 22.1946L57.512 22.1946" stroke="#232321" stroke-width="0.205333"/>
<path d="M54.47 14.4126V11.7586H54.717L55.5477 13.8333V11.7586H55.8037V14.4126H55.5477L54.7259 12.4142V14.4126H54.47Z" fill="#D8D6D6"/>
<path d="M52.2166 14.4126V11.7586H53.3617V11.9607H52.5085V12.9127H53.191V13.1372H52.5085V14.2105H53.3617V14.4126H52.2166Z" fill="#D8D6D6"/>
<path d="M49.7615 14.4126V11.7586H50.5833C50.736 11.7586 50.8587 11.7945 50.9515 11.8664C51.0443 11.9352 51.0907 12.046 51.0907 12.1987V12.6882C51.0907 12.7899 51.0758 12.8857 51.0458 12.9756C51.0159 13.0624 50.9605 13.1327 50.8797 13.1866C50.7988 13.2405 50.6821 13.2675 50.5294 13.2675H50.0534V14.4126H49.7615ZM50.0534 13.1013H50.4441C50.5638 13.1013 50.6536 13.0654 50.7135 12.9935C50.7764 12.9187 50.8078 12.8049 50.8078 12.6522V12.3064C50.8078 12.1747 50.7794 12.0789 50.7225 12.019C50.6656 11.9562 50.5967 11.9247 50.5159 11.9247H50.0534V13.1013Z" fill="#D8D6D6"/>
<path d="M46.1035 13.3259V13.1283H47.0151V13.3259H46.1035Z" fill="#D8D6D6"/>
<path d="M42.7821 14.444C42.6474 14.444 42.5306 14.4201 42.4318 14.3722C42.336 14.3243 42.2612 14.2449 42.2073 14.1342C42.1534 14.0204 42.1265 13.8632 42.1265 13.6626V13.5144C42.1744 13.5144 42.2223 13.5144 42.2702 13.5144C42.3211 13.5144 42.369 13.5144 42.4139 13.5144V13.6806C42.4139 13.8303 42.4288 13.9471 42.4588 14.0309C42.4917 14.1117 42.5351 14.1686 42.589 14.2015C42.6459 14.2345 42.7103 14.2509 42.7821 14.2509C42.8989 14.2509 42.9932 14.215 43.065 14.1431C43.1399 14.0683 43.1773 13.9366 43.1773 13.748C43.1773 13.6132 43.1578 13.513 43.1189 13.4471C43.08 13.3782 43.0201 13.3243 42.9393 13.2854C42.8585 13.2435 42.7597 13.1986 42.6429 13.1507C42.5471 13.1118 42.4603 13.0654 42.3824 13.0115C42.3076 12.9546 42.2492 12.8813 42.2073 12.7914C42.1654 12.7016 42.1444 12.5879 42.1444 12.4501C42.1444 12.2945 42.1654 12.1657 42.2073 12.0639C42.2492 11.9592 42.3181 11.8813 42.4139 11.8304C42.5097 11.7795 42.6369 11.7541 42.7956 11.7541C43.0022 11.7541 43.1608 11.8065 43.2716 11.9113C43.3854 12.0131 43.4422 12.1583 43.4422 12.3469V12.6388C43.3973 12.6388 43.3509 12.6388 43.303 12.6388C43.2581 12.6388 43.2117 12.6388 43.1638 12.6388V12.4142C43.1638 12.2705 43.1324 12.1627 43.0695 12.0909C43.0096 12.016 42.9198 11.9786 42.8001 11.9786C42.6683 11.9786 42.5725 12.0175 42.5127 12.0954C42.4558 12.1702 42.4273 12.2855 42.4273 12.4412C42.4273 12.5579 42.4498 12.6507 42.4947 12.7196C42.5396 12.7855 42.598 12.8378 42.6698 12.8768C42.7417 12.9127 42.818 12.9456 42.8989 12.9756C43.0336 13.0265 43.1429 13.0803 43.2267 13.1372C43.3105 13.1911 43.3719 13.2615 43.4108 13.3483C43.4497 13.4351 43.4692 13.5564 43.4692 13.712C43.4692 13.8947 43.4392 14.0399 43.3794 14.1476C43.3225 14.2524 43.2417 14.3288 43.1369 14.3767C43.0351 14.4216 42.9168 14.444 42.7821 14.444Z" fill="#D8D6D6"/>
<path d="M40.3163 14.4665C40.2235 14.4665 40.1367 14.459 40.0559 14.444C39.975 14.4291 39.9032 14.4006 39.8403 14.3587C39.7804 14.3168 39.7325 14.2554 39.6966 14.1746C39.6637 14.0908 39.6472 13.98 39.6472 13.8423V11.7586H39.9301V13.9006C39.9301 14.0084 39.9481 14.0893 39.984 14.1431C40.0199 14.197 40.0663 14.2345 40.1232 14.2554C40.1831 14.2734 40.2475 14.2824 40.3163 14.2824C40.3822 14.2824 40.4451 14.2734 40.5049 14.2554C40.5648 14.2345 40.6127 14.197 40.6486 14.1431C40.6846 14.0893 40.7025 14.0084 40.7025 13.9006V11.7586H40.981V13.8423C40.981 13.98 40.963 14.0908 40.9271 14.1746C40.8941 14.2554 40.8477 14.3168 40.7879 14.3587C40.728 14.4006 40.6561 14.4291 40.5723 14.444C40.4915 14.459 40.4061 14.4665 40.3163 14.4665Z" fill="#D8D6D6"/>
<path d="M37.2146 14.4126V11.7586H38.0364C38.1891 11.7586 38.3118 11.7945 38.4046 11.8664C38.4974 11.9352 38.5439 12.046 38.5439 12.1987V12.6882C38.5439 12.7899 38.5289 12.8857 38.4989 12.9756C38.469 13.0624 38.4136 13.1327 38.3328 13.1866C38.252 13.2405 38.1352 13.2675 37.9825 13.2675H37.5065V14.4126H37.2146ZM37.5065 13.1013H37.8972C38.0169 13.1013 38.1068 13.0654 38.1666 12.9935C38.2295 12.9187 38.2609 12.8049 38.2609 12.6522V12.3064C38.2609 12.1747 38.2325 12.0789 38.1756 12.019C38.1187 11.9562 38.0499 11.9247 37.969 11.9247H37.5065V13.1013Z" fill="#D8D6D6"/>
<path d="M34.1145 14.4126V11.7586H34.4468L35.0216 13.9186L35.6099 11.7586H35.9287V14.4126H35.6773V12.266L35.1249 14.4126H34.9228L34.3705 12.266V14.4126H34.1145Z" fill="#D8D6D6"/>
<path d="M32.2319 14.4126V13.2495L31.7334 11.7586H32.0253L32.3666 12.8498L32.3846 12.9396L32.4025 12.8498L32.7708 11.7586H33.0402L32.5148 13.263V14.4126H32.2319Z" fill="#D8D6D6"/>
<path d="M30.0464 14.4126V11.7586H30.3248V14.2105H31.0658V14.4126H30.0464Z" fill="#D8D6D6"/>
<path d="M28.1231 14.4665C27.9944 14.4665 27.8806 14.4515 27.7818 14.4216C27.683 14.3916 27.6037 14.3303 27.5438 14.2375C27.4869 14.1417 27.4585 13.9979 27.4585 13.8063V12.3109C27.4585 12.1433 27.4869 12.0175 27.5438 11.9337C27.6037 11.8499 27.6845 11.7945 27.7863 11.7676C27.8881 11.7376 28.0034 11.7227 28.1321 11.7227C28.2608 11.7227 28.3746 11.7376 28.4734 11.7676C28.5752 11.7975 28.6545 11.8544 28.7114 11.9382C28.7713 12.022 28.8012 12.1463 28.8012 12.3109V13.8019C28.8012 13.9965 28.7713 14.1417 28.7114 14.2375C28.6545 14.3303 28.5752 14.3916 28.4734 14.4216C28.3746 14.4515 28.2578 14.4665 28.1231 14.4665ZM28.1276 14.2913C28.2055 14.2913 28.2728 14.2824 28.3297 14.2644C28.3896 14.2434 28.436 14.2045 28.4689 14.1476C28.5018 14.0878 28.5183 13.9994 28.5183 13.8827V12.3109C28.5183 12.1942 28.5018 12.1074 28.4689 12.0505C28.436 11.9906 28.3896 11.9517 28.3297 11.9337C28.2698 11.9128 28.2025 11.9023 28.1276 11.9023C28.0498 11.9023 27.9809 11.9128 27.921 11.9337C27.8642 11.9517 27.8192 11.9906 27.7863 12.0505C27.7534 12.1074 27.7369 12.1942 27.7369 12.3109V13.8827C27.7369 13.9994 27.7534 14.0878 27.7863 14.1476C27.8192 14.2045 27.8642 14.2434 27.921 14.2644C27.9809 14.2824 28.0498 14.2913 28.1276 14.2913Z" fill="#D8D6D6"/>
<path d="M29.5867 7.82133C29.5867 7.36772 29.9544 7 30.408 7H31.4347C31.8883 7 32.256 7.36772 32.256 7.82133V9.25867H29.5867V7.82133Z" fill="#1B1B19"/>
<path d="M29.176 9.25867C29.176 8.91846 29.4518 8.64267 29.792 8.64267H32.0507C32.3909 8.64267 32.6667 8.91846 32.6667 9.25867V9.25867H29.176V9.25867Z" fill="#C5C4C5"/>
<rect x="58.7439" y="10.2853" width="6.776" height="12.32" rx="0.821333" fill="#373434"/>
<path d="M68.3945 10.08C68.3945 9.62639 68.7623 9.25867 69.2159 9.25867H78.8665C79.3201 9.25867 79.6879 9.62639 79.6879 10.08V12.1333H68.3945V10.08Z" fill="#C5C4C5"/>
<path d="M11.928 11.928C11.928 11.4744 12.2957 11.1067 12.7493 11.1067H22.4C22.8536 11.1067 23.2213 11.4744 23.2213 11.928V12.1333H11.928V11.928Z" fill="#C5C4C5"/>
<defs>
<filter id="filter0_d_2380_6171" x="6.09653" y="11.0245" width="79.4229" height="73.6736" filterUnits="userSpaceOnUse" color-interpolation-filters="sRGB">
<feFlood flood-opacity="0" result="BackgroundImageFix"/>
<feColorMatrix in="SourceAlpha" type="matrix" values="0 0 0 0 0 0 0 0 0 0 0 0 0 0 0 0 0 0 127 0" result="hardAlpha"/>
<feOffset dy="-0.205333"/>
<feGaussianBlur stdDeviation="0.451733"/>
<feComposite in2="hardAlpha" operator="out"/>
<feColorMatrix type="matrix" values="0 0 0 0 0 0 0 0 0 0 0 0 0 0 0 0 0 0 0.09 0"/>
<feBlend mode="normal" in2="BackgroundImageFix" result="effect1_dropShadow_2380_6171"/>
<feBlend mode="normal" in="SourceGraphic" in2="effect1_dropShadow_2380_6171" result="shape"/>
</filter>
<filter id="filter1_d_2380_6171" x="6.09653" y="15.3365" width="79.4229" height="16.1803" filterUnits="userSpaceOnUse" color-interpolation-filters="sRGB">
<feFlood flood-opacity="0" result="BackgroundImageFix"/>
<feColorMatrix in="SourceAlpha" type="matrix" values="0 0 0 0 0 0 0 0 0 0 0 0 0 0 0 0 0 0 127 0" result="hardAlpha"/>
<feOffset dy="-0.205333"/>
<feGaussianBlur stdDeviation="0.451733"/>
<feComposite in2="hardAlpha" operator="out"/>
<feColorMatrix type="matrix" values="0 0 0 0 0 0 0 0 0 0 0 0 0 0 0 0 0 0 0.09 0"/>
<feBlend mode="normal" in2="BackgroundImageFix" result="effect1_dropShadow_2380_6171"/>
<feBlend mode="normal" in="SourceGraphic" in2="effect1_dropShadow_2380_6171" result="shape"/>
</filter>
<filter id="filter2_d_2380_6171" x="13.9762" y="68.1893" width="7.1525" height="7.1525" filterUnits="userSpaceOnUse" color-interpolation-filters="sRGB">
<feFlood flood-opacity="0" result="BackgroundImageFix"/>
<feColorMatrix in="SourceAlpha" type="matrix" values="0 0 0 0 0 0 0 0 0 0 0 0 0 0 0 0 0 0 127 0" result="hardAlpha"/>
<feOffset dy="0.620928"/>
<feGaussianBlur stdDeviation="0.310464"/>
<feColorMatrix type="matrix" values="0 0 0 0 0 0 0 0 0 0 0 0 0 0 0 0 0 0 1 0"/>
<feBlend mode="normal" in2="BackgroundImageFix" result="effect1_dropShadow_2380_6171"/>
<feBlend mode="normal" in="SourceGraphic" in2="effect1_dropShadow_2380_6171" result="shape"/>
</filter>
<filter id="filter3_d_2380_6171" x="16.9582" y="25.5954" width="57.6225" height="57.6225" filterUnits="userSpaceOnUse" color-interpolation-filters="sRGB">
<feFlood flood-opacity="0" result="BackgroundImageFix"/>
<feColorMatrix in="SourceAlpha" type="matrix" values="0 0 0 0 0 0 0 0 0 0 0 0 0 0 0 0 0 0 127 0" result="hardAlpha"/>
<feOffset dy="0.620928"/>
<feGaussianBlur stdDeviation="0.77616"/>
<feColorMatrix type="matrix" values="0 0 0 0 0 0 0 0 0 0 0 0 0 0 0 0 0 0 0.2 0"/>
<feBlend mode="normal" in2="BackgroundImageFix" result="effect1_dropShadow_2380_6171"/>
<feBlend mode="normal" in="SourceGraphic" in2="effect1_dropShadow_2380_6171" result="shape"/>
</filter>
<filter id="filter4_i_2380_6171" x="19.936" y="28.0019" width="51.8315" height="52.0449" filterUnits="userSpaceOnUse" color-interpolation-filters="sRGB">
<feFlood flood-opacity="0" result="BackgroundImageFix"/>
<feBlend mode="normal" in="SourceGraphic" in2="BackgroundImageFix" result="shape"/>
<feColorMatrix in="SourceAlpha" type="matrix" values="0 0 0 0 0 0 0 0 0 0 0 0 0 0 0 0 0 0 127 0" result="hardAlpha"/>
<feOffset dy="0.616"/>
<feGaussianBlur stdDeviation="0.133467"/>
<feComposite in2="hardAlpha" operator="arithmetic" k2="-1" k3="1"/>
<feColorMatrix type="matrix" values="0 0 0 0 1 0 0 0 0 1 0 0 0 0 1 0 0 0 0.19 0"/>
<feBlend mode="normal" in2="shape" result="effect1_innerShadow_2380_6171"/>
</filter>
<filter id="filter5_i_2380_6171" x="24.4534" y="32.5191" width="42.6111" height="42.8135" filterUnits="userSpaceOnUse" color-interpolation-filters="sRGB">
<feFlood flood-opacity="0" result="BackgroundImageFix"/>
<feBlend mode="normal" in="SourceGraphic" in2="BackgroundImageFix" result="shape"/>
<feColorMatrix in="SourceAlpha" type="matrix" values="0 0 0 0 0 0 0 0 0 0 0 0 0 0 0 0 0 0 127 0" result="hardAlpha"/>
<feOffset dy="0.616"/>
<feGaussianBlur stdDeviation="0.133467"/>
<feComposite in2="hardAlpha" operator="arithmetic" k2="-1" k3="1"/>
<feColorMatrix type="matrix" values="0 0 0 0 1 0 0 0 0 1 0 0 0 0 1 0 0 0 0.19 0"/>
<feBlend mode="normal" in2="shape" result="effect1_innerShadow_2380_6171"/>
</filter>
<linearGradient id="paint0_linear_2380_6171" x1="7.90028" y1="7.97824" x2="99.4507" y2="43.9183" gradientUnits="userSpaceOnUse">
<stop stop-color="#C1C1C1"/>
<stop offset="1" stop-color="#D3D3D3"/>
</linearGradient>
<linearGradient id="paint1_linear_2380_6171" x1="7.90028" y1="15.6143" x2="29.6731" y2="58.3513" gradientUnits="userSpaceOnUse">
<stop stop-color="#C1C1C1"/>
<stop offset="1" stop-color="#D3D3D3"/>
</linearGradient>
<linearGradient id="paint2_linear_2380_6171" x1="45.7694" y1="26.5268" x2="45.7694" y2="81.0447" gradientUnits="userSpaceOnUse">
<stop stop-color="#EAEAEA"/>
<stop offset="1" stop-color="#B6B6B6"/>
</linearGradient>
<linearGradient id="paint3_linear_2380_6171" x1="45.8085" y1="66.8125" x2="45.8085" y2="40.759" gradientUnits="userSpaceOnUse">
<stop/>
<stop offset="1"/>
</linearGradient>
</defs>
</svg>
