<svg width="90" height="90" viewBox="0 0 90 90" fill="none" xmlns="http://www.w3.org/2000/svg">
<rect width="90" height="90" fill="#1DD1A1"/>
<g filter="url(#filter0_d_2380_5999)">
<path d="M20.4607 33.2667C20.4607 32.9009 20.6824 32.5716 21.0213 32.4339L22.483 31.8404V46.8953L20.8077 45.5923C20.5887 45.422 20.4607 45.1601 20.4607 44.8828V33.2667Z" fill="#1B1B19"/>
</g>
<g filter="url(#filter1_d_2380_5999)">
<path d="M21.3591 30.202C21.3591 29.8345 21.5829 29.504 21.9241 29.3675L24.7296 28.2453V52.9622H21.3591V30.202Z" fill="#1B1B19"/>
</g>
<path d="M15.5835 38.0125C15.5835 37.5161 15.9859 37.1137 16.4823 37.1137H20.4599V41.0148H16.4823C15.9859 41.0148 15.5835 40.6124 15.5835 40.116V38.0125Z" fill="#1B1B19"/>
<rect width="0.97529" height="2.43823" transform="matrix(-1 0 0 1 15.5835 37.8452)" fill="#BBBBBB"/>
<rect width="5.60792" height="4.63263" rx="0.898797" transform="matrix(-1 0 0 1 14.6084 36.8699)" fill="#1B1B19"/>
<g filter="url(#filter2_d_2380_5999)">
<path d="M32.8191 27.732L26.861 27.732C26.3646 27.732 25.9622 27.3296 25.9622 26.8332L25.9622 8.24699C25.9622 7.7506 26.3646 7.3482 26.861 7.3482L32.8191 7.3482L32.8191 27.732Z" fill="#1B1B19"/>
</g>
<g filter="url(#filter3_d_2380_5999)">
<rect x="25.9619" y="26.4169" width="2.95893" height="17.7536" transform="rotate(180 25.9619 26.4169)" fill="#1B1B19"/>
</g>
<g filter="url(#filter4_d_2380_5999)">
<rect x="25.9619" y="26.4169" width="2.95893" height="17.7536" transform="rotate(180 25.9619 26.4169)" fill="#1B1B19"/>
</g>
<path d="M23.0032 26.4169L22.2581 26.4169C21.7617 26.4169 21.3593 26.0145 21.3593 25.5181L21.3593 9.56209C21.3593 9.0657 21.7617 8.66329 22.2581 8.66329L23.0032 8.66329L23.0032 26.4169Z" fill="#1B1B19"/>
<mask id="mask0_2380_5999" style="mask-type:alpha" maskUnits="userSpaceOnUse" x="21" y="8" width="3" height="19">
<path d="M23.0032 26.4169L22.2581 26.4169C21.7617 26.4169 21.3593 26.0145 21.3593 25.5181L21.3593 9.56209C21.3593 9.0657 21.7617 8.66329 22.2581 8.66329L23.0032 8.66329L23.0032 26.4169Z" fill="#1B1B19"/>
</mask>
<g mask="url(#mask0_2380_5999)">
<path d="M21.3589 25.5465L22.4824 25.5465" stroke="#565553" stroke-width="0.224699"/>
<path d="M21.3592 23.7488L22.4827 23.7488" stroke="#565553" stroke-width="0.224699"/>
<path d="M21.3592 21.9512L22.4827 21.9512" stroke="#565553" stroke-width="0.224699"/>
<path d="M21.3592 20.1537L22.4827 20.1537" stroke="#565553" stroke-width="0.224699"/>
<path d="M21.3592 18.356L22.4827 18.356" stroke="#565553" stroke-width="0.224699"/>
<path d="M21.3592 16.5585L22.4827 16.5585" stroke="#565553" stroke-width="0.224699"/>
<path d="M21.3592 14.7609L22.4827 14.7609" stroke="#565553" stroke-width="0.224699"/>
<path d="M21.3592 12.9633L22.4827 12.9633" stroke="#565553" stroke-width="0.224699"/>
<path d="M21.3592 11.1657L22.4827 11.1657" stroke="#565553" stroke-width="0.224699"/>
<path d="M21.3592 9.3681L22.4827 9.3681" stroke="#565553" stroke-width="0.224699"/>
</g>
<mask id="mask1_2380_5999" style="mask-type:alpha" maskUnits="userSpaceOnUse" x="21" y="8" width="3" height="19">
<path d="M23.0032 26.4169L22.2581 26.4169C21.7617 26.4169 21.3593 26.0145 21.3593 25.5181L21.3593 9.56209C21.3593 9.0657 21.7617 8.66329 22.2581 8.66329L23.0032 8.66329L23.0032 26.4169Z" fill="#1B1B19"/>
</mask>
<g mask="url(#mask1_2380_5999)">
<path d="M21.3589 25.5465L22.4824 25.5465" stroke="#565553" stroke-width="0.224699"/>
<path d="M21.3592 23.7488L22.4827 23.7488" stroke="#565553" stroke-width="0.224699"/>
<path d="M21.3592 21.9512L22.4827 21.9512" stroke="#565553" stroke-width="0.224699"/>
<path d="M21.3592 20.1537L22.4827 20.1537" stroke="#565553" stroke-width="0.224699"/>
<path d="M21.3592 18.356L22.4827 18.356" stroke="#565553" stroke-width="0.224699"/>
<path d="M21.3592 16.5585L22.4827 16.5585" stroke="#565553" stroke-width="0.224699"/>
<path d="M21.3592 14.7609L22.4827 14.7609" stroke="#565553" stroke-width="0.224699"/>
<path d="M21.3592 12.9633L22.4827 12.9633" stroke="#565553" stroke-width="0.224699"/>
<path d="M21.3592 11.1657L22.4827 11.1657" stroke="#565553" stroke-width="0.224699"/>
<path d="M21.3592 9.3681L22.4827 9.3681" stroke="#565553" stroke-width="0.224699"/>
</g>
<g filter="url(#filter5_d_2380_5999)">
<path fill-rule="evenodd" clip-rule="evenodd" d="M33.2258 6.3388C33.3963 6.12472 33.6551 6 33.9288 6H62.9035C63.1772 6 63.436 6.12472 63.6066 6.3388L69.6219 13.8905L69.6219 13.8905L72.2521 21.781H24.5803L27.2105 13.8905H27.2105L27.2105 13.8905L33.2258 6.3388ZM24.5803 68.7951V21.781H72.2521V68.7951H24.5803Z" fill="#1B1B19"/>
</g>
<g filter="url(#filter6_di_2380_5999)">
<path d="M29.8301 18.1039C30.0181 17.5825 30.5129 17.235 31.0672 17.235H65.8023C66.3566 17.235 66.8514 17.5825 67.0394 18.1039L68.9167 23.3103C68.9683 23.4534 68.9947 23.6043 68.9947 23.7564V34.0082C68.9947 34.7345 68.4059 35.3232 67.6796 35.3232H29.1898C28.4635 35.3232 27.8748 34.7345 27.8748 34.0082V23.7564C27.8748 23.6043 27.9011 23.4534 27.9527 23.3103L29.8301 18.1039Z" fill="url(#paint0_linear_2380_5999)"/>
<path d="M30.2528 18.2564C30.3766 17.9131 30.7023 17.6844 31.0672 17.6844H65.8023C66.1671 17.6844 66.4929 17.9131 66.6166 18.2564L68.494 23.4627C68.528 23.5569 68.5453 23.6563 68.5453 23.7564V34.0082C68.5453 34.4863 68.1577 34.8738 67.6796 34.8738H29.1898C28.7117 34.8738 28.3242 34.4863 28.3242 34.0082V23.7564C28.3242 23.6563 28.3415 23.5569 28.3755 23.4627L30.2528 18.2564Z" stroke="#161613" stroke-width="0.898797"/>
</g>
<g filter="url(#filter7_di_2380_5999)">
<path d="M33.376 14.9109C33.5132 14.3137 34.0448 13.8905 34.6576 13.8905H61.8127C62.4255 13.8905 62.9571 14.3137 63.0944 14.9109L64.3036 20.1712C64.493 20.995 63.8672 21.781 63.022 21.781H33.4483C32.6031 21.781 31.9773 20.995 32.1667 20.1712L33.376 14.9109Z" fill="url(#paint1_linear_2380_5999)"/>
<path d="M33.8139 15.0116C33.9043 14.6185 34.2542 14.3399 34.6576 14.3399H61.8127C62.2161 14.3399 62.566 14.6185 62.6564 15.0116L63.8657 20.2719C63.9903 20.8142 63.5784 21.3316 63.022 21.3316H33.4483C32.8919 21.3316 32.48 20.8142 32.6047 20.2719L33.8139 15.0116Z" stroke="#161613" stroke-width="0.898797"/>
</g>
<g filter="url(#filter8_i_2380_5999)">
<path d="M60.2022 6H36.6671C36.3642 6 36.0818 6.15248 35.9156 6.40564L33.2612 10.4502C32.8689 11.0479 33.2977 11.8422 34.0126 11.8422H62.8566C63.5716 11.8422 64.0003 11.0479 63.6081 10.4502L60.9536 6.40564C60.7875 6.15248 60.505 6 60.2022 6Z" fill="#161614"/>
</g>
<g filter="url(#filter9_d_2380_5999)">
<path d="M72.2524 30.329H75.6277C76.1241 30.329 76.5265 30.7314 76.5265 31.2278V50.7128H72.2524V30.329Z" fill="#1B1B19"/>
</g>
<g filter="url(#filter10_d_2380_5999)">
<rect x="76.5261" y="31.6441" width="2.95893" height="17.7536" fill="#1B1B19"/>
</g>
<path d="M79.4846 31.6441H80.2297C80.7261 31.6441 81.1285 32.0465 81.1285 32.5429V48.4989C81.1285 48.9953 80.7261 49.3977 80.2297 49.3977H79.4846V31.6441Z" fill="#1B1B19"/>
<mask id="mask2_2380_5999" style="mask-type:alpha" maskUnits="userSpaceOnUse" x="79" y="31" width="3" height="19">
<path d="M79.4846 31.6441H80.2297C80.7261 31.6441 81.1285 32.0465 81.1285 32.5429V48.4989C81.1285 48.9953 80.7261 49.3977 80.2297 49.3977H79.4846V31.6441Z" fill="#1B1B19"/>
</mask>
<g mask="url(#mask2_2380_5999)">
<path d="M81.1286 32.5145H80.0051" stroke="#565553" stroke-width="0.224699"/>
<path d="M81.1286 34.3121H80.0051" stroke="#565553" stroke-width="0.224699"/>
<path d="M81.1286 36.1097H80.0051" stroke="#565553" stroke-width="0.224699"/>
<path d="M81.1286 37.9073H80.0051" stroke="#565553" stroke-width="0.224699"/>
<path d="M81.1286 39.7049H80.0051" stroke="#565553" stroke-width="0.224699"/>
<path d="M81.1286 41.5025H80.0051" stroke="#565553" stroke-width="0.224699"/>
<path d="M81.1286 43.3H80.0051" stroke="#565553" stroke-width="0.224699"/>
<path d="M81.1286 45.0977H80.0051" stroke="#565553" stroke-width="0.224699"/>
<path d="M81.1286 46.8953H80.0051" stroke="#565553" stroke-width="0.224699"/>
<path d="M81.1286 48.6929H80.0051" stroke="#565553" stroke-width="0.224699"/>
</g>
<g filter="url(#filter11_d_2380_5999)">
<circle cx="50.2142" cy="55.0778" r="29.7537" fill="url(#paint2_linear_2380_5999)"/>
<circle cx="50.2142" cy="55.0778" r="29.6419" stroke="#1B1B19" stroke-width="0.223564"/>
</g>
<circle cx="50.1904" cy="55.0541" r="28.6667" fill="#1B1B19" stroke="url(#paint3_linear_2380_5999)" stroke-width="0.449398"/>
<circle cx="50.2333" cy="55.0967" r="27.0763" fill="#1B1B19" stroke="url(#paint4_linear_2380_5999)" stroke-width="0.449398"/>
<circle cx="50.1208" cy="54.9844" r="21.3487" fill="#1B1B19" stroke="#BBBBBB" stroke-width="0.894256"/>
<circle cx="50.1203" cy="54.9844" r="16.8524" fill="url(#paint5_linear_2380_5999)"/>
<circle cx="53.7628" cy="51.4816" r="3.617" fill="#232323"/>
<circle cx="56.1742" cy="48.5345" r="4.95663" fill="#232323" fill-opacity="0.7"/>
<circle cx="47.2874" cy="50.0974" r="6.51954" fill="#232323" fill-opacity="0.56"/>
<circle cx="52.1995" cy="56.6168" r="9.1988" fill="#232323" fill-opacity="0.4"/>
<path d="M61.0603 16.831H60.0306L59.9793 17.1584C60.0266 17.1532 60.07 17.1492 60.1095 17.1466C60.1489 17.1413 60.1897 17.1387 60.2318 17.1387C60.3817 17.1387 60.5211 17.165 60.65 17.2176C60.7789 17.2702 60.8893 17.3425 60.9814 17.4346C61.0734 17.5266 61.1458 17.6371 61.1984 17.766C61.251 17.8949 61.2773 18.0356 61.2773 18.1881C61.2773 18.3486 61.247 18.4932 61.1865 18.6221C61.1287 18.751 61.0458 18.8615 60.938 18.9535C60.8302 19.0429 60.6987 19.1113 60.5435 19.1587C60.3883 19.2086 60.216 19.2336 60.0266 19.2336C59.8478 19.2336 59.6768 19.2113 59.5138 19.1666C59.3533 19.1245 59.2021 19.0587 59.0601 18.9693L59.1745 18.2434C59.306 18.3565 59.4401 18.4433 59.5769 18.5038C59.7137 18.5616 59.8438 18.5905 59.9675 18.5905C60.1253 18.5905 60.2502 18.5485 60.3423 18.4643C60.4343 18.3775 60.4803 18.271 60.4803 18.1447C60.4803 17.9974 60.4185 17.8791 60.2949 17.7897C60.1713 17.6976 60.0095 17.6516 59.8097 17.6516C59.7202 17.6516 59.6282 17.6621 59.5335 17.6831C59.4388 17.7016 59.3454 17.7318 59.2534 17.7739L59.5019 16.1761H61.0603V16.831Z" fill="url(#paint6_linear_2380_5999)"/>
<path d="M57.6609 17.9475V16.7757L56.9784 17.9475H57.6609ZM58.379 17.9475H58.738V18.5393H58.379V19.1508H57.6609V18.5393H56.2249V18.0422L57.3611 16.1761H58.379V17.9475Z" fill="url(#paint7_linear_2380_5999)"/>
<path d="M55.4987 16.1761L54.6544 17.1466H54.6702C54.7439 17.1019 54.8044 17.0756 54.8517 17.0677C54.899 17.0572 54.9411 17.0519 54.9779 17.0519C55.1226 17.0519 55.2554 17.0795 55.3764 17.1348C55.4974 17.19 55.6026 17.2663 55.692 17.3636C55.7815 17.4583 55.8512 17.57 55.9011 17.6989C55.9511 17.8278 55.9761 17.9659 55.9761 18.1132C55.9761 18.271 55.9472 18.4183 55.8893 18.555C55.8314 18.6892 55.7473 18.8075 55.6368 18.9101C55.529 19.0101 55.3975 19.089 55.2423 19.1468C55.0871 19.2047 54.9122 19.2336 54.7176 19.2336C54.5203 19.2336 54.3441 19.2047 54.1889 19.1468C54.0337 19.089 53.9009 19.0101 53.7904 18.9101C53.6826 18.8102 53.5997 18.6944 53.5419 18.5629C53.484 18.4288 53.4551 18.2868 53.4551 18.1368C53.4551 17.9685 53.4919 17.787 53.5655 17.5924C53.6418 17.3951 53.7575 17.2018 53.9127 17.0124L54.6031 16.1761H55.4987ZM54.2205 18.129C54.2205 18.1973 54.2336 18.2618 54.2599 18.3223C54.2862 18.3801 54.3217 18.4314 54.3664 18.4761C54.4111 18.5208 54.4624 18.5564 54.5203 18.5827C54.5808 18.609 54.6452 18.6221 54.7136 18.6221C54.782 18.6221 54.8451 18.609 54.903 18.5827C54.9635 18.5564 55.0161 18.5208 55.0608 18.4761C55.1055 18.4314 55.141 18.3801 55.1673 18.3223C55.1936 18.2618 55.2068 18.1973 55.2068 18.129C55.2068 18.0606 55.1936 17.9974 55.1673 17.9396C55.141 17.8791 55.1055 17.8265 55.0608 17.7818C55.0161 17.7371 54.9635 17.7016 54.903 17.6752C54.8451 17.6489 54.782 17.6358 54.7136 17.6358C54.6452 17.6358 54.5808 17.6489 54.5203 17.6752C54.4624 17.7016 54.4111 17.7371 54.3664 17.7818C54.3217 17.8265 54.2862 17.8791 54.2599 17.9396C54.2336 17.9974 54.2205 18.0606 54.2205 18.129Z" fill="url(#paint8_linear_2380_5999)"/>
<path d="M50.1726 18.1329C50.1726 18.1986 50.1844 18.2604 50.2081 18.3183C50.2318 18.3735 50.2634 18.4222 50.3028 18.4643C50.3449 18.5064 50.3935 18.5392 50.4488 18.5629C50.5066 18.5866 50.5685 18.5984 50.6342 18.5984C50.6973 18.5984 50.7565 18.5866 50.8117 18.5629C50.8696 18.5392 50.9183 18.5064 50.9577 18.4643C50.9998 18.4222 51.0327 18.3735 51.0563 18.3183C51.0827 18.2631 51.0958 18.2039 51.0958 18.1408C51.0958 18.0776 51.0827 18.0185 51.0563 17.9632C51.0327 17.9054 50.9998 17.8554 50.9577 17.8133C50.9183 17.7712 50.8696 17.7384 50.8117 17.7147C50.7565 17.691 50.6973 17.6792 50.6342 17.6792C50.5685 17.6792 50.5066 17.691 50.4488 17.7147C50.3935 17.7384 50.3449 17.7712 50.3028 17.8133C50.2634 17.8554 50.2318 17.9041 50.2081 17.9593C50.1844 18.0119 50.1726 18.0698 50.1726 18.1329ZM51.0721 17.1268H51.7902V19.1508H51.0721V18.9259C50.9196 19.1179 50.7131 19.2139 50.4527 19.2139C50.3054 19.2139 50.17 19.1876 50.0464 19.135C49.9227 19.0797 49.8149 19.0035 49.7229 18.9062C49.6308 18.8088 49.5585 18.6944 49.5059 18.5629C49.4559 18.4314 49.4309 18.2881 49.4309 18.1329C49.4309 17.9882 49.4559 17.8515 49.5059 17.7226C49.5558 17.5911 49.6255 17.4767 49.715 17.3793C49.8044 17.282 49.9109 17.2057 50.0345 17.1505C50.1581 17.0927 50.2949 17.0637 50.4448 17.0637C50.6973 17.0637 50.9064 17.1518 51.0721 17.3281V17.1268Z" fill="url(#paint9_linear_2380_5999)"/>
<path d="M47.6315 18.8746L46.6531 17.1269H47.4816L48.0221 18.1645L48.5468 17.1269H49.3674L47.742 20.1608H46.9411L47.6315 18.8746Z" fill="url(#paint10_linear_2380_5999)"/>
<path d="M46.3715 17.1269V19.1508H45.6575V17.1269H46.3715ZM45.6101 16.3497C45.6101 16.2944 45.6206 16.2431 45.6417 16.1958C45.6627 16.1458 45.6916 16.1024 45.7285 16.0656C45.7653 16.0288 45.8074 15.9998 45.8547 15.9788C45.9047 15.9578 45.9573 15.9472 46.0125 15.9472C46.0678 15.9472 46.119 15.9578 46.1664 15.9788C46.2164 15.9998 46.2598 16.0288 46.2966 16.0656C46.3334 16.1024 46.3623 16.1458 46.3834 16.1958C46.4044 16.2431 46.4149 16.2944 46.4149 16.3497C46.4149 16.4049 46.4044 16.4575 46.3834 16.5075C46.3623 16.5548 46.3334 16.5969 46.2966 16.6337C46.2598 16.6705 46.2164 16.6995 46.1664 16.7205C46.119 16.7415 46.0678 16.7521 46.0125 16.7521C45.9573 16.7521 45.9047 16.7415 45.8547 16.7205C45.8074 16.6995 45.7653 16.6705 45.7285 16.6337C45.6916 16.5969 45.6627 16.5548 45.6417 16.5075C45.6206 16.4575 45.6101 16.4049 45.6101 16.3497Z" fill="url(#paint11_linear_2380_5999)"/>
<path d="M41.7429 17.1268H42.457V17.3754C42.6516 17.1887 42.8699 17.0953 43.1119 17.0953C43.4118 17.0953 43.6406 17.2215 43.7984 17.474C43.9588 17.2189 44.1877 17.0913 44.4849 17.0913C44.5796 17.0913 44.669 17.1058 44.7531 17.1347C44.8373 17.161 44.9096 17.2044 44.9701 17.2649C45.0306 17.3228 45.078 17.3991 45.1122 17.4938C45.149 17.5884 45.1674 17.7029 45.1674 17.837V19.1508H44.4533V18.1526C44.4533 18.05 44.4454 17.9659 44.4296 17.9001C44.4165 17.8344 44.3954 17.7831 44.3665 17.7462C44.3402 17.7094 44.3086 17.6844 44.2718 17.6713C44.235 17.6581 44.1955 17.6516 44.1535 17.6516C43.9246 17.6516 43.8102 17.8186 43.8102 18.1526V19.1508H43.0961V18.1526C43.0961 18.05 43.0896 17.9659 43.0764 17.9001C43.0633 17.8317 43.0435 17.7778 43.0172 17.7384C42.9936 17.6989 42.962 17.6726 42.9225 17.6595C42.8831 17.6437 42.8371 17.6358 42.7845 17.6358C42.7398 17.6358 42.6977 17.6424 42.6582 17.6555C42.6188 17.6687 42.5833 17.695 42.5517 17.7344C42.5228 17.7712 42.4991 17.8238 42.4807 17.8922C42.4649 17.958 42.457 18.0448 42.457 18.1526V19.1508H41.7429V17.1268Z" fill="url(#paint12_linear_2380_5999)"/>
<path d="M39.6389 18.1329C39.6389 18.1986 39.6508 18.2604 39.6744 18.3183C39.6981 18.3735 39.7297 18.4222 39.7691 18.4643C39.8112 18.5064 39.8599 18.5392 39.9151 18.5629C39.973 18.5866 40.0348 18.5984 40.1005 18.5984C40.1636 18.5984 40.2228 18.5866 40.2781 18.5629C40.3359 18.5392 40.3846 18.5064 40.424 18.4643C40.4661 18.4222 40.499 18.3735 40.5227 18.3183C40.549 18.2631 40.5621 18.2039 40.5621 18.1408C40.5621 18.0776 40.549 18.0185 40.5227 17.9632C40.499 17.9054 40.4661 17.8554 40.424 17.8133C40.3846 17.7712 40.3359 17.7384 40.2781 17.7147C40.2228 17.691 40.1636 17.6792 40.1005 17.6792C40.0348 17.6792 39.973 17.691 39.9151 17.7147C39.8599 17.7384 39.8112 17.7712 39.7691 17.8133C39.7297 17.8554 39.6981 17.9041 39.6744 17.9593C39.6508 18.0119 39.6389 18.0698 39.6389 18.1329ZM40.5384 17.1268H41.2565V19.1508H40.5384V18.9259C40.3859 19.1179 40.1794 19.2139 39.919 19.2139C39.7717 19.2139 39.6363 19.1876 39.5127 19.135C39.3891 19.0797 39.2812 19.0035 39.1892 18.9062C39.0971 18.8088 39.0248 18.6944 38.9722 18.5629C38.9222 18.4314 38.8972 18.2881 38.8972 18.1329C38.8972 17.9882 38.9222 17.8515 38.9722 17.7226C39.0221 17.5911 39.0918 17.4767 39.1813 17.3793C39.2707 17.282 39.3772 17.2057 39.5008 17.1505C39.6245 17.0927 39.7612 17.0637 39.9111 17.0637C40.1636 17.0637 40.3727 17.1518 40.5384 17.3281V17.1268Z" fill="url(#paint13_linear_2380_5999)"/>
<path d="M34.9333 19.1508L35.4383 16.1761H36.2037L36.7995 17.762L37.3912 16.1761H38.1566L38.6616 19.1508H37.8923L37.6358 17.4385L36.9336 19.1508H36.6259L35.9591 17.4385L35.7027 19.1508H34.9333Z" fill="url(#paint14_linear_2380_5999)"/>
<defs>
<filter id="filter0_d_2380_5999" x="20.0787" y="31.4584" width="2.78619" height="15.8188" filterUnits="userSpaceOnUse" color-interpolation-filters="sRGB">
<feFlood flood-opacity="0" result="BackgroundImageFix"/>
<feColorMatrix in="SourceAlpha" type="matrix" values="0 0 0 0 0 0 0 0 0 0 0 0 0 0 0 0 0 0 127 0" result="hardAlpha"/>
<feOffset/>
<feGaussianBlur stdDeviation="0.190994"/>
<feComposite in2="hardAlpha" operator="out"/>
<feColorMatrix type="matrix" values="0 0 0 0 1 0 0 0 0 1 0 0 0 0 1 0 0 0 0.26 0"/>
<feBlend mode="normal" in2="BackgroundImageFix" result="effect1_dropShadow_2380_5999"/>
<feBlend mode="normal" in="SourceGraphic" in2="effect1_dropShadow_2380_5999" result="shape"/>
</filter>
<filter id="filter1_d_2380_5999" x="20.9771" y="27.8633" width="4.13458" height="25.4809" filterUnits="userSpaceOnUse" color-interpolation-filters="sRGB">
<feFlood flood-opacity="0" result="BackgroundImageFix"/>
<feColorMatrix in="SourceAlpha" type="matrix" values="0 0 0 0 0 0 0 0 0 0 0 0 0 0 0 0 0 0 127 0" result="hardAlpha"/>
<feOffset/>
<feGaussianBlur stdDeviation="0.190994"/>
<feComposite in2="hardAlpha" operator="out"/>
<feColorMatrix type="matrix" values="0 0 0 0 1 0 0 0 0 1 0 0 0 0 1 0 0 0 0.26 0"/>
<feBlend mode="normal" in2="BackgroundImageFix" result="effect1_dropShadow_2380_5999"/>
<feBlend mode="normal" in="SourceGraphic" in2="effect1_dropShadow_2380_5999" result="shape"/>
</filter>
<filter id="filter2_d_2380_5999" x="25.5802" y="6.96622" width="7.62091" height="21.1477" filterUnits="userSpaceOnUse" color-interpolation-filters="sRGB">
<feFlood flood-opacity="0" result="BackgroundImageFix"/>
<feColorMatrix in="SourceAlpha" type="matrix" values="0 0 0 0 0 0 0 0 0 0 0 0 0 0 0 0 0 0 127 0" result="hardAlpha"/>
<feOffset/>
<feGaussianBlur stdDeviation="0.190994"/>
<feComposite in2="hardAlpha" operator="out"/>
<feColorMatrix type="matrix" values="0 0 0 0 1 0 0 0 0 1 0 0 0 0 1 0 0 0 0.26 0"/>
<feBlend mode="normal" in2="BackgroundImageFix" result="effect1_dropShadow_2380_5999"/>
<feBlend mode="normal" in="SourceGraphic" in2="effect1_dropShadow_2380_5999" result="shape"/>
</filter>
<filter id="filter3_d_2380_5999" x="22.6209" y="8.28131" width="3.72296" height="18.5176" filterUnits="userSpaceOnUse" color-interpolation-filters="sRGB">
<feFlood flood-opacity="0" result="BackgroundImageFix"/>
<feColorMatrix in="SourceAlpha" type="matrix" values="0 0 0 0 0 0 0 0 0 0 0 0 0 0 0 0 0 0 127 0" result="hardAlpha"/>
<feOffset/>
<feGaussianBlur stdDeviation="0.190994"/>
<feComposite in2="hardAlpha" operator="out"/>
<feColorMatrix type="matrix" values="0 0 0 0 1 0 0 0 0 1 0 0 0 0 1 0 0 0 0.26 0"/>
<feBlend mode="normal" in2="BackgroundImageFix" result="effect1_dropShadow_2380_5999"/>
<feBlend mode="normal" in="SourceGraphic" in2="effect1_dropShadow_2380_5999" result="shape"/>
</filter>
<filter id="filter4_d_2380_5999" x="22.6209" y="8.28131" width="3.72296" height="18.5176" filterUnits="userSpaceOnUse" color-interpolation-filters="sRGB">
<feFlood flood-opacity="0" result="BackgroundImageFix"/>
<feColorMatrix in="SourceAlpha" type="matrix" values="0 0 0 0 0 0 0 0 0 0 0 0 0 0 0 0 0 0 127 0" result="hardAlpha"/>
<feOffset/>
<feGaussianBlur stdDeviation="0.190994"/>
<feComposite in2="hardAlpha" operator="out"/>
<feColorMatrix type="matrix" values="0 0 0 0 1 0 0 0 0 1 0 0 0 0 1 0 0 0 0.26 0"/>
<feBlend mode="normal" in2="BackgroundImageFix" result="effect1_dropShadow_2380_5999"/>
<feBlend mode="normal" in="SourceGraphic" in2="effect1_dropShadow_2380_5999" result="shape"/>
</filter>
<filter id="filter5_d_2380_5999" x="24.1983" y="5.61801" width="48.4356" height="63.5591" filterUnits="userSpaceOnUse" color-interpolation-filters="sRGB">
<feFlood flood-opacity="0" result="BackgroundImageFix"/>
<feColorMatrix in="SourceAlpha" type="matrix" values="0 0 0 0 0 0 0 0 0 0 0 0 0 0 0 0 0 0 127 0" result="hardAlpha"/>
<feOffset/>
<feGaussianBlur stdDeviation="0.190994"/>
<feComposite in2="hardAlpha" operator="out"/>
<feColorMatrix type="matrix" values="0 0 0 0 1 0 0 0 0 1 0 0 0 0 1 0 0 0 0.26 0"/>
<feBlend mode="normal" in2="BackgroundImageFix" result="effect1_dropShadow_2380_5999"/>
<feBlend mode="normal" in="SourceGraphic" in2="effect1_dropShadow_2380_5999" result="shape"/>
</filter>
<filter id="filter6_di_2380_5999" x="27.4928" y="16.6283" width="41.8839" height="18.8523" filterUnits="userSpaceOnUse" color-interpolation-filters="sRGB">
<feFlood flood-opacity="0" result="BackgroundImageFix"/>
<feColorMatrix in="SourceAlpha" type="matrix" values="0 0 0 0 0 0 0 0 0 0 0 0 0 0 0 0 0 0 127 0" result="hardAlpha"/>
<feOffset dy="-0.224699"/>
<feGaussianBlur stdDeviation="0.190994"/>
<feComposite in2="hardAlpha" operator="out"/>
<feColorMatrix type="matrix" values="0 0 0 0 1 0 0 0 0 1 0 0 0 0 1 0 0 0 0.26 0"/>
<feBlend mode="normal" in2="BackgroundImageFix" result="effect1_dropShadow_2380_5999"/>
<feBlend mode="normal" in="SourceGraphic" in2="effect1_dropShadow_2380_5999" result="shape"/>
<feColorMatrix in="SourceAlpha" type="matrix" values="0 0 0 0 0 0 0 0 0 0 0 0 0 0 0 0 0 0 127 0" result="hardAlpha"/>
<feOffset dy="1.1235"/>
<feComposite in2="hardAlpha" operator="arithmetic" k2="-1" k3="1"/>
<feColorMatrix type="matrix" values="0 0 0 0 0.0254582 0 0 0 0 0.0255046 0 0 0 0 0.0237872 0 0 0 1 0"/>
<feBlend mode="normal" in2="shape" result="effect2_innerShadow_2380_5999"/>
</filter>
<filter id="filter7_di_2380_5999" x="31.7506" y="13.2838" width="32.9691" height="8.65448" filterUnits="userSpaceOnUse" color-interpolation-filters="sRGB">
<feFlood flood-opacity="0" result="BackgroundImageFix"/>
<feColorMatrix in="SourceAlpha" type="matrix" values="0 0 0 0 0 0 0 0 0 0 0 0 0 0 0 0 0 0 127 0" result="hardAlpha"/>
<feOffset dy="-0.224699"/>
<feGaussianBlur stdDeviation="0.190994"/>
<feComposite in2="hardAlpha" operator="out"/>
<feColorMatrix type="matrix" values="0 0 0 0 1 0 0 0 0 1 0 0 0 0 1 0 0 0 0.26 0"/>
<feBlend mode="normal" in2="BackgroundImageFix" result="effect1_dropShadow_2380_5999"/>
<feBlend mode="normal" in="SourceGraphic" in2="effect1_dropShadow_2380_5999" result="shape"/>
<feColorMatrix in="SourceAlpha" type="matrix" values="0 0 0 0 0 0 0 0 0 0 0 0 0 0 0 0 0 0 127 0" result="hardAlpha"/>
<feOffset dy="1.1235"/>
<feComposite in2="hardAlpha" operator="arithmetic" k2="-1" k3="1"/>
<feColorMatrix type="matrix" values="0 0 0 0 0.0254582 0 0 0 0 0.0255046 0 0 0 0 0.0237872 0 0 0 1 0"/>
<feBlend mode="normal" in2="shape" result="effect2_innerShadow_2380_5999"/>
</filter>
<filter id="filter8_i_2380_5999" x="33.1123" y="6" width="30.6445" height="6.74099" filterUnits="userSpaceOnUse" color-interpolation-filters="sRGB">
<feFlood flood-opacity="0" result="BackgroundImageFix"/>
<feBlend mode="normal" in="SourceGraphic" in2="BackgroundImageFix" result="shape"/>
<feColorMatrix in="SourceAlpha" type="matrix" values="0 0 0 0 0 0 0 0 0 0 0 0 0 0 0 0 0 0 127 0" result="hardAlpha"/>
<feOffset dy="0.898797"/>
<feGaussianBlur stdDeviation="0.449398"/>
<feComposite in2="hardAlpha" operator="arithmetic" k2="-1" k3="1"/>
<feColorMatrix type="matrix" values="0 0 0 0 0 0 0 0 0 0 0 0 0 0 0 0 0 0 0.4 0"/>
<feBlend mode="normal" in2="shape" result="effect1_innerShadow_2380_5999"/>
</filter>
<filter id="filter9_d_2380_5999" x="71.8705" y="29.9471" width="5.0379" height="21.1477" filterUnits="userSpaceOnUse" color-interpolation-filters="sRGB">
<feFlood flood-opacity="0" result="BackgroundImageFix"/>
<feColorMatrix in="SourceAlpha" type="matrix" values="0 0 0 0 0 0 0 0 0 0 0 0 0 0 0 0 0 0 127 0" result="hardAlpha"/>
<feOffset/>
<feGaussianBlur stdDeviation="0.190994"/>
<feComposite in2="hardAlpha" operator="out"/>
<feColorMatrix type="matrix" values="0 0 0 0 1 0 0 0 0 1 0 0 0 0 1 0 0 0 0.26 0"/>
<feBlend mode="normal" in2="BackgroundImageFix" result="effect1_dropShadow_2380_5999"/>
<feBlend mode="normal" in="SourceGraphic" in2="effect1_dropShadow_2380_5999" result="shape"/>
</filter>
<filter id="filter10_d_2380_5999" x="76.1441" y="31.2621" width="3.72296" height="18.5176" filterUnits="userSpaceOnUse" color-interpolation-filters="sRGB">
<feFlood flood-opacity="0" result="BackgroundImageFix"/>
<feColorMatrix in="SourceAlpha" type="matrix" values="0 0 0 0 0 0 0 0 0 0 0 0 0 0 0 0 0 0 127 0" result="hardAlpha"/>
<feOffset/>
<feGaussianBlur stdDeviation="0.190994"/>
<feComposite in2="hardAlpha" operator="out"/>
<feColorMatrix type="matrix" values="0 0 0 0 1 0 0 0 0 1 0 0 0 0 1 0 0 0 0.26 0"/>
<feBlend mode="normal" in2="BackgroundImageFix" result="effect1_dropShadow_2380_5999"/>
<feBlend mode="normal" in="SourceGraphic" in2="effect1_dropShadow_2380_5999" result="shape"/>
</filter>
<filter id="filter11_d_2380_5999" x="18.2248" y="23.9827" width="63.9788" height="63.9787" filterUnits="userSpaceOnUse" color-interpolation-filters="sRGB">
<feFlood flood-opacity="0" result="BackgroundImageFix"/>
<feColorMatrix in="SourceAlpha" type="matrix" values="0 0 0 0 0 0 0 0 0 0 0 0 0 0 0 0 0 0 127 0" result="hardAlpha"/>
<feOffset dy="0.894256"/>
<feGaussianBlur stdDeviation="1.11782"/>
<feColorMatrix type="matrix" values="0 0 0 0 0 0 0 0 0 0 0 0 0 0 0 0 0 0 0.2 0"/>
<feBlend mode="normal" in2="BackgroundImageFix" result="effect1_dropShadow_2380_5999"/>
<feBlend mode="normal" in="SourceGraphic" in2="effect1_dropShadow_2380_5999" result="shape"/>
</filter>
<linearGradient id="paint0_linear_2380_5999" x1="48.4347" y1="17.235" x2="48.4347" y2="25.7735" gradientUnits="userSpaceOnUse">
<stop stop-color="#1E1E1B"/>
<stop offset="1" stop-color="#1B1B19"/>
</linearGradient>
<linearGradient id="paint1_linear_2380_5999" x1="48.2352" y1="13.8905" x2="48.2352" y2="21.781" gradientUnits="userSpaceOnUse">
<stop stop-color="#1E1E1B"/>
<stop offset="1" stop-color="#1B1B19"/>
</linearGradient>
<linearGradient id="paint2_linear_2380_5999" x1="50.2142" y1="25.3241" x2="50.2142" y2="84.8315" gradientUnits="userSpaceOnUse">
<stop stop-color="#2D2D2A"/>
<stop offset="1" stop-color="#252522"/>
</linearGradient>
<linearGradient id="paint3_linear_2380_5999" x1="50.1904" y1="26.1627" x2="50.1904" y2="83.9455" gradientUnits="userSpaceOnUse">
<stop stop-color="#757373"/>
<stop offset="1" stop-color="#484848"/>
</linearGradient>
<linearGradient id="paint4_linear_2380_5999" x1="50.2333" y1="27.7958" x2="50.2333" y2="82.3977" gradientUnits="userSpaceOnUse">
<stop stop-color="#757373"/>
<stop offset="1" stop-color="#484848"/>
</linearGradient>
<linearGradient id="paint5_linear_2380_5999" x1="50.1706" y1="71.8369" x2="50.1706" y2="38.132" gradientUnits="userSpaceOnUse">
<stop/>
<stop offset="1"/>
</linearGradient>
<linearGradient id="paint6_linear_2380_5999" x1="60.1687" y1="16.1761" x2="60.1687" y2="19.2336" gradientUnits="userSpaceOnUse">
<stop stop-color="#BBBBBB"/>
<stop offset="1" stop-color="#ACAAAA"/>
</linearGradient>
<linearGradient id="paint7_linear_2380_5999" x1="57.4814" y1="16.1761" x2="57.4814" y2="19.1508" gradientUnits="userSpaceOnUse">
<stop stop-color="#BBBBBB"/>
<stop offset="1" stop-color="#ACAAAA"/>
</linearGradient>
<linearGradient id="paint8_linear_2380_5999" x1="54.7156" y1="16.1761" x2="54.7156" y2="19.2336" gradientUnits="userSpaceOnUse">
<stop stop-color="#BBBBBB"/>
<stop offset="1" stop-color="#ACAAAA"/>
</linearGradient>
<linearGradient id="paint9_linear_2380_5999" x1="50.6105" y1="17.0637" x2="50.6105" y2="19.2139" gradientUnits="userSpaceOnUse">
<stop stop-color="#BBBBBB"/>
<stop offset="1" stop-color="#ACAAAA"/>
</linearGradient>
<linearGradient id="paint10_linear_2380_5999" x1="48.0102" y1="17.1269" x2="48.0102" y2="20.1608" gradientUnits="userSpaceOnUse">
<stop stop-color="#BBBBBB"/>
<stop offset="1" stop-color="#ACAAAA"/>
</linearGradient>
<linearGradient id="paint11_linear_2380_5999" x1="46.0125" y1="15.9472" x2="46.0125" y2="19.1508" gradientUnits="userSpaceOnUse">
<stop stop-color="#BBBBBB"/>
<stop offset="1" stop-color="#ACAAAA"/>
</linearGradient>
<linearGradient id="paint12_linear_2380_5999" x1="43.4552" y1="17.0913" x2="43.4552" y2="19.1508" gradientUnits="userSpaceOnUse">
<stop stop-color="#BBBBBB"/>
<stop offset="1" stop-color="#ACAAAA"/>
</linearGradient>
<linearGradient id="paint13_linear_2380_5999" x1="40.0768" y1="17.0637" x2="40.0768" y2="19.2139" gradientUnits="userSpaceOnUse">
<stop stop-color="#BBBBBB"/>
<stop offset="1" stop-color="#ACAAAA"/>
</linearGradient>
<linearGradient id="paint14_linear_2380_5999" x1="36.7975" y1="16.1761" x2="36.7975" y2="19.1508" gradientUnits="userSpaceOnUse">
<stop stop-color="#BBBBBB"/>
<stop offset="1" stop-color="#ACAAAA"/>
</linearGradient>
</defs>
</svg>
