<svg width="90" height="90" viewBox="0 0 90 90" fill="none" xmlns="http://www.w3.org/2000/svg">
<rect width="90" height="90" fill="#54A0FF"/>
<rect x="63.1421" y="20.5571" width="10.6462" height="3.25905" rx="0.869081" fill="#DDDDCA"/>
<path fill-rule="evenodd" clip-rule="evenodd" d="M31.3064 9.25905C29.8349 9.25905 28.546 10.245 28.1609 11.6651L25.3371 22.078H61.4039L58.5801 11.6651C58.195 10.245 56.9061 9.25905 55.4347 9.25905H31.3064ZM8.1727 22.2953C6.97275 22.2953 6 23.268 6 24.468V78.351C6 79.5509 6.97275 80.5237 8.1727 80.5237H79.8719C81.0718 80.5237 82.0446 79.5509 82.0446 78.351V24.468C82.0446 23.268 81.0718 22.2953 79.8719 22.2953H36.154H8.1727Z" fill="#DDDDCA"/>
<path d="M12.712 31.0142C12.0681 31.0142 11.5463 30.4916 11.5463 29.847C11.5463 29.2025 12.0681 28.6804 12.712 28.6804C12.9389 28.6804 13.1508 28.7452 13.3298 28.8575L12.712 29.847L13.875 29.1749C13.7487 28.9734 13.5674 28.7997 13.3483 28.668C13.0694 28.5008 12.6815 28.3974 12.2526 28.3974C11.6407 28.3974 11.1039 28.62 10.8045 28.9533C10.5829 29.1996 10.4509 29.5097 10.4509 29.847C10.4509 30.1846 10.5829 30.4949 10.8045 30.7414C11.1047 31.0751 11.6335 31.2964 12.2353 31.2964C12.8369 31.2964 13.3656 31.075 13.6659 30.7414C13.6824 30.7231 13.6983 30.7045 13.7134 30.6853L13.668 30.5152C13.457 30.8166 13.1075 31.0142 12.712 31.0142" fill="#818188"/>
<path d="M16.6437 31.304L16.1555 29.4813C16.0771 29.1868 15.8091 28.9703 15.4901 28.9703C15.4074 28.9703 15.3281 28.9851 15.2545 29.0119L14.2036 29.3944H15.2845L15.4692 30.0848C15.29 29.9304 15.0567 29.8365 14.8012 29.8365C14.2938 29.8365 13.8831 30.1768 13.8831 30.5966C13.8831 31.0164 14.2938 31.3572 14.8012 31.3572C15.1664 31.3572 15.4894 31.1782 15.6887 30.9033L15.7958 31.304H16.6437V31.304ZM15.1547 31.0209C14.9206 31.0209 14.7309 30.8312 14.7309 30.5966C14.7309 30.3624 14.9206 30.1725 15.1547 30.1725C15.3887 30.1725 15.5786 30.3624 15.5786 30.5966C15.5786 30.8312 15.3887 31.0209 15.1547 31.0209Z" fill="#818188"/>
<path d="M18.5584 28.8928C18.4944 28.8928 18.4338 28.9069 18.3798 28.9323L17.705 29.2471C17.6716 29.046 17.4971 28.8928 17.2866 28.8928C17.2229 28.8928 17.1622 28.9069 17.1075 28.9323L16.2837 29.3165H16.8629V31.2262H17.7107V29.529C17.7107 29.4119 17.8054 29.3165 17.9228 29.3165C18.0395 29.3165 18.1348 29.4119 18.1348 29.529V31.2262H18.9823V29.3165C18.9823 29.0823 18.7924 28.8928 18.5584 28.8928" fill="#818188"/>
<path d="M21.7375 30.0946C21.7375 30.7584 21.2 31.2963 20.537 31.2963C19.8735 31.2963 19.3357 30.7584 19.3357 30.0946C19.3357 29.431 19.8735 28.8928 20.537 28.8928C21.2 28.8928 21.7375 29.431 21.7375 30.0946V30.0946ZM20.5867 29.2575C20.549 29.1161 20.4037 29.0321 20.2625 29.0702C20.1214 29.108 20.0371 29.2535 20.075 29.3949L20.4868 30.9316C20.5249 31.0732 20.6698 31.157 20.811 31.1196C20.9523 31.0813 21.0362 30.9359 20.9983 30.7946L20.5867 29.2575V29.2575Z" fill="#818188"/>
<path d="M23.8752 28.8928C23.8109 28.8928 23.75 28.9069 23.6951 28.9323L23.0211 29.2471C22.9878 29.046 22.8134 28.8928 22.6029 28.8928C22.5392 28.8928 22.4784 28.9069 22.4235 28.9323L21.6001 29.3165H22.1791V31.2262H23.0268V29.529C23.0268 29.4119 23.1217 29.3165 23.239 29.3165C23.356 29.3165 23.4507 29.4119 23.4507 29.529V31.2262H24.2989V29.3165C24.2989 29.0823 24.1088 28.8928 23.8752 28.8928" fill="#818188"/>
<path fill-rule="evenodd" clip-rule="evenodd" d="M25.337 43.4474V36.8524C25.337 36.3724 24.9479 35.9833 24.468 35.9833H6.86908C6.3891 35.9833 6 36.3724 6 36.8524V76.3955C6 76.8755 6.3891 77.2646 6.86908 77.2646H24.468C24.9479 77.2646 25.337 76.8755 25.337 76.3955V70.0178C22.4779 66.3524 20.7744 61.7414 20.7744 56.7326C20.7744 51.7238 22.4779 47.1128 25.337 43.4474Z" fill="#33332F"/>
<path d="M18.127 70.0079C17.7969 70.5846 17.0298 70.7357 16.543 70.2833C14.9873 68.8375 13.6954 67.0337 12.7498 64.9782C11.6162 62.5142 11.0147 59.7632 10.9975 56.9648C10.9802 54.1664 11.5479 51.4056 12.651 48.9227C13.5717 46.8503 14.8422 45.024 16.3811 43.5518C16.8607 43.0929 17.6293 43.2328 17.9667 43.8044V43.8044C18.2408 44.2686 18.1298 44.8602 17.736 45.2284C16.3535 46.521 15.2144 48.14 14.3951 49.9841C13.4399 52.1342 12.9483 54.525 12.9633 56.9482C12.9782 59.3715 13.4991 61.7537 14.4807 63.8875C15.3217 65.7157 16.4791 67.314 17.8755 68.5826C18.2759 68.9463 18.3957 69.5384 18.127 70.0079V70.0079Z" fill="#252522"/>
<path d="M82.0447 31.2033H83.131C83.611 31.2033 84.0001 31.5924 84.0001 32.0724V75.0919C84.0001 75.5719 83.611 75.961 83.131 75.961H82.0447V31.2033Z" fill="#818188"/>
<path fill-rule="evenodd" clip-rule="evenodd" d="M75.9968 69.1883C76.3936 68.2292 76.6126 67.1777 76.6126 66.0752C76.6126 61.5754 72.9648 57.9276 68.465 57.9276C63.9652 57.9276 60.3174 61.5754 60.3174 66.0752C60.3174 70.575 63.9652 74.2228 68.465 74.2228C70.3839 74.2228 72.1478 73.5595 73.54 72.4496L74.8875 73.2276C75.8567 73.7872 77.096 73.4551 77.6556 72.4859C78.2152 71.5167 77.8831 70.2773 76.9139 69.7178L75.9968 69.1883Z" fill="#D3D3C0"/>
<path d="M63.1421 21.4262C63.1421 20.9462 63.5312 20.5571 64.0112 20.5571H72.9192C73.3992 20.5571 73.7883 20.9462 73.7883 21.4262V22.1866H63.1421V21.4262Z" fill="#DDDDCA"/>
<mask id="path-13-inside-1_2380_6206" fill="white">
<path d="M6 24.2507C6 23.0507 6.97275 22.078 8.1727 22.078H36.154H79.8719C81.0718 22.078 82.0446 23.0507 82.0446 24.2507V78.351C82.0446 79.5509 81.0718 80.5237 79.8719 80.5237H8.1727C6.97275 80.5237 6 79.5509 6 78.351V24.2507Z"/>
</mask>
<path d="M6 24.2507C6 23.0507 6.97275 22.078 8.1727 22.078H36.154H79.8719C81.0718 22.078 82.0446 23.0507 82.0446 24.2507V78.351C82.0446 79.5509 81.0718 80.5237 79.8719 80.5237H8.1727C6.97275 80.5237 6 79.5509 6 78.351V24.2507Z" fill="#DDDDCA"/>
<path d="M81.8273 24.2507V78.351H82.2618V24.2507H81.8273ZM79.8719 80.3064H8.1727V80.7409H79.8719V80.3064ZM6.21727 78.351V24.2507H5.78273V78.351H6.21727ZM8.1727 22.2952H36.154V21.8607H8.1727V22.2952ZM36.154 22.2952H79.8719V21.8607H36.154V22.2952ZM8.1727 80.3064C7.09274 80.3064 6.21727 79.4309 6.21727 78.351H5.78273C5.78273 79.6709 6.85275 80.7409 8.1727 80.7409V80.3064ZM81.8273 78.351C81.8273 79.4309 80.9518 80.3064 79.8719 80.3064V80.7409C81.1918 80.7409 82.2618 79.6709 82.2618 78.351H81.8273ZM82.2618 24.2507C82.2618 22.9307 81.1918 21.8607 79.8719 21.8607V22.2952C80.9518 22.2952 81.8273 23.1707 81.8273 24.2507H82.2618ZM6.21727 24.2507C6.21727 23.1707 7.09275 22.2952 8.1727 22.2952V21.8607C6.85276 21.8607 5.78273 22.9307 5.78273 24.2507H6.21727Z" fill="url(#paint0_linear_2380_6206)" mask="url(#path-13-inside-1_2380_6206)"/>
<path d="M12.712 31.0142C12.0681 31.0142 11.5463 30.4916 11.5463 29.847C11.5463 29.2025 12.0681 28.6804 12.712 28.6804C12.9389 28.6804 13.1508 28.7452 13.3298 28.8575L12.712 29.847L13.875 29.1749C13.7487 28.9734 13.5674 28.7997 13.3483 28.668C13.0694 28.5008 12.6815 28.3974 12.2526 28.3974C11.6407 28.3974 11.1039 28.62 10.8045 28.9533C10.5829 29.1996 10.4509 29.5097 10.4509 29.847C10.4509 30.1846 10.5829 30.4949 10.8045 30.7414C11.1047 31.0751 11.6335 31.2964 12.2353 31.2964C12.8369 31.2964 13.3656 31.075 13.6659 30.7414C13.6824 30.7231 13.6983 30.7045 13.7134 30.6853L13.668 30.5152C13.457 30.8166 13.1075 31.0142 12.712 31.0142" fill="#818188"/>
<path d="M16.6437 31.304L16.1555 29.4813C16.0771 29.1868 15.8091 28.9703 15.4901 28.9703C15.4074 28.9703 15.3281 28.9851 15.2545 29.0119L14.2036 29.3944H15.2845L15.4692 30.0848C15.29 29.9304 15.0567 29.8365 14.8012 29.8365C14.2938 29.8365 13.8831 30.1768 13.8831 30.5966C13.8831 31.0164 14.2938 31.3572 14.8012 31.3572C15.1664 31.3572 15.4894 31.1782 15.6887 30.9033L15.7958 31.304H16.6437V31.304ZM15.1547 31.0209C14.9206 31.0209 14.7309 30.8312 14.7309 30.5966C14.7309 30.3624 14.9206 30.1725 15.1547 30.1725C15.3887 30.1725 15.5786 30.3624 15.5786 30.5966C15.5786 30.8312 15.3887 31.0209 15.1547 31.0209Z" fill="#818188"/>
<path d="M18.5584 28.8928C18.4944 28.8928 18.4338 28.9069 18.3798 28.9323L17.705 29.2471C17.6716 29.046 17.4971 28.8928 17.2866 28.8928C17.2229 28.8928 17.1622 28.9069 17.1075 28.9323L16.2837 29.3165H16.8629V31.2262H17.7107V29.529C17.7107 29.4119 17.8054 29.3165 17.9228 29.3165C18.0395 29.3165 18.1348 29.4119 18.1348 29.529V31.2262H18.9823V29.3165C18.9823 29.0823 18.7924 28.8928 18.5584 28.8928" fill="#818188"/>
<path d="M21.7375 30.0946C21.7375 30.7584 21.2 31.2963 20.537 31.2963C19.8735 31.2963 19.3357 30.7584 19.3357 30.0946C19.3357 29.431 19.8735 28.8928 20.537 28.8928C21.2 28.8928 21.7375 29.431 21.7375 30.0946V30.0946ZM20.5867 29.2575C20.549 29.1161 20.4037 29.0321 20.2625 29.0702C20.1214 29.108 20.0371 29.2535 20.075 29.3949L20.4868 30.9316C20.5249 31.0732 20.6698 31.157 20.811 31.1196C20.9523 31.0813 21.0362 30.9359 20.9983 30.7946L20.5867 29.2575V29.2575Z" fill="#818188"/>
<path d="M23.8752 28.8928C23.8109 28.8928 23.75 28.9069 23.6951 28.9323L23.0211 29.2471C22.9878 29.046 22.8134 28.8928 22.6029 28.8928C22.5392 28.8928 22.4784 28.9069 22.4235 28.9323L21.6001 29.3165H22.1791V31.2262H23.0268V29.529C23.0268 29.4119 23.1217 29.3165 23.239 29.3165C23.356 29.3165 23.4507 29.4119 23.4507 29.529V31.2262H24.2989V29.3165C24.2989 29.0823 24.1088 28.8928 23.8752 28.8928" fill="#818188"/>
<path fill-rule="evenodd" clip-rule="evenodd" d="M25.337 43.4474V36.8524C25.337 36.3724 24.9479 35.9833 24.468 35.9833H6.86908C6.3891 35.9833 6 36.3724 6 36.8524V76.3955C6 76.8755 6.3891 77.2646 6.86908 77.2646H24.468C24.9479 77.2646 25.337 76.8755 25.337 76.3955V70.0178C22.4779 66.3524 20.7744 61.7414 20.7744 56.7326C20.7744 51.7238 22.4779 47.1128 25.337 43.4474Z" fill="#33332F"/>
<g filter="url(#filter0_d_2380_6206)">
<path d="M18.127 70.0079C17.7969 70.5846 17.0298 70.7357 16.543 70.2833C14.9873 68.8375 13.6954 67.0337 12.7498 64.9782C11.6162 62.5142 11.0147 59.7632 10.9975 56.9648C10.9802 54.1664 11.5479 51.4056 12.651 48.9227C13.5717 46.8503 14.8422 45.024 16.3811 43.5518C16.8607 43.0929 17.6293 43.2328 17.9667 43.8044V43.8044C18.2408 44.2686 18.1298 44.8602 17.736 45.2284C16.3535 46.521 15.2144 48.14 14.3951 49.9841C13.4399 52.1342 12.9483 54.525 12.9633 56.9482C12.9782 59.3715 13.4991 61.7537 14.4807 63.8875C15.3217 65.7157 16.4791 67.314 17.8755 68.5826C18.2759 68.9463 18.3957 69.5384 18.127 70.0079V70.0079Z" fill="#33332F"/>
</g>
<path d="M82.0447 31.2033H83.131C83.611 31.2033 84.0001 31.5924 84.0001 32.0724V75.0919C84.0001 75.5719 83.611 75.961 83.131 75.961H82.0447V31.2033Z" fill="#818188"/>
<path fill-rule="evenodd" clip-rule="evenodd" d="M75.9968 69.1883C76.3936 68.2292 76.6126 67.1777 76.6126 66.0752C76.6126 61.5754 72.9648 57.9276 68.465 57.9276C63.9652 57.9276 60.3174 61.5754 60.3174 66.0752C60.3174 70.575 63.9652 74.2228 68.465 74.2228C70.3839 74.2228 72.1478 73.5595 73.54 72.4496L74.8875 73.2276C75.8567 73.7872 77.096 73.4551 77.6556 72.4859C78.2152 71.5167 77.8831 70.2773 76.9139 69.7178L75.9968 69.1883Z" fill="#C0C0AE"/>
<rect x="34.2949" y="12.3008" width="19.0353" height="9.51767" rx="0.839284" fill="#1B1B19"/>
<rect x="40.0452" y="14.6802" width="7.33654" height="4.75884" rx="0.839284" fill="#BBBBBB"/>
<rect x="40.0452" y="14.6802" width="7.33654" height="4.75884" rx="0.839284" fill="#A4A49D"/>
<g filter="url(#filter1_d_2380_6206)">
<circle cx="43.4341" cy="56.8811" r="15.0552" fill="#F64F46"/>
</g>
<circle cx="43.482" cy="56.9291" r="12.9581" fill="#DDDDCA" stroke="#ABAE9B" stroke-width="0.0302062"/>
<circle cx="43.4337" cy="56.8812" r="11.137" fill="#1B1B19" stroke="#BBBBBB" stroke-width="0.362474"/>
<circle cx="43.4337" cy="56.8811" r="9.28194" fill="#1B1B19" stroke="#BBBBBB" stroke-width="0.120825"/>
<circle cx="43.4342" cy="56.8812" r="7.19469" fill="url(#paint1_linear_2380_6206)"/>
<circle cx="45.1522" cy="55.163" r="1.73961" fill="#232323"/>
<circle cx="46.3114" cy="53.7455" r="2.38391" fill="#232323" fill-opacity="0.7"/>
<circle cx="42.0379" cy="54.4972" r="3.1356" fill="#232323" fill-opacity="0.56"/>
<circle cx="44.4003" cy="57.6328" r="4.4242" fill="#232323" fill-opacity="0.4"/>
<path fill-rule="evenodd" clip-rule="evenodd" d="M31.5292 25.337V25.337C31.7685 25.337 31.9939 25.4497 32.1375 25.6412L33.1152 26.9448C33.2794 27.1637 33.5369 27.2924 33.8105 27.2924H53.7993C54.0729 27.2924 54.3305 27.1637 54.4946 26.9448V26.9448C55.2537 25.9327 56.445 25.337 57.7102 25.337H75.6351C78.215 25.337 80.3064 27.4285 80.3064 30.0083C80.3064 32.5882 78.215 34.6797 75.6351 34.6797H53.6105C52.4111 34.6797 51.2685 34.2314 50.2375 33.6182C48.3546 32.4983 46.1549 31.8551 43.805 31.8551C41.4552 31.8551 39.2555 32.4983 37.3725 33.6182C36.3416 34.2314 35.199 34.6797 33.9996 34.6797H31.5292C28.9493 34.6797 26.8579 32.5882 26.8579 30.0083C26.8579 27.4285 28.9493 25.337 31.5292 25.337Z" fill="#33332F"/>
<circle cx="39.8942" cy="29.8997" r="1.08635" fill="#5D5D53"/>
<path d="M57.7104 27.9443C57.7104 27.4643 58.0995 27.0752 58.5795 27.0752H70.9639C71.4439 27.0752 71.833 27.4643 71.833 27.9443V32.2897C71.833 32.7697 71.4439 33.1588 70.9639 33.1588H58.5795C58.0995 33.1588 57.7104 32.7697 57.7104 32.2897V27.9443Z" fill="#918C87"/>
<circle cx="76.3956" cy="29.8997" r="1.52089" fill="#918C87"/>
<defs>
<filter id="filter0_d_2380_6206" x="9.04164" y="42.1915" width="9.44687" height="29.4428" filterUnits="userSpaceOnUse" color-interpolation-filters="sRGB">
<feFlood flood-opacity="0" result="BackgroundImageFix"/>
<feColorMatrix in="SourceAlpha" type="matrix" values="0 0 0 0 0 0 0 0 0 0 0 0 0 0 0 0 0 0 127 0" result="hardAlpha"/>
<feOffset dx="-0.869081"/>
<feGaussianBlur stdDeviation="0.543175"/>
<feComposite in2="hardAlpha" operator="out"/>
<feColorMatrix type="matrix" values="0 0 0 0 0 0 0 0 0 0 0 0 0 0 0 0 0 0 0.17 0"/>
<feBlend mode="normal" in2="BackgroundImageFix" result="effect1_dropShadow_2380_6206"/>
<feBlend mode="normal" in="SourceGraphic" in2="effect1_dropShadow_2380_6206" result="shape"/>
</filter>
<filter id="filter1_d_2380_6206" x="28.0768" y="41.6447" width="30.7145" height="30.7144" filterUnits="userSpaceOnUse" color-interpolation-filters="sRGB">
<feFlood flood-opacity="0" result="BackgroundImageFix"/>
<feColorMatrix in="SourceAlpha" type="matrix" values="0 0 0 0 0 0 0 0 0 0 0 0 0 0 0 0 0 0 127 0" result="hardAlpha"/>
<feOffset dy="0.120825"/>
<feGaussianBlur stdDeviation="0.151031"/>
<feColorMatrix type="matrix" values="0 0 0 0 0 0 0 0 0 0 0 0 0 0 0 0 0 0 0.2 0"/>
<feBlend mode="normal" in2="BackgroundImageFix" result="effect1_dropShadow_2380_6206"/>
<feBlend mode="normal" in="SourceGraphic" in2="effect1_dropShadow_2380_6206" result="shape"/>
</filter>
<linearGradient id="paint0_linear_2380_6206" x1="44.0223" y1="10.5627" x2="44.0223" y2="80.5237" gradientUnits="userSpaceOnUse">
<stop stop-color="#DBDBCB"/>
<stop offset="1" stop-color="#D8D8C7"/>
</linearGradient>
<linearGradient id="paint1_linear_2380_6206" x1="43.4557" y1="64.0758" x2="43.4557" y2="49.6865" gradientUnits="userSpaceOnUse">
<stop/>
<stop offset="1"/>
</linearGradient>
</defs>
</svg>
