<svg width="90" height="90" viewBox="0 0 90 90" fill="none" xmlns="http://www.w3.org/2000/svg">
<rect width="90" height="90" rx="8" fill="#BADC58"/>
<g filter="url(#filter0_d_2380_5999)">
<path d="M20.46 33.2667C20.46 32.9009 20.6817 32.5716 21.0206 32.4339L22.4823 31.8404V46.8953L20.8069 45.5923C20.588 45.422 20.46 45.1601 20.46 44.8828V33.2667Z" fill="#1B1B19"/>
</g>
<g filter="url(#filter1_d_2380_5999)">
<path d="M21.3584 30.202C21.3584 29.8345 21.5822 29.504 21.9234 29.3675L24.7289 28.2453V52.9622H21.3584V30.202Z" fill="#1B1B19"/>
</g>
<path d="M15.583 38.0125C15.583 37.5161 15.9854 37.1137 16.4818 37.1137H20.4595V41.0148H16.4818C15.9854 41.0148 15.583 40.6124 15.583 40.116V38.0125Z" fill="#1B1B19"/>
<rect width="0.97529" height="2.43823" transform="matrix(-1 0 0 1 15.583 37.8452)" fill="#BBBBBB"/>
<rect width="5.60792" height="4.63263" rx="0.898797" transform="matrix(-1 0 0 1 14.6079 36.8699)" fill="#1B1B19"/>
<g filter="url(#filter2_d_2380_5999)">
<path d="M32.8188 27.732L26.8608 27.732C26.3644 27.732 25.962 27.3296 25.962 26.8332L25.962 8.24699C25.962 7.7506 26.3644 7.3482 26.8608 7.3482L32.8188 7.3482L32.8188 27.732Z" fill="#1B1B19"/>
</g>
<g filter="url(#filter3_d_2380_5999)">
<rect x="25.9614" y="26.4169" width="2.95893" height="17.7536" transform="rotate(180 25.9614 26.4169)" fill="#1B1B19"/>
</g>
<g filter="url(#filter4_d_2380_5999)">
<rect x="25.9614" y="26.4169" width="2.95893" height="17.7536" transform="rotate(180 25.9614 26.4169)" fill="#1B1B19"/>
</g>
<path d="M23.0029 26.4169L22.2579 26.4169C21.7615 26.4169 21.3591 26.0145 21.3591 25.5181L21.3591 9.56209C21.3591 9.0657 21.7615 8.66329 22.2579 8.66329L23.0029 8.66329L23.0029 26.4169Z" fill="#1B1B19"/>
<mask id="mask0_2380_5999" style="mask-type:alpha" maskUnits="userSpaceOnUse" x="21" y="8" width="3" height="19">
<path d="M23.0029 26.4169L22.2579 26.4169C21.7615 26.4169 21.3591 26.0145 21.3591 25.5181L21.3591 9.56209C21.3591 9.0657 21.7615 8.66329 22.2579 8.66329L23.0029 8.66329L23.0029 26.4169Z" fill="#1B1B19"/>
</mask>
<g mask="url(#mask0_2380_5999)">
<path d="M21.3584 25.5465L22.4819 25.5465" stroke="#565553" stroke-width="0.224699"/>
<path d="M21.3584 23.7488L22.4819 23.7488" stroke="#565553" stroke-width="0.224699"/>
<path d="M21.3584 21.9512L22.4819 21.9512" stroke="#565553" stroke-width="0.224699"/>
<path d="M21.3584 20.1537L22.4819 20.1537" stroke="#565553" stroke-width="0.224699"/>
<path d="M21.3584 18.356L22.4819 18.356" stroke="#565553" stroke-width="0.224699"/>
<path d="M21.3584 16.5585L22.4819 16.5585" stroke="#565553" stroke-width="0.224699"/>
<path d="M21.3584 14.7609L22.4819 14.7609" stroke="#565553" stroke-width="0.224699"/>
<path d="M21.3584 12.9633L22.4819 12.9633" stroke="#565553" stroke-width="0.224699"/>
<path d="M21.3584 11.1657L22.4819 11.1657" stroke="#565553" stroke-width="0.224699"/>
<path d="M21.3584 9.3681L22.4819 9.3681" stroke="#565553" stroke-width="0.224699"/>
</g>
<mask id="mask1_2380_5999" style="mask-type:alpha" maskUnits="userSpaceOnUse" x="21" y="8" width="3" height="19">
<path d="M23.0029 26.4169L22.2579 26.4169C21.7615 26.4169 21.3591 26.0145 21.3591 25.5181L21.3591 9.56209C21.3591 9.0657 21.7615 8.66329 22.2579 8.66329L23.0029 8.66329L23.0029 26.4169Z" fill="#1B1B19"/>
</mask>
<g mask="url(#mask1_2380_5999)">
<path d="M21.3584 25.5465L22.4819 25.5465" stroke="#565553" stroke-width="0.224699"/>
<path d="M21.3584 23.7488L22.4819 23.7488" stroke="#565553" stroke-width="0.224699"/>
<path d="M21.3584 21.9512L22.4819 21.9512" stroke="#565553" stroke-width="0.224699"/>
<path d="M21.3584 20.1537L22.4819 20.1537" stroke="#565553" stroke-width="0.224699"/>
<path d="M21.3584 18.356L22.4819 18.356" stroke="#565553" stroke-width="0.224699"/>
<path d="M21.3584 16.5585L22.4819 16.5585" stroke="#565553" stroke-width="0.224699"/>
<path d="M21.3584 14.7609L22.4819 14.7609" stroke="#565553" stroke-width="0.224699"/>
<path d="M21.3584 12.9633L22.4819 12.9633" stroke="#565553" stroke-width="0.224699"/>
<path d="M21.3584 11.1657L22.4819 11.1657" stroke="#565553" stroke-width="0.224699"/>
<path d="M21.3584 9.3681L22.4819 9.3681" stroke="#565553" stroke-width="0.224699"/>
</g>
<g filter="url(#filter5_d_2380_5999)">
<path fill-rule="evenodd" clip-rule="evenodd" d="M33.2258 6.3388C33.3963 6.12472 33.6551 6 33.9288 6H62.9035C63.1772 6 63.436 6.12472 63.6066 6.3388L69.6219 13.8905L69.6219 13.8905L72.2521 21.781H24.5803L27.2105 13.8905H27.2105L27.2105 13.8905L33.2258 6.3388ZM24.5803 68.7951V21.781H72.2521V68.7951H24.5803Z" fill="#1B1B19"/>
</g>
<g filter="url(#filter6_di_2380_5999)">
<path d="M29.8298 18.1039C30.0179 17.5825 30.5127 17.235 31.067 17.235H65.802C66.3563 17.235 66.8511 17.5825 67.0391 18.1039L68.9165 23.3103C68.9681 23.4534 68.9945 23.6043 68.9945 23.7564V34.0082C68.9945 34.7345 68.4057 35.3232 67.6794 35.3232H29.1896C28.4633 35.3232 27.8745 34.7345 27.8745 34.0082V23.7564C27.8745 23.6043 27.9009 23.4534 27.9525 23.3103L29.8298 18.1039Z" fill="url(#paint0_linear_2380_5999)"/>
<path d="M31.067 17.6844H65.802C66.1669 17.6844 66.4926 17.9131 66.6164 18.2564L68.4937 23.4627C68.5277 23.5569 68.5451 23.6563 68.5451 23.7564V34.0082C68.5451 34.4863 68.1575 34.8738 67.6794 34.8738H29.1896C28.7115 34.8738 28.3239 34.4863 28.3239 34.0082V23.7564C28.3239 23.6563 28.3413 23.5569 28.3752 23.4627L30.2526 18.2564C30.3764 17.9131 30.7021 17.6844 31.067 17.6844Z" stroke="#161613" stroke-width="0.898797"/>
</g>
<g filter="url(#filter7_di_2380_5999)">
<path d="M33.3757 14.9109C33.513 14.3137 34.0446 13.8905 34.6574 13.8905H61.8125C62.4253 13.8905 62.9568 14.3137 63.0941 14.9109L64.3034 20.1712C64.4928 20.995 63.867 21.781 63.0217 21.781H33.4481C32.6028 21.781 31.9771 20.995 32.1664 20.1712L33.3757 14.9109Z" fill="url(#paint1_linear_2380_5999)"/>
<path d="M34.6574 14.3399H61.8125C62.2158 14.3399 62.5658 14.6185 62.6561 15.0116L63.8654 20.2719C63.9901 20.8142 63.5781 21.3316 63.0217 21.3316H33.4481C32.8917 21.3316 32.4798 20.8142 32.6044 20.2719L33.8137 15.0116C33.9041 14.6185 34.254 14.3399 34.6574 14.3399Z" stroke="#161613" stroke-width="0.898797"/>
</g>
<g filter="url(#filter8_i_2380_5999)">
<path d="M60.2022 6H36.6671C36.3642 6 36.0818 6.15248 35.9156 6.40564L33.2612 10.4502C32.8689 11.0479 33.2977 11.8422 34.0126 11.8422H62.8566C63.5716 11.8422 64.0003 11.0479 63.6081 10.4502L60.9536 6.40564C60.7875 6.15248 60.505 6 60.2022 6Z" fill="#161614"/>
</g>
<g filter="url(#filter9_d_2380_5999)">
<path d="M72.2522 30.329H75.6274C76.1238 30.329 76.5262 30.7314 76.5262 31.2278V50.7128H72.2522V30.329Z" fill="#1B1B19"/>
</g>
<g filter="url(#filter10_d_2380_5999)">
<rect x="76.5259" y="31.6441" width="2.95893" height="17.7536" fill="#1B1B19"/>
</g>
<path d="M79.4844 31.6441H80.2294C80.7258 31.6441 81.1282 32.0465 81.1282 32.5429V48.4989C81.1282 48.9953 80.7258 49.3977 80.2294 49.3977H79.4844V31.6441Z" fill="#1B1B19"/>
<mask id="mask2_2380_5999" style="mask-type:alpha" maskUnits="userSpaceOnUse" x="79" y="31" width="3" height="19">
<path d="M79.4844 31.6441H80.2294C80.7258 31.6441 81.1282 32.0465 81.1282 32.5429V48.4989C81.1282 48.9953 80.7258 49.3977 80.2294 49.3977H79.4844V31.6441Z" fill="#1B1B19"/>
</mask>
<g mask="url(#mask2_2380_5999)">
<path d="M81.1284 32.5145H80.0049" stroke="#565553" stroke-width="0.224699"/>
<path d="M81.1284 34.3121H80.0049" stroke="#565553" stroke-width="0.224699"/>
<path d="M81.1284 36.1097H80.0049" stroke="#565553" stroke-width="0.224699"/>
<path d="M81.1284 37.9073H80.0049" stroke="#565553" stroke-width="0.224699"/>
<path d="M81.1284 39.7049H80.0049" stroke="#565553" stroke-width="0.224699"/>
<path d="M81.1284 41.5025H80.0049" stroke="#565553" stroke-width="0.224699"/>
<path d="M81.1284 43.3H80.0049" stroke="#565553" stroke-width="0.224699"/>
<path d="M81.1284 45.0977H80.0049" stroke="#565553" stroke-width="0.224699"/>
<path d="M81.1284 46.8953H80.0049" stroke="#565553" stroke-width="0.224699"/>
<path d="M81.1284 48.6929H80.0049" stroke="#565553" stroke-width="0.224699"/>
</g>
<g filter="url(#filter11_d_2380_5999)">
<circle cx="50.2137" cy="55.0778" r="29.7537" fill="url(#paint2_linear_2380_5999)"/>
<circle cx="50.2137" cy="55.0778" r="29.6419" stroke="#1B1B19" stroke-width="0.223564"/>
</g>
<circle cx="50.1897" cy="55.0541" r="28.6667" fill="#1B1B19" stroke="url(#paint3_linear_2380_5999)" stroke-width="0.449398"/>
<circle cx="50.2326" cy="55.0967" r="27.0763" fill="#1B1B19" stroke="url(#paint4_linear_2380_5999)" stroke-width="0.449398"/>
<circle cx="50.1205" cy="54.9844" r="21.3487" fill="#1B1B19" stroke="#BBBBBB" stroke-width="0.894256"/>
<circle cx="50.12" cy="54.9844" r="16.8524" fill="url(#paint5_linear_2380_5999)"/>
<circle cx="53.7623" cy="51.4816" r="3.617" fill="#232323"/>
<circle cx="56.1737" cy="48.5345" r="4.95663" fill="#232323" fill-opacity="0.7"/>
<circle cx="47.2871" cy="50.0974" r="6.51954" fill="#232323" fill-opacity="0.56"/>
<circle cx="52.199" cy="56.6168" r="9.1988" fill="#232323" fill-opacity="0.4"/>
<path d="M61.0601 16.831H60.0303L59.9791 17.1584C60.0264 17.1532 60.0698 17.1492 60.1093 17.1466C60.1487 17.1413 60.1895 17.1387 60.2316 17.1387C60.3815 17.1387 60.5209 17.165 60.6497 17.2176C60.7786 17.2702 60.8891 17.3425 60.9811 17.4346C61.0732 17.5266 61.1455 17.6371 61.1981 17.766C61.2507 17.8949 61.277 18.0356 61.277 18.1881C61.277 18.3486 61.2468 18.4932 61.1863 18.6221C61.1284 18.751 61.0456 18.8615 60.9378 18.9535C60.8299 19.0429 60.6984 19.1113 60.5432 19.1587C60.388 19.2086 60.2158 19.2336 60.0264 19.2336C59.8475 19.2336 59.6766 19.2113 59.5135 19.1666C59.3531 19.1245 59.2018 19.0587 59.0598 18.9693L59.1742 18.2434C59.3057 18.3565 59.4399 18.4433 59.5766 18.5038C59.7134 18.5616 59.8436 18.5905 59.9672 18.5905C60.125 18.5905 60.25 18.5485 60.342 18.4643C60.4341 18.3775 60.4801 18.271 60.4801 18.1447C60.4801 17.9974 60.4183 17.8791 60.2947 17.7897C60.1711 17.6976 60.0093 17.6516 59.8094 17.6516C59.72 17.6516 59.6279 17.6621 59.5332 17.6831C59.4386 17.7016 59.3452 17.7318 59.2531 17.7739L59.5017 16.1761H61.0601V16.831Z" fill="url(#paint6_linear_2380_5999)"/>
<path d="M57.6607 17.9475V16.7757L56.9782 17.9475H57.6607ZM58.3787 17.9475H58.7377V18.5393H58.3787V19.1508H57.6607V18.5393H56.2246V18.0422L57.3608 16.1761H58.3787V17.9475Z" fill="url(#paint7_linear_2380_5999)"/>
<path d="M55.4985 16.1761L54.6542 17.1466H54.67C54.7436 17.1019 54.8041 17.0756 54.8515 17.0677C54.8988 17.0572 54.9409 17.0519 54.9777 17.0519C55.1224 17.0519 55.2552 17.0795 55.3762 17.1348C55.4972 17.19 55.6024 17.2663 55.6918 17.3636C55.7812 17.4583 55.8509 17.57 55.9009 17.6989C55.9509 17.8278 55.9758 17.9659 55.9758 18.1132C55.9758 18.271 55.9469 18.4183 55.8891 18.555C55.8312 18.6892 55.747 18.8075 55.6366 18.9101C55.5287 19.0101 55.3972 19.089 55.242 19.1468C55.0869 19.2047 54.9119 19.2336 54.7173 19.2336C54.5201 19.2336 54.3438 19.2047 54.1887 19.1468C54.0335 19.089 53.9006 19.0101 53.7902 18.9101C53.6823 18.8102 53.5995 18.6944 53.5416 18.5629C53.4838 18.4288 53.4548 18.2868 53.4548 18.1368C53.4548 17.9685 53.4917 17.787 53.5653 17.5924C53.6416 17.3951 53.7573 17.2018 53.9125 17.0124L54.6029 16.1761H55.4985ZM54.2202 18.129C54.2202 18.1973 54.2334 18.2618 54.2597 18.3223C54.286 18.3801 54.3215 18.4314 54.3662 18.4761C54.4109 18.5208 54.4622 18.5564 54.5201 18.5827C54.5805 18.609 54.645 18.6221 54.7134 18.6221C54.7818 18.6221 54.8449 18.609 54.9027 18.5827C54.9632 18.5564 55.0158 18.5208 55.0605 18.4761C55.1053 18.4314 55.1408 18.3801 55.1671 18.3223C55.1934 18.2618 55.2065 18.1973 55.2065 18.129C55.2065 18.0606 55.1934 17.9974 55.1671 17.9396C55.1408 17.8791 55.1053 17.8265 55.0605 17.7818C55.0158 17.7371 54.9632 17.7016 54.9027 17.6752C54.8449 17.6489 54.7818 17.6358 54.7134 17.6358C54.645 17.6358 54.5805 17.6489 54.5201 17.6752C54.4622 17.7016 54.4109 17.7371 54.3662 17.7818C54.3215 17.8265 54.286 17.8791 54.2597 17.9396C54.2334 17.9974 54.2202 18.0606 54.2202 18.129Z" fill="url(#paint8_linear_2380_5999)"/>
<path d="M50.1724 18.1329C50.1724 18.1986 50.1842 18.2604 50.2079 18.3183C50.2315 18.3735 50.2631 18.4222 50.3026 18.4643C50.3446 18.5064 50.3933 18.5392 50.4485 18.5629C50.5064 18.5866 50.5682 18.5984 50.634 18.5984C50.6971 18.5984 50.7563 18.5866 50.8115 18.5629C50.8694 18.5392 50.918 18.5064 50.9575 18.4643C50.9996 18.4222 51.0324 18.3735 51.0561 18.3183C51.0824 18.2631 51.0956 18.2039 51.0956 18.1408C51.0956 18.0776 51.0824 18.0185 51.0561 17.9632C51.0324 17.9054 50.9996 17.8554 50.9575 17.8133C50.918 17.7712 50.8694 17.7384 50.8115 17.7147C50.7563 17.691 50.6971 17.6792 50.634 17.6792C50.5682 17.6792 50.5064 17.691 50.4485 17.7147C50.3933 17.7384 50.3446 17.7712 50.3026 17.8133C50.2631 17.8554 50.2315 17.9041 50.2079 17.9593C50.1842 18.0119 50.1724 18.0698 50.1724 18.1329ZM51.0719 17.1268H51.7899V19.1508H51.0719V18.9259C50.9193 19.1179 50.7129 19.2139 50.4525 19.2139C50.3052 19.2139 50.1697 19.1876 50.0461 19.135C49.9225 19.0797 49.8147 19.0035 49.7226 18.9062C49.6306 18.8088 49.5582 18.6944 49.5056 18.5629C49.4556 18.4314 49.4307 18.2881 49.4307 18.1329C49.4307 17.9882 49.4556 17.8515 49.5056 17.7226C49.5556 17.5911 49.6253 17.4767 49.7147 17.3793C49.8041 17.282 49.9107 17.2057 50.0343 17.1505C50.1579 17.0927 50.2947 17.0637 50.4446 17.0637C50.6971 17.0637 50.9062 17.1518 51.0719 17.3281V17.1268Z" fill="url(#paint9_linear_2380_5999)"/>
<path d="M47.6313 18.8746L46.6528 17.1269H47.4813L48.0218 18.1645L48.5466 17.1269H49.3672L47.7417 20.1608H46.9408L47.6313 18.8746Z" fill="url(#paint10_linear_2380_5999)"/>
<path d="M46.3713 17.1269V19.1508H45.6572V17.1269H46.3713ZM45.6099 16.3497C45.6099 16.2944 45.6204 16.2431 45.6414 16.1958C45.6625 16.1458 45.6914 16.1024 45.7282 16.0656C45.765 16.0288 45.8071 15.9998 45.8545 15.9788C45.9044 15.9578 45.957 15.9472 46.0123 15.9472C46.0675 15.9472 46.1188 15.9578 46.1661 15.9788C46.2161 15.9998 46.2595 16.0288 46.2963 16.0656C46.3332 16.1024 46.3621 16.1458 46.3831 16.1958C46.4042 16.2431 46.4147 16.2944 46.4147 16.3497C46.4147 16.4049 46.4042 16.4575 46.3831 16.5075C46.3621 16.5548 46.3332 16.5969 46.2963 16.6337C46.2595 16.6705 46.2161 16.6995 46.1661 16.7205C46.1188 16.7415 46.0675 16.7521 46.0123 16.7521C45.957 16.7521 45.9044 16.7415 45.8545 16.7205C45.8071 16.6995 45.765 16.6705 45.7282 16.6337C45.6914 16.5969 45.6625 16.5548 45.6414 16.5075C45.6204 16.4575 45.6099 16.4049 45.6099 16.3497Z" fill="url(#paint11_linear_2380_5999)"/>
<path d="M41.7427 17.1268H42.4568V17.3754C42.6514 17.1887 42.8697 17.0953 43.1117 17.0953C43.4115 17.0953 43.6403 17.2215 43.7981 17.474C43.9586 17.2189 44.1874 17.0913 44.4846 17.0913C44.5793 17.0913 44.6687 17.1058 44.7529 17.1347C44.8371 17.161 44.9094 17.2044 44.9699 17.2649C45.0304 17.3228 45.0777 17.3991 45.1119 17.4938C45.1487 17.5884 45.1671 17.7029 45.1671 17.837V19.1508H44.4531V18.1526C44.4531 18.05 44.4452 17.9659 44.4294 17.9001C44.4162 17.8344 44.3952 17.7831 44.3663 17.7462C44.34 17.7094 44.3084 17.6844 44.2716 17.6713C44.2348 17.6581 44.1953 17.6516 44.1532 17.6516C43.9244 17.6516 43.81 17.8186 43.81 18.1526V19.1508H43.0959V18.1526C43.0959 18.05 43.0893 17.9659 43.0762 17.9001C43.063 17.8317 43.0433 17.7778 43.017 17.7384C42.9933 17.6989 42.9618 17.6726 42.9223 17.6595C42.8829 17.6437 42.8368 17.6358 42.7842 17.6358C42.7395 17.6358 42.6974 17.6424 42.658 17.6555C42.6185 17.6687 42.583 17.695 42.5515 17.7344C42.5225 17.7712 42.4988 17.8238 42.4804 17.8922C42.4647 17.958 42.4568 18.0448 42.4568 18.1526V19.1508H41.7427V17.1268Z" fill="url(#paint12_linear_2380_5999)"/>
<path d="M39.6387 18.1329C39.6387 18.1986 39.6505 18.2604 39.6742 18.3183C39.6979 18.3735 39.7294 18.4222 39.7689 18.4643C39.811 18.5064 39.8596 18.5392 39.9148 18.5629C39.9727 18.5866 40.0345 18.5984 40.1003 18.5984C40.1634 18.5984 40.2226 18.5866 40.2778 18.5629C40.3357 18.5392 40.3843 18.5064 40.4238 18.4643C40.4659 18.4222 40.4987 18.3735 40.5224 18.3183C40.5487 18.2631 40.5619 18.2039 40.5619 18.1408C40.5619 18.0776 40.5487 18.0185 40.5224 17.9632C40.4987 17.9054 40.4659 17.8554 40.4238 17.8133C40.3843 17.7712 40.3357 17.7384 40.2778 17.7147C40.2226 17.691 40.1634 17.6792 40.1003 17.6792C40.0345 17.6792 39.9727 17.691 39.9148 17.7147C39.8596 17.7384 39.811 17.7712 39.7689 17.8133C39.7294 17.8554 39.6979 17.9041 39.6742 17.9593C39.6505 18.0119 39.6387 18.0698 39.6387 18.1329ZM40.5382 17.1268H41.2562V19.1508H40.5382V18.9259C40.3856 19.1179 40.1792 19.2139 39.9188 19.2139C39.7715 19.2139 39.636 19.1876 39.5124 19.135C39.3888 19.0797 39.281 19.0035 39.1889 18.9062C39.0969 18.8088 39.0245 18.6944 38.9719 18.5629C38.922 18.4314 38.897 18.2881 38.897 18.1329C38.897 17.9882 38.922 17.8515 38.9719 17.7226C39.0219 17.5911 39.0916 17.4767 39.181 17.3793C39.2705 17.282 39.377 17.2057 39.5006 17.1505C39.6242 17.0927 39.761 17.0637 39.9109 17.0637C40.1634 17.0637 40.3725 17.1518 40.5382 17.3281V17.1268Z" fill="url(#paint13_linear_2380_5999)"/>
<path d="M34.9331 19.1508L35.4381 16.1761H36.2035L36.7992 17.762L37.391 16.1761H38.1564L38.6614 19.1508H37.892L37.6356 17.4385L36.9333 19.1508H36.6256L35.9589 17.4385L35.7024 19.1508H34.9331Z" fill="url(#paint14_linear_2380_5999)"/>
<defs>
<filter id="filter0_d_2380_5999" x="20.078" y="31.4584" width="2.78644" height="15.8188" filterUnits="userSpaceOnUse" color-interpolation-filters="sRGB">
<feFlood flood-opacity="0" result="BackgroundImageFix"/>
<feColorMatrix in="SourceAlpha" type="matrix" values="0 0 0 0 0 0 0 0 0 0 0 0 0 0 0 0 0 0 127 0" result="hardAlpha"/>
<feOffset/>
<feGaussianBlur stdDeviation="0.190994"/>
<feComposite in2="hardAlpha" operator="out"/>
<feColorMatrix type="matrix" values="0 0 0 0 1 0 0 0 0 1 0 0 0 0 1 0 0 0 0.26 0"/>
<feBlend mode="normal" in2="BackgroundImageFix" result="effect1_dropShadow_2380_5999"/>
<feBlend mode="normal" in="SourceGraphic" in2="effect1_dropShadow_2380_5999" result="shape"/>
</filter>
<filter id="filter1_d_2380_5999" x="20.9764" y="27.8633" width="4.13458" height="25.4809" filterUnits="userSpaceOnUse" color-interpolation-filters="sRGB">
<feFlood flood-opacity="0" result="BackgroundImageFix"/>
<feColorMatrix in="SourceAlpha" type="matrix" values="0 0 0 0 0 0 0 0 0 0 0 0 0 0 0 0 0 0 127 0" result="hardAlpha"/>
<feOffset/>
<feGaussianBlur stdDeviation="0.190994"/>
<feComposite in2="hardAlpha" operator="out"/>
<feColorMatrix type="matrix" values="0 0 0 0 1 0 0 0 0 1 0 0 0 0 1 0 0 0 0.26 0"/>
<feBlend mode="normal" in2="BackgroundImageFix" result="effect1_dropShadow_2380_5999"/>
<feBlend mode="normal" in="SourceGraphic" in2="effect1_dropShadow_2380_5999" result="shape"/>
</filter>
<filter id="filter2_d_2380_5999" x="25.5799" y="6.96622" width="7.62091" height="21.1477" filterUnits="userSpaceOnUse" color-interpolation-filters="sRGB">
<feFlood flood-opacity="0" result="BackgroundImageFix"/>
<feColorMatrix in="SourceAlpha" type="matrix" values="0 0 0 0 0 0 0 0 0 0 0 0 0 0 0 0 0 0 127 0" result="hardAlpha"/>
<feOffset/>
<feGaussianBlur stdDeviation="0.190994"/>
<feComposite in2="hardAlpha" operator="out"/>
<feColorMatrix type="matrix" values="0 0 0 0 1 0 0 0 0 1 0 0 0 0 1 0 0 0 0.26 0"/>
<feBlend mode="normal" in2="BackgroundImageFix" result="effect1_dropShadow_2380_5999"/>
<feBlend mode="normal" in="SourceGraphic" in2="effect1_dropShadow_2380_5999" result="shape"/>
</filter>
<filter id="filter3_d_2380_5999" x="22.6205" y="8.28131" width="3.72296" height="18.5176" filterUnits="userSpaceOnUse" color-interpolation-filters="sRGB">
<feFlood flood-opacity="0" result="BackgroundImageFix"/>
<feColorMatrix in="SourceAlpha" type="matrix" values="0 0 0 0 0 0 0 0 0 0 0 0 0 0 0 0 0 0 127 0" result="hardAlpha"/>
<feOffset/>
<feGaussianBlur stdDeviation="0.190994"/>
<feComposite in2="hardAlpha" operator="out"/>
<feColorMatrix type="matrix" values="0 0 0 0 1 0 0 0 0 1 0 0 0 0 1 0 0 0 0.26 0"/>
<feBlend mode="normal" in2="BackgroundImageFix" result="effect1_dropShadow_2380_5999"/>
<feBlend mode="normal" in="SourceGraphic" in2="effect1_dropShadow_2380_5999" result="shape"/>
</filter>
<filter id="filter4_d_2380_5999" x="22.6205" y="8.28131" width="3.72296" height="18.5176" filterUnits="userSpaceOnUse" color-interpolation-filters="sRGB">
<feFlood flood-opacity="0" result="BackgroundImageFix"/>
<feColorMatrix in="SourceAlpha" type="matrix" values="0 0 0 0 0 0 0 0 0 0 0 0 0 0 0 0 0 0 127 0" result="hardAlpha"/>
<feOffset/>
<feGaussianBlur stdDeviation="0.190994"/>
<feComposite in2="hardAlpha" operator="out"/>
<feColorMatrix type="matrix" values="0 0 0 0 1 0 0 0 0 1 0 0 0 0 1 0 0 0 0.26 0"/>
<feBlend mode="normal" in2="BackgroundImageFix" result="effect1_dropShadow_2380_5999"/>
<feBlend mode="normal" in="SourceGraphic" in2="effect1_dropShadow_2380_5999" result="shape"/>
</filter>
<filter id="filter5_d_2380_5999" x="24.1986" y="5.61801" width="48.4354" height="63.5591" filterUnits="userSpaceOnUse" color-interpolation-filters="sRGB">
<feFlood flood-opacity="0" result="BackgroundImageFix"/>
<feColorMatrix in="SourceAlpha" type="matrix" values="0 0 0 0 0 0 0 0 0 0 0 0 0 0 0 0 0 0 127 0" result="hardAlpha"/>
<feOffset/>
<feGaussianBlur stdDeviation="0.190994"/>
<feComposite in2="hardAlpha" operator="out"/>
<feColorMatrix type="matrix" values="0 0 0 0 1 0 0 0 0 1 0 0 0 0 1 0 0 0 0.26 0"/>
<feBlend mode="normal" in2="BackgroundImageFix" result="effect1_dropShadow_2380_5999"/>
<feBlend mode="normal" in="SourceGraphic" in2="effect1_dropShadow_2380_5999" result="shape"/>
</filter>
<filter id="filter6_di_2380_5999" x="27.4925" y="16.6283" width="41.8839" height="18.8523" filterUnits="userSpaceOnUse" color-interpolation-filters="sRGB">
<feFlood flood-opacity="0" result="BackgroundImageFix"/>
<feColorMatrix in="SourceAlpha" type="matrix" values="0 0 0 0 0 0 0 0 0 0 0 0 0 0 0 0 0 0 127 0" result="hardAlpha"/>
<feOffset dy="-0.224699"/>
<feGaussianBlur stdDeviation="0.190994"/>
<feComposite in2="hardAlpha" operator="out"/>
<feColorMatrix type="matrix" values="0 0 0 0 1 0 0 0 0 1 0 0 0 0 1 0 0 0 0.26 0"/>
<feBlend mode="normal" in2="BackgroundImageFix" result="effect1_dropShadow_2380_5999"/>
<feBlend mode="normal" in="SourceGraphic" in2="effect1_dropShadow_2380_5999" result="shape"/>
<feColorMatrix in="SourceAlpha" type="matrix" values="0 0 0 0 0 0 0 0 0 0 0 0 0 0 0 0 0 0 127 0" result="hardAlpha"/>
<feOffset dy="1.1235"/>
<feComposite in2="hardAlpha" operator="arithmetic" k2="-1" k3="1"/>
<feColorMatrix type="matrix" values="0 0 0 0 0.0254582 0 0 0 0 0.0255046 0 0 0 0 0.0237872 0 0 0 1 0"/>
<feBlend mode="normal" in2="shape" result="effect2_innerShadow_2380_5999"/>
</filter>
<filter id="filter7_di_2380_5999" x="31.7503" y="13.2838" width="32.9691" height="8.65448" filterUnits="userSpaceOnUse" color-interpolation-filters="sRGB">
<feFlood flood-opacity="0" result="BackgroundImageFix"/>
<feColorMatrix in="SourceAlpha" type="matrix" values="0 0 0 0 0 0 0 0 0 0 0 0 0 0 0 0 0 0 127 0" result="hardAlpha"/>
<feOffset dy="-0.224699"/>
<feGaussianBlur stdDeviation="0.190994"/>
<feComposite in2="hardAlpha" operator="out"/>
<feColorMatrix type="matrix" values="0 0 0 0 1 0 0 0 0 1 0 0 0 0 1 0 0 0 0.26 0"/>
<feBlend mode="normal" in2="BackgroundImageFix" result="effect1_dropShadow_2380_5999"/>
<feBlend mode="normal" in="SourceGraphic" in2="effect1_dropShadow_2380_5999" result="shape"/>
<feColorMatrix in="SourceAlpha" type="matrix" values="0 0 0 0 0 0 0 0 0 0 0 0 0 0 0 0 0 0 127 0" result="hardAlpha"/>
<feOffset dy="1.1235"/>
<feComposite in2="hardAlpha" operator="arithmetic" k2="-1" k3="1"/>
<feColorMatrix type="matrix" values="0 0 0 0 0.0254582 0 0 0 0 0.0255046 0 0 0 0 0.0237872 0 0 0 1 0"/>
<feBlend mode="normal" in2="shape" result="effect2_innerShadow_2380_5999"/>
</filter>
<filter id="filter8_i_2380_5999" x="33.1123" y="6" width="30.6445" height="6.74099" filterUnits="userSpaceOnUse" color-interpolation-filters="sRGB">
<feFlood flood-opacity="0" result="BackgroundImageFix"/>
<feBlend mode="normal" in="SourceGraphic" in2="BackgroundImageFix" result="shape"/>
<feColorMatrix in="SourceAlpha" type="matrix" values="0 0 0 0 0 0 0 0 0 0 0 0 0 0 0 0 0 0 127 0" result="hardAlpha"/>
<feOffset dy="0.898797"/>
<feGaussianBlur stdDeviation="0.449398"/>
<feComposite in2="hardAlpha" operator="arithmetic" k2="-1" k3="1"/>
<feColorMatrix type="matrix" values="0 0 0 0 0 0 0 0 0 0 0 0 0 0 0 0 0 0 0.4 0"/>
<feBlend mode="normal" in2="shape" result="effect1_innerShadow_2380_5999"/>
</filter>
<filter id="filter9_d_2380_5999" x="71.8702" y="29.9471" width="5.0379" height="21.1477" filterUnits="userSpaceOnUse" color-interpolation-filters="sRGB">
<feFlood flood-opacity="0" result="BackgroundImageFix"/>
<feColorMatrix in="SourceAlpha" type="matrix" values="0 0 0 0 0 0 0 0 0 0 0 0 0 0 0 0 0 0 127 0" result="hardAlpha"/>
<feOffset/>
<feGaussianBlur stdDeviation="0.190994"/>
<feComposite in2="hardAlpha" operator="out"/>
<feColorMatrix type="matrix" values="0 0 0 0 1 0 0 0 0 1 0 0 0 0 1 0 0 0 0.26 0"/>
<feBlend mode="normal" in2="BackgroundImageFix" result="effect1_dropShadow_2380_5999"/>
<feBlend mode="normal" in="SourceGraphic" in2="effect1_dropShadow_2380_5999" result="shape"/>
</filter>
<filter id="filter10_d_2380_5999" x="76.1439" y="31.2621" width="3.72296" height="18.5176" filterUnits="userSpaceOnUse" color-interpolation-filters="sRGB">
<feFlood flood-opacity="0" result="BackgroundImageFix"/>
<feColorMatrix in="SourceAlpha" type="matrix" values="0 0 0 0 0 0 0 0 0 0 0 0 0 0 0 0 0 0 127 0" result="hardAlpha"/>
<feOffset/>
<feGaussianBlur stdDeviation="0.190994"/>
<feComposite in2="hardAlpha" operator="out"/>
<feColorMatrix type="matrix" values="0 0 0 0 1 0 0 0 0 1 0 0 0 0 1 0 0 0 0.26 0"/>
<feBlend mode="normal" in2="BackgroundImageFix" result="effect1_dropShadow_2380_5999"/>
<feBlend mode="normal" in="SourceGraphic" in2="effect1_dropShadow_2380_5999" result="shape"/>
</filter>
<filter id="filter11_d_2380_5999" x="18.2243" y="23.9827" width="63.9788" height="63.9787" filterUnits="userSpaceOnUse" color-interpolation-filters="sRGB">
<feFlood flood-opacity="0" result="BackgroundImageFix"/>
<feColorMatrix in="SourceAlpha" type="matrix" values="0 0 0 0 0 0 0 0 0 0 0 0 0 0 0 0 0 0 127 0" result="hardAlpha"/>
<feOffset dy="0.894256"/>
<feGaussianBlur stdDeviation="1.11782"/>
<feColorMatrix type="matrix" values="0 0 0 0 0 0 0 0 0 0 0 0 0 0 0 0 0 0 0.2 0"/>
<feBlend mode="normal" in2="BackgroundImageFix" result="effect1_dropShadow_2380_5999"/>
<feBlend mode="normal" in="SourceGraphic" in2="effect1_dropShadow_2380_5999" result="shape"/>
</filter>
<linearGradient id="paint0_linear_2380_5999" x1="48.4345" y1="17.235" x2="48.4345" y2="25.7735" gradientUnits="userSpaceOnUse">
<stop stop-color="#1E1E1B"/>
<stop offset="1" stop-color="#1B1B19"/>
</linearGradient>
<linearGradient id="paint1_linear_2380_5999" x1="48.2349" y1="13.8905" x2="48.2349" y2="21.781" gradientUnits="userSpaceOnUse">
<stop stop-color="#1E1E1B"/>
<stop offset="1" stop-color="#1B1B19"/>
</linearGradient>
<linearGradient id="paint2_linear_2380_5999" x1="50.2137" y1="25.3241" x2="50.2137" y2="84.8315" gradientUnits="userSpaceOnUse">
<stop stop-color="#2D2D2A"/>
<stop offset="1" stop-color="#252522"/>
</linearGradient>
<linearGradient id="paint3_linear_2380_5999" x1="50.1897" y1="26.1627" x2="50.1897" y2="83.9455" gradientUnits="userSpaceOnUse">
<stop stop-color="#757373"/>
<stop offset="1" stop-color="#484848"/>
</linearGradient>
<linearGradient id="paint4_linear_2380_5999" x1="50.2326" y1="27.7958" x2="50.2326" y2="82.3977" gradientUnits="userSpaceOnUse">
<stop stop-color="#757373"/>
<stop offset="1" stop-color="#484848"/>
</linearGradient>
<linearGradient id="paint5_linear_2380_5999" x1="50.1703" y1="71.8369" x2="50.1703" y2="38.132" gradientUnits="userSpaceOnUse">
<stop/>
<stop offset="1"/>
</linearGradient>
<linearGradient id="paint6_linear_2380_5999" x1="60.1684" y1="16.1761" x2="60.1684" y2="19.2336" gradientUnits="userSpaceOnUse">
<stop stop-color="#BBBBBB"/>
<stop offset="1" stop-color="#ACAAAA"/>
</linearGradient>
<linearGradient id="paint7_linear_2380_5999" x1="57.4812" y1="16.1761" x2="57.4812" y2="19.1508" gradientUnits="userSpaceOnUse">
<stop stop-color="#BBBBBB"/>
<stop offset="1" stop-color="#ACAAAA"/>
</linearGradient>
<linearGradient id="paint8_linear_2380_5999" x1="54.7153" y1="16.1761" x2="54.7153" y2="19.2336" gradientUnits="userSpaceOnUse">
<stop stop-color="#BBBBBB"/>
<stop offset="1" stop-color="#ACAAAA"/>
</linearGradient>
<linearGradient id="paint9_linear_2380_5999" x1="50.6103" y1="17.0637" x2="50.6103" y2="19.2139" gradientUnits="userSpaceOnUse">
<stop stop-color="#BBBBBB"/>
<stop offset="1" stop-color="#ACAAAA"/>
</linearGradient>
<linearGradient id="paint10_linear_2380_5999" x1="48.01" y1="17.1269" x2="48.01" y2="20.1608" gradientUnits="userSpaceOnUse">
<stop stop-color="#BBBBBB"/>
<stop offset="1" stop-color="#ACAAAA"/>
</linearGradient>
<linearGradient id="paint11_linear_2380_5999" x1="46.0123" y1="15.9472" x2="46.0123" y2="19.1508" gradientUnits="userSpaceOnUse">
<stop stop-color="#BBBBBB"/>
<stop offset="1" stop-color="#ACAAAA"/>
</linearGradient>
<linearGradient id="paint12_linear_2380_5999" x1="43.4549" y1="17.0913" x2="43.4549" y2="19.1508" gradientUnits="userSpaceOnUse">
<stop stop-color="#BBBBBB"/>
<stop offset="1" stop-color="#ACAAAA"/>
</linearGradient>
<linearGradient id="paint13_linear_2380_5999" x1="40.0766" y1="17.0637" x2="40.0766" y2="19.2139" gradientUnits="userSpaceOnUse">
<stop stop-color="#BBBBBB"/>
<stop offset="1" stop-color="#ACAAAA"/>
</linearGradient>
<linearGradient id="paint14_linear_2380_5999" x1="36.7972" y1="16.1761" x2="36.7972" y2="19.1508" gradientUnits="userSpaceOnUse">
<stop stop-color="#BBBBBB"/>
<stop offset="1" stop-color="#ACAAAA"/>
</linearGradient>
</defs>
</svg>
