<svg width="24" height="24" viewBox="0 0 24 24" fill="none" xmlns="http://www.w3.org/2000/svg">
<circle cx="12" cy="9.60001" r="2.39999" fill="white"/>
<path fill-rule="evenodd" clip-rule="evenodd" d="M12 19.2C11.4497 19.7806 11.4493 19.7803 11.4493 19.7803L11.4476 19.7786L11.4437 19.7749L11.4308 19.7625C11.42 19.7521 11.4047 19.7373 11.3853 19.7182C11.3466 19.6801 11.2912 19.625 11.2217 19.5539C11.0827 19.4117 10.8866 19.2052 10.6525 18.9422C10.1851 18.4172 9.56205 17.663 8.93801 16.7432C7.70379 14.9242 6.40002 12.3622 6.40002 9.59998C6.40002 6.5072 8.90722 4 12 4C15.0928 4 17.6 6.5072 17.6 9.59998C17.6 12.3622 16.2962 14.9242 15.062 16.7432C14.438 17.663 13.815 18.4172 13.3475 18.9422C13.1134 19.2052 12.9173 19.4117 12.7783 19.5539C12.7088 19.625 12.6534 19.6801 12.6147 19.7182C12.5953 19.7373 12.58 19.7521 12.5692 19.7625L12.5563 19.7749L12.5524 19.7786L12.5512 19.7798C12.5512 19.7798 12.5503 19.7806 12 19.2ZM12 19.2L12.5503 19.7806C12.2417 20.0731 11.7579 20.0727 11.4493 19.7803L12 19.2ZM12 8.79999C11.5582 8.79999 11.2 9.15816 11.2 9.59998C11.2 10.0418 11.5582 10.4 12 10.4C12.4418 10.4 12.8 10.0418 12.8 9.59998C12.8 9.15816 12.4418 8.79999 12 8.79999ZM9.60002 9.59998C9.60002 8.2745 10.6745 7.19999 12 7.19999C13.3255 7.19999 14.4 8.2745 14.4 9.59998C14.4 10.9255 13.3255 12 12 12C10.6745 12 9.60002 10.9255 9.60002 9.59998Z" fill="#EB4D4B"/>
</svg>
